{"glyphs":{"0":{"ha":892,"x_min":69,"x_max":822,"o":"m 444 -8 q 259 43 344 -8 q 122 204 174 94 q 69 486 69 314 q 122 769 69 660 q 259 929 174 878 q 444 981 344 981 q 631 929 544 981 q 769 769 717 878 q 822 486 822 660 q 769 204 822 314 q 631 43 717 94 q 444 -8 544 -8 m 444 92 q 569 130 510 92 q 667 254 629 168 q 704 486 704 340 q 667 718 704 632 q 569 842 629 804 q 444 881 510 881 q 320 842 379 881 q 224 718 261 804 q 188 486 188 632 q 224 254 188 340 q 320 130 261 168 q 444 92 379 92 z "},"1":{"ha":892,"x_min":90,"x_max":825,"o":"m 122 0 q 94 42 94 0 l 94 58 q 122 100 94 100 l 419 100 l 419 897 l 467 857 l 125 799 q 105 806 113 797 q 94 828 97 814 q 90 856 90 843 q 97 884 90 876 q 115 894 103 892 l 493 975 q 522 967 508 975 q 536 946 536 958 l 536 100 l 797 100 q 825 58 825 100 l 825 42 q 797 0 825 0 l 122 0 z "},"2":{"ha":892,"x_min":85,"x_max":740,"o":"m 107 0 q 94 10 99 0 q 87 34 89 19 q 85 61 85 49 q 86 75 85 68 q 90 85 88 82 l 528 549 q 574 608 557 579 q 600 663 592 636 q 608 715 608 690 q 558 840 608 799 q 417 881 507 881 q 288 864 339 881 q 206 831 236 847 q 161 814 176 814 q 144 826 154 814 q 127 855 135 839 q 119 881 119 871 q 147 913 119 896 q 218 945 174 929 q 317 971 263 961 q 424 981 371 981 q 644 913 563 981 q 726 719 726 846 q 713 634 726 678 q 672 547 699 590 q 604 463 644 504 l 260 100 l 713 100 q 740 58 740 100 l 740 42 q 713 0 740 0 l 107 0 z "},"3":{"ha":892,"x_min":103,"x_max":735,"o":"m 383 -8 q 267 -1 319 -8 q 178 19 215 7 q 122 47 142 32 q 103 74 103 61 q 108 103 103 88 q 123 129 114 118 q 139 140 132 140 q 181 128 151 140 q 259 104 211 117 q 372 92 307 92 q 503 115 449 92 q 588 181 558 138 q 618 283 618 224 q 547 418 618 369 q 350 467 475 467 l 297 467 q 269 508 269 467 l 269 524 q 276 556 269 546 q 297 565 283 565 l 358 565 q 455 578 413 565 q 527 613 497 590 q 573 665 557 635 q 589 733 589 696 q 572 801 589 767 q 509 858 554 835 q 378 881 464 881 q 271 869 313 881 q 206 847 229 858 q 171 835 182 835 q 154 849 164 835 q 138 880 144 863 q 131 907 131 897 q 157 936 131 922 q 224 960 183 950 q 306 975 264 969 q 381 981 349 981 q 613 922 524 981 q 703 744 703 864 q 681 649 703 693 q 620 576 658 606 q 532 536 582 546 l 532 531 q 641 474 596 511 q 710 390 686 438 q 735 285 735 342 q 692 128 735 194 q 572 27 650 63 q 383 -8 493 -8 z "},"4":{"ha":892,"x_min":25,"x_max":828,"o":"m 633 -3 q 601 6 611 -3 q 592 28 592 14 l 592 232 l 53 232 q 39 244 46 232 q 28 274 32 257 q 25 303 25 290 q 26 313 25 308 q 32 322 26 317 l 604 956 q 624 970 613 965 q 650 975 636 975 l 665 975 q 697 967 688 975 q 707 944 707 960 l 707 332 l 800 332 q 828 290 828 332 l 828 274 q 822 242 828 251 q 800 232 815 232 l 707 232 l 707 28 q 697 6 707 14 q 665 -3 688 -3 l 633 -3 m 146 293 l 114 332 l 592 332 l 592 676 q 593 731 592 700 q 599 783 594 761 l 550 807 l 628 825 l 146 293 z "},"5":{"ha":892,"x_min":107,"x_max":756,"o":"m 381 -8 q 238 6 300 -8 q 142 39 176 19 q 107 75 107 58 q 111 97 107 85 q 122 119 115 108 q 136 138 129 131 q 149 144 143 144 q 192 131 163 144 q 268 105 221 118 q 379 92 315 92 q 567 147 499 92 q 636 296 636 201 q 563 438 636 390 q 344 486 489 486 l 199 486 q 167 496 176 486 q 160 528 158 506 l 183 931 q 195 963 185 953 q 228 972 206 972 l 681 972 q 708 931 708 972 l 708 914 q 681 872 708 872 l 247 872 l 299 921 l 275 538 l 229 586 l 378 586 q 542 568 472 586 q 660 513 613 550 q 732 422 708 476 q 756 296 756 368 q 730 169 756 225 q 656 73 704 113 q 538 13 607 33 q 381 -8 468 -8 z "},"6":{"ha":892,"x_min":85,"x_max":792,"o":"m 422 -7 q 287 19 349 -7 q 180 92 225 44 q 110 203 135 139 q 85 343 85 267 q 117 529 85 443 q 200 685 149 615 q 313 810 251 756 q 436 901 375 864 q 547 956 497 938 q 625 975 597 975 q 644 966 636 975 q 656 944 651 957 q 663 920 661 932 q 665 901 665 908 q 663 894 665 899 q 654 886 661 889 q 452 778 538 839 q 311 649 367 718 q 228 504 256 581 q 201 346 201 428 q 218 242 201 289 q 265 163 235 196 q 338 111 296 129 q 429 93 379 93 q 555 119 500 93 q 642 189 610 144 q 674 290 674 233 q 645 390 674 349 q 563 454 617 432 q 436 476 510 476 q 292 450 363 476 q 172 379 221 424 l 185 496 q 300 552 231 528 q 471 576 369 576 q 606 557 546 576 q 706 501 665 538 q 769 413 747 465 q 792 296 792 361 q 765 175 792 231 q 688 78 738 119 q 570 15 638 38 q 422 -7 503 -7 z "},"7":{"ha":892,"x_min":64,"x_max":779,"o":"m 293 -3 q 248 2 263 -3 q 233 19 233 7 q 235 28 233 24 q 239 39 236 33 l 661 915 l 689 872 l 92 872 q 64 914 64 872 l 64 931 q 92 972 64 972 l 743 972 q 764 960 756 972 q 776 932 772 949 q 779 901 779 915 q 778 893 779 897 q 776 886 778 889 l 365 19 q 354 8 363 13 q 335 0 346 3 q 310 -3 324 -3 l 293 -3 z "},"8":{"ha":892,"x_min":104,"x_max":788,"o":"m 446 -8 q 273 19 350 -8 q 150 100 196 46 q 104 239 104 154 q 135 373 104 317 q 219 468 167 429 q 332 529 271 507 l 426 490 q 319 429 364 467 q 249 345 274 392 q 224 246 224 299 q 254 160 224 194 q 335 108 285 125 q 446 92 386 92 q 557 108 507 92 q 638 160 607 125 q 668 246 668 194 q 640 333 668 299 q 565 390 611 367 q 462 431 518 413 q 349 471 406 449 q 247 525 293 493 q 172 607 200 557 q 143 733 143 657 q 180 867 143 813 q 285 951 217 922 q 449 981 353 981 q 614 952 544 981 q 720 872 683 924 q 757 747 757 819 q 726 625 757 675 q 645 544 696 575 q 533 493 594 513 l 431 528 q 535 581 488 551 q 612 649 583 610 q 640 740 640 689 q 590 843 640 806 q 449 881 539 881 q 310 843 360 881 q 260 740 260 806 q 288 645 260 682 q 364 585 317 608 q 467 544 411 561 q 580 506 524 526 q 683 456 636 486 q 759 376 731 425 q 788 253 788 328 q 761 135 788 185 q 688 54 735 86 q 578 7 640 22 q 446 -8 517 -8 z "},"9":{"ha":892,"x_min":100,"x_max":807,"o":"m 469 975 q 605 949 543 975 q 712 876 667 924 q 782 765 757 829 q 807 625 807 701 q 775 439 807 525 q 692 283 743 353 q 578 158 640 213 q 456 67 517 104 q 344 12 394 31 q 267 -7 294 -7 q 248 2 256 -7 q 235 24 240 11 q 228 49 231 36 q 226 67 226 61 q 228 74 226 69 q 238 82 231 79 q 440 190 354 131 q 581 319 525 250 q 663 465 636 388 q 690 622 690 542 q 674 726 690 679 q 626 806 657 772 q 554 857 596 839 q 463 875 513 875 q 337 849 392 875 q 250 779 282 824 q 218 678 218 735 q 247 578 218 621 q 328 514 275 536 q 456 492 382 492 q 600 518 529 492 q 719 589 671 544 l 707 472 q 592 417 661 442 q 421 392 522 392 q 286 411 346 392 q 185 467 226 431 q 122 555 144 503 q 100 672 100 607 q 127 793 100 738 q 204 890 154 849 q 322 953 254 931 q 469 975 389 975 z "},"A":{"ha":1021,"x_min":32,"x_max":989,"o":"m 92 -3 q 47 3 61 -3 q 32 21 32 10 q 33 30 32 25 q 36 40 33 35 l 418 946 q 442 968 425 961 q 488 975 458 975 l 533 975 q 580 968 563 975 q 603 946 597 961 l 985 39 q 988 29 988 33 q 989 21 989 25 q 975 4 989 11 q 929 -3 961 -3 l 917 -3 q 880 1 894 -3 q 858 24 865 6 l 557 761 q 533 825 546 789 q 513 889 519 861 l 510 889 q 490 829 504 865 q 463 761 475 793 l 158 24 q 137 1 151 6 q 101 -3 122 -3 l 92 -3 m 217 250 l 217 353 l 799 353 l 799 250 l 217 250 z "},"Á":{"ha":1021,"x_min":32,"x_max":989,"o":"m 92 -3 q 47 3 61 -3 q 32 21 32 10 q 33 30 32 25 q 36 40 33 35 l 418 946 q 442 968 425 961 q 488 975 458 975 l 533 975 q 580 968 563 975 q 603 946 597 961 l 985 39 q 988 29 988 33 q 989 21 989 25 q 975 4 989 11 q 929 -3 961 -3 l 917 -3 q 880 1 894 -3 q 858 24 865 6 l 557 761 q 533 825 546 789 q 513 889 519 861 l 510 889 q 490 829 504 865 q 463 761 475 793 l 158 24 q 137 1 151 6 q 101 -3 122 -3 l 92 -3 m 217 250 l 217 353 l 799 353 l 799 250 l 217 250 m 428 1044 q 401 1049 411 1044 q 392 1063 392 1054 q 394 1075 392 1068 q 407 1089 397 1082 l 510 1168 q 551 1192 531 1183 q 615 1200 572 1200 q 668 1194 647 1200 q 689 1175 689 1188 q 681 1151 689 1164 q 633 1119 674 1139 l 538 1074 q 485 1052 507 1060 q 428 1044 463 1044 z "},"Ă":{"ha":1021,"x_min":32,"x_max":989,"o":"m 92 -3 q 47 3 61 -3 q 32 21 32 10 q 33 30 32 25 q 36 40 33 35 l 418 946 q 442 968 425 961 q 488 975 458 975 l 533 975 q 580 968 563 975 q 603 946 597 961 l 985 39 q 988 29 988 33 q 989 21 989 25 q 975 4 989 11 q 929 -3 961 -3 l 917 -3 q 880 1 894 -3 q 858 24 865 6 l 557 761 q 533 825 546 789 q 513 889 519 861 l 510 889 q 490 829 504 865 q 463 761 475 793 l 158 24 q 137 1 151 6 q 101 -3 122 -3 l 92 -3 m 217 250 l 217 353 l 799 353 l 799 250 l 217 250 m 511 1033 q 407 1053 451 1033 q 338 1105 363 1072 q 314 1179 314 1138 q 320 1206 314 1199 q 340 1214 326 1214 q 357 1209 351 1214 q 368 1192 363 1204 q 417 1142 379 1158 q 511 1125 456 1125 q 603 1142 564 1125 q 654 1192 642 1158 q 683 1214 664 1214 q 701 1206 696 1214 q 707 1179 707 1199 q 683 1105 707 1138 q 615 1053 658 1072 q 511 1033 571 1033 z "},"Ắ":{"ha":1021,"x_min":32,"x_max":989,"o":"m 92 -3 q 47 3 61 -3 q 32 21 32 10 q 33 30 32 25 q 36 40 33 35 l 418 946 q 442 968 425 961 q 488 975 458 975 l 533 975 q 580 968 563 975 q 603 946 597 961 l 985 39 q 988 29 988 33 q 989 21 989 25 q 975 4 989 11 q 929 -3 961 -3 l 917 -3 q 880 1 894 -3 q 858 24 865 6 l 557 761 q 533 825 546 789 q 513 889 519 861 l 510 889 q 490 829 504 865 q 463 761 475 793 l 158 24 q 137 1 151 6 q 101 -3 122 -3 l 92 -3 m 217 250 l 217 353 l 799 353 l 799 250 l 217 250 m 511 1033 q 407 1053 451 1033 q 338 1105 363 1072 q 314 1179 314 1138 q 320 1206 314 1199 q 340 1214 326 1214 q 357 1209 351 1214 q 368 1192 363 1204 q 417 1142 379 1158 q 511 1125 456 1125 q 603 1142 564 1125 q 654 1192 642 1158 q 683 1214 664 1214 q 701 1206 696 1214 q 707 1179 707 1199 q 683 1105 707 1138 q 615 1053 658 1072 q 511 1033 571 1033 m 428 1228 q 401 1233 411 1228 q 392 1246 392 1238 q 394 1258 392 1251 q 407 1272 397 1265 l 510 1351 q 551 1375 531 1367 q 615 1383 572 1383 q 668 1377 647 1383 q 689 1358 689 1371 q 681 1335 689 1347 q 633 1303 674 1322 l 538 1257 q 485 1235 507 1243 q 428 1228 463 1228 z "},"Ặ":{"ha":1021,"x_min":32,"x_max":989,"o":"m 92 -3 q 47 3 61 -3 q 32 21 32 10 q 33 30 32 25 q 36 40 33 35 l 418 946 q 442 968 425 961 q 488 975 458 975 l 533 975 q 580 968 563 975 q 603 946 597 961 l 985 39 q 988 29 988 33 q 989 21 989 25 q 975 4 989 11 q 929 -3 961 -3 l 917 -3 q 880 1 894 -3 q 858 24 865 6 l 557 761 q 533 825 546 789 q 513 889 519 861 l 510 889 q 490 829 504 865 q 463 761 475 793 l 158 24 q 137 1 151 6 q 101 -3 122 -3 l 92 -3 m 217 250 l 217 353 l 799 353 l 799 250 l 217 250 m 511 -243 q 466 -235 481 -243 q 451 -212 451 -228 l 451 -142 q 466 -119 451 -126 q 511 -111 481 -111 q 557 -119 543 -111 q 571 -142 571 -126 l 571 -212 q 557 -235 571 -228 q 511 -243 543 -243 m 511 1033 q 407 1053 451 1033 q 338 1105 363 1072 q 314 1179 314 1138 q 320 1206 314 1199 q 340 1214 326 1214 q 357 1209 351 1214 q 368 1192 363 1204 q 417 1142 379 1158 q 511 1125 456 1125 q 603 1142 564 1125 q 654 1192 642 1158 q 683 1214 664 1214 q 701 1206 696 1214 q 707 1179 707 1199 q 683 1105 707 1138 q 615 1053 658 1072 q 511 1033 571 1033 z "},"Ằ":{"ha":1021,"x_min":32,"x_max":989,"o":"m 92 -3 q 47 3 61 -3 q 32 21 32 10 q 33 30 32 25 q 36 40 33 35 l 418 946 q 442 968 425 961 q 488 975 458 975 l 533 975 q 580 968 563 975 q 603 946 597 961 l 985 39 q 988 29 988 33 q 989 21 989 25 q 975 4 989 11 q 929 -3 961 -3 l 917 -3 q 880 1 894 -3 q 858 24 865 6 l 557 761 q 533 825 546 789 q 513 889 519 861 l 510 889 q 490 829 504 865 q 463 761 475 793 l 158 24 q 137 1 151 6 q 101 -3 122 -3 l 92 -3 m 217 250 l 217 353 l 799 353 l 799 250 l 217 250 m 511 1033 q 407 1053 451 1033 q 338 1105 363 1072 q 314 1179 314 1138 q 320 1206 314 1199 q 340 1214 326 1214 q 357 1209 351 1214 q 368 1192 363 1204 q 417 1142 379 1158 q 511 1125 456 1125 q 603 1142 564 1125 q 654 1192 642 1158 q 683 1214 664 1214 q 701 1206 696 1214 q 707 1179 707 1199 q 683 1105 707 1138 q 615 1053 658 1072 q 511 1033 571 1033 m 594 1228 q 538 1235 560 1228 q 485 1257 517 1243 l 389 1303 q 342 1335 350 1322 q 333 1358 333 1347 q 354 1377 333 1371 q 407 1383 375 1383 q 472 1375 451 1383 q 513 1351 492 1367 l 615 1272 q 628 1258 625 1265 q 631 1246 631 1251 q 621 1233 631 1238 q 594 1228 611 1228 z "},"Ẳ":{"ha":1021,"x_min":32,"x_max":989,"o":"m 92 -3 q 47 3 61 -3 q 32 21 32 10 q 33 30 32 25 q 36 40 33 35 l 418 946 q 442 968 425 961 q 488 975 458 975 l 533 975 q 580 968 563 975 q 603 946 597 961 l 985 39 q 988 29 988 33 q 989 21 989 25 q 975 4 989 11 q 929 -3 961 -3 l 917 -3 q 880 1 894 -3 q 858 24 865 6 l 557 761 q 533 825 546 789 q 513 889 519 861 l 510 889 q 490 829 504 865 q 463 761 475 793 l 158 24 q 137 1 151 6 q 101 -3 122 -3 l 92 -3 m 217 250 l 217 353 l 799 353 l 799 250 l 217 250 m 511 1033 q 407 1053 451 1033 q 338 1105 363 1072 q 314 1179 314 1138 q 320 1206 314 1199 q 340 1214 326 1214 q 357 1209 351 1214 q 368 1192 363 1204 q 417 1142 379 1158 q 511 1125 456 1125 q 603 1142 564 1125 q 654 1192 642 1158 q 683 1214 664 1214 q 701 1206 696 1214 q 707 1179 707 1199 q 683 1105 707 1138 q 615 1053 658 1072 q 511 1033 571 1033 m 499 1211 q 478 1224 489 1211 q 467 1246 467 1236 q 482 1260 467 1251 q 518 1281 497 1269 q 554 1306 539 1292 q 569 1338 569 1321 q 548 1364 569 1356 q 496 1372 526 1372 q 436 1360 460 1372 q 406 1347 413 1347 q 392 1356 400 1347 q 378 1375 385 1364 q 372 1393 372 1386 q 392 1413 372 1401 q 442 1434 411 1425 q 506 1443 474 1443 q 570 1435 536 1443 q 628 1408 604 1428 q 651 1351 651 1388 q 632 1294 651 1321 q 585 1250 613 1268 q 534 1222 558 1232 q 499 1211 510 1211 z "},"Ẵ":{"ha":1021,"x_min":32,"x_max":989,"o":"m 92 -3 q 47 3 61 -3 q 32 21 32 10 q 33 30 32 25 q 36 40 33 35 l 418 946 q 442 968 425 961 q 488 975 458 975 l 533 975 q 580 968 563 975 q 603 946 597 961 l 985 39 q 988 29 988 33 q 989 21 989 25 q 975 4 989 11 q 929 -3 961 -3 l 917 -3 q 880 1 894 -3 q 858 24 865 6 l 557 761 q 533 825 546 789 q 513 889 519 861 l 510 889 q 490 829 504 865 q 463 761 475 793 l 158 24 q 137 1 151 6 q 101 -3 122 -3 l 92 -3 m 217 250 l 217 353 l 799 353 l 799 250 l 217 250 m 511 1033 q 407 1053 451 1033 q 338 1105 363 1072 q 314 1179 314 1138 q 320 1206 314 1199 q 340 1214 326 1214 q 357 1209 351 1214 q 368 1192 363 1204 q 417 1142 379 1158 q 511 1125 456 1125 q 603 1142 564 1125 q 654 1192 642 1158 q 683 1214 664 1214 q 701 1206 696 1214 q 707 1179 707 1199 q 683 1105 707 1138 q 615 1053 658 1072 q 511 1033 571 1033 m 304 1229 q 288 1233 299 1229 q 269 1242 278 1236 q 261 1254 261 1247 q 263 1265 261 1260 q 265 1275 264 1269 q 322 1346 289 1326 q 388 1365 356 1365 q 478 1353 432 1365 q 565 1327 524 1340 q 638 1314 607 1314 q 679 1328 665 1314 q 700 1357 693 1343 q 715 1371 707 1371 q 744 1363 726 1371 q 761 1346 761 1354 q 758 1331 761 1342 q 746 1301 756 1321 q 706 1251 728 1269 q 635 1233 683 1233 q 540 1247 586 1233 q 453 1272 493 1260 q 381 1285 413 1285 q 344 1271 357 1285 q 322 1243 331 1257 q 304 1229 314 1229 z "},"Ǎ":{"ha":1021,"x_min":32,"x_max":989,"o":"m 92 -3 q 47 3 61 -3 q 32 21 32 10 q 33 30 32 25 q 36 40 33 35 l 418 946 q 442 968 425 961 q 488 975 458 975 l 533 975 q 580 968 563 975 q 603 946 597 961 l 985 39 q 988 29 988 33 q 989 21 989 25 q 975 4 989 11 q 929 -3 961 -3 l 917 -3 q 880 1 894 -3 q 858 24 865 6 l 557 761 q 533 825 546 789 q 513 889 519 861 l 510 889 q 490 829 504 865 q 463 761 475 793 l 158 24 q 137 1 151 6 q 101 -3 122 -3 l 92 -3 m 217 250 l 217 353 l 799 353 l 799 250 l 217 250 m 683 1186 q 710 1181 701 1186 q 719 1169 719 1176 q 714 1155 719 1163 q 693 1136 708 1147 l 589 1051 q 569 1040 579 1044 q 546 1033 560 1035 q 511 1031 532 1031 q 476 1033 490 1031 q 453 1040 463 1035 q 433 1051 443 1044 l 329 1136 q 309 1155 315 1147 q 303 1169 303 1163 q 312 1181 303 1176 q 339 1186 321 1186 q 365 1182 354 1186 q 390 1171 376 1178 l 511 1115 l 631 1171 q 658 1182 646 1178 q 683 1186 669 1186 z "},"Â":{"ha":1021,"x_min":32,"x_max":989,"o":"m 92 -3 q 47 3 61 -3 q 32 21 32 10 q 33 30 32 25 q 36 40 33 35 l 418 946 q 442 968 425 961 q 488 975 458 975 l 533 975 q 580 968 563 975 q 603 946 597 961 l 985 39 q 988 29 988 33 q 989 21 989 25 q 975 4 989 11 q 929 -3 961 -3 l 917 -3 q 880 1 894 -3 q 858 24 865 6 l 557 761 q 533 825 546 789 q 513 889 519 861 l 510 889 q 490 829 504 865 q 463 761 475 793 l 158 24 q 137 1 151 6 q 101 -3 122 -3 l 92 -3 m 217 250 l 217 353 l 799 353 l 799 250 l 217 250 m 339 1031 q 312 1035 321 1031 q 303 1047 303 1040 q 309 1062 303 1054 q 329 1081 315 1069 l 433 1165 q 453 1178 443 1174 q 476 1184 463 1182 q 511 1186 490 1186 q 546 1184 532 1186 q 569 1178 560 1182 q 589 1165 579 1174 l 693 1081 q 714 1062 708 1069 q 719 1047 719 1054 q 710 1035 719 1040 q 683 1031 701 1031 q 658 1035 669 1031 q 632 1046 647 1039 l 511 1101 l 392 1046 q 366 1035 378 1039 q 339 1031 354 1031 z "},"Ấ":{"ha":1021,"x_min":32,"x_max":989,"o":"m 92 -3 q 47 3 61 -3 q 32 21 32 10 q 33 30 32 25 q 36 40 33 35 l 418 946 q 442 968 425 961 q 488 975 458 975 l 533 975 q 580 968 563 975 q 603 946 597 961 l 985 39 q 988 29 988 33 q 989 21 989 25 q 975 4 989 11 q 929 -3 961 -3 l 917 -3 q 880 1 894 -3 q 858 24 865 6 l 557 761 q 533 825 546 789 q 513 889 519 861 l 510 889 q 490 829 504 865 q 463 761 475 793 l 158 24 q 137 1 151 6 q 101 -3 122 -3 l 92 -3 m 217 250 l 217 353 l 799 353 l 799 250 l 217 250 m 339 1031 q 312 1035 321 1031 q 303 1047 303 1040 q 309 1062 303 1054 q 329 1081 315 1069 l 433 1165 q 453 1178 443 1174 q 476 1184 463 1182 q 511 1186 490 1186 q 546 1184 532 1186 q 569 1178 560 1182 q 589 1165 579 1174 l 693 1081 q 714 1062 708 1069 q 719 1047 719 1054 q 710 1035 719 1040 q 683 1031 701 1031 q 658 1035 669 1031 q 632 1046 647 1039 l 511 1101 l 392 1046 q 366 1035 378 1039 q 339 1031 354 1031 m 428 1235 q 401 1240 411 1235 q 392 1253 392 1244 q 394 1265 392 1258 q 407 1279 397 1272 l 510 1358 q 551 1382 531 1374 q 615 1390 572 1390 q 668 1384 647 1390 q 689 1365 689 1378 q 681 1342 689 1354 q 633 1310 674 1329 l 538 1264 q 485 1242 507 1250 q 428 1235 463 1235 z "},"Ậ":{"ha":1021,"x_min":32,"x_max":989,"o":"m 92 -3 q 47 3 61 -3 q 32 21 32 10 q 33 30 32 25 q 36 40 33 35 l 418 946 q 442 968 425 961 q 488 975 458 975 l 533 975 q 580 968 563 975 q 603 946 597 961 l 985 39 q 988 29 988 33 q 989 21 989 25 q 975 4 989 11 q 929 -3 961 -3 l 917 -3 q 880 1 894 -3 q 858 24 865 6 l 557 761 q 533 825 546 789 q 513 889 519 861 l 510 889 q 490 829 504 865 q 463 761 475 793 l 158 24 q 137 1 151 6 q 101 -3 122 -3 l 92 -3 m 217 250 l 217 353 l 799 353 l 799 250 l 217 250 m 511 -243 q 466 -235 481 -243 q 451 -212 451 -228 l 451 -142 q 466 -119 451 -126 q 511 -111 481 -111 q 557 -119 543 -111 q 571 -142 571 -126 l 571 -212 q 557 -235 571 -228 q 511 -243 543 -243 m 339 1031 q 312 1035 321 1031 q 303 1047 303 1040 q 309 1062 303 1054 q 329 1081 315 1069 l 433 1165 q 453 1178 443 1174 q 476 1184 463 1182 q 511 1186 490 1186 q 546 1184 532 1186 q 569 1178 560 1182 q 589 1165 579 1174 l 693 1081 q 714 1062 708 1069 q 719 1047 719 1054 q 710 1035 719 1040 q 683 1031 701 1031 q 658 1035 669 1031 q 632 1046 647 1039 l 511 1101 l 392 1046 q 366 1035 378 1039 q 339 1031 354 1031 z "},"Ầ":{"ha":1021,"x_min":32,"x_max":989,"o":"m 92 -3 q 47 3 61 -3 q 32 21 32 10 q 33 30 32 25 q 36 40 33 35 l 418 946 q 442 968 425 961 q 488 975 458 975 l 533 975 q 580 968 563 975 q 603 946 597 961 l 985 39 q 988 29 988 33 q 989 21 989 25 q 975 4 989 11 q 929 -3 961 -3 l 917 -3 q 880 1 894 -3 q 858 24 865 6 l 557 761 q 533 825 546 789 q 513 889 519 861 l 510 889 q 490 829 504 865 q 463 761 475 793 l 158 24 q 137 1 151 6 q 101 -3 122 -3 l 92 -3 m 217 250 l 217 353 l 799 353 l 799 250 l 217 250 m 339 1031 q 312 1035 321 1031 q 303 1047 303 1040 q 309 1062 303 1054 q 329 1081 315 1069 l 433 1165 q 453 1178 443 1174 q 476 1184 463 1182 q 511 1186 490 1186 q 546 1184 532 1186 q 569 1178 560 1182 q 589 1165 579 1174 l 693 1081 q 714 1062 708 1069 q 719 1047 719 1054 q 710 1035 719 1040 q 683 1031 701 1031 q 658 1035 669 1031 q 632 1046 647 1039 l 511 1101 l 392 1046 q 366 1035 378 1039 q 339 1031 354 1031 m 594 1235 q 538 1242 560 1235 q 485 1264 517 1250 l 389 1310 q 342 1342 350 1329 q 333 1365 333 1354 q 354 1384 333 1378 q 407 1390 375 1390 q 472 1382 451 1390 q 513 1358 492 1374 l 615 1279 q 628 1265 625 1272 q 631 1253 631 1258 q 621 1240 631 1244 q 594 1235 611 1235 z "},"Ẩ":{"ha":1021,"x_min":32,"x_max":989,"o":"m 92 -3 q 47 3 61 -3 q 32 21 32 10 q 33 30 32 25 q 36 40 33 35 l 418 946 q 442 968 425 961 q 488 975 458 975 l 533 975 q 580 968 563 975 q 603 946 597 961 l 985 39 q 988 29 988 33 q 989 21 989 25 q 975 4 989 11 q 929 -3 961 -3 l 917 -3 q 880 1 894 -3 q 858 24 865 6 l 557 761 q 533 825 546 789 q 513 889 519 861 l 510 889 q 490 829 504 865 q 463 761 475 793 l 158 24 q 137 1 151 6 q 101 -3 122 -3 l 92 -3 m 217 250 l 217 353 l 799 353 l 799 250 l 217 250 m 339 1031 q 312 1035 321 1031 q 303 1047 303 1040 q 309 1062 303 1054 q 329 1081 315 1069 l 433 1165 q 453 1178 443 1174 q 476 1184 463 1182 q 511 1186 490 1186 q 546 1184 532 1186 q 569 1178 560 1182 q 589 1165 579 1174 l 693 1081 q 714 1062 708 1069 q 719 1047 719 1054 q 710 1035 719 1040 q 683 1031 701 1031 q 658 1035 669 1031 q 632 1046 647 1039 l 511 1101 l 392 1046 q 366 1035 378 1039 q 339 1031 354 1031 m 499 1218 q 478 1231 489 1218 q 467 1253 467 1243 q 482 1267 467 1258 q 518 1288 497 1276 q 554 1313 539 1299 q 569 1344 569 1328 q 548 1371 569 1363 q 496 1379 526 1379 q 436 1367 460 1379 q 406 1354 413 1354 q 392 1363 400 1354 q 378 1382 385 1371 q 372 1400 372 1393 q 392 1420 372 1408 q 442 1441 411 1432 q 506 1450 474 1450 q 570 1442 536 1450 q 628 1415 604 1435 q 651 1358 651 1394 q 632 1301 651 1328 q 585 1257 613 1275 q 534 1228 558 1239 q 499 1218 510 1218 z "},"Ẫ":{"ha":1021,"x_min":32,"x_max":989,"o":"m 92 -3 q 47 3 61 -3 q 32 21 32 10 q 33 30 32 25 q 36 40 33 35 l 418 946 q 442 968 425 961 q 488 975 458 975 l 533 975 q 580 968 563 975 q 603 946 597 961 l 985 39 q 988 29 988 33 q 989 21 989 25 q 975 4 989 11 q 929 -3 961 -3 l 917 -3 q 880 1 894 -3 q 858 24 865 6 l 557 761 q 533 825 546 789 q 513 889 519 861 l 510 889 q 490 829 504 865 q 463 761 475 793 l 158 24 q 137 1 151 6 q 101 -3 122 -3 l 92 -3 m 217 250 l 217 353 l 799 353 l 799 250 l 217 250 m 339 1031 q 312 1035 321 1031 q 303 1047 303 1040 q 309 1062 303 1054 q 329 1081 315 1069 l 433 1165 q 453 1178 443 1174 q 476 1184 463 1182 q 511 1186 490 1186 q 546 1184 532 1186 q 569 1178 560 1182 q 589 1165 579 1174 l 693 1081 q 714 1062 708 1069 q 719 1047 719 1054 q 710 1035 719 1040 q 683 1031 701 1031 q 658 1035 669 1031 q 632 1046 647 1039 l 511 1101 l 392 1046 q 366 1035 378 1039 q 339 1031 354 1031 m 304 1236 q 288 1240 299 1236 q 269 1249 278 1243 q 261 1261 261 1254 q 263 1272 261 1267 q 265 1282 264 1276 q 322 1353 289 1333 q 388 1372 356 1372 q 478 1360 432 1372 q 565 1334 524 1347 q 638 1321 607 1321 q 679 1335 665 1321 q 700 1364 693 1350 q 715 1378 707 1378 q 744 1369 726 1378 q 761 1353 761 1361 q 758 1338 761 1349 q 746 1308 756 1328 q 706 1258 728 1276 q 635 1240 683 1240 q 540 1253 586 1240 q 453 1279 493 1267 q 381 1292 413 1292 q 344 1278 357 1292 q 322 1250 331 1264 q 304 1236 314 1236 z "},"Ȁ":{"ha":1021,"x_min":32,"x_max":989,"o":"m 92 -3 q 47 3 61 -3 q 32 21 32 10 q 33 30 32 25 q 36 40 33 35 l 418 946 q 442 968 425 961 q 488 975 458 975 l 533 975 q 580 968 563 975 q 603 946 597 961 l 985 39 q 988 29 988 33 q 989 21 989 25 q 975 4 989 11 q 929 -3 961 -3 l 917 -3 q 880 1 894 -3 q 858 24 865 6 l 557 761 q 533 825 546 789 q 513 889 519 861 l 510 889 q 490 829 504 865 q 463 761 475 793 l 158 24 q 137 1 151 6 q 101 -3 122 -3 l 92 -3 m 217 250 l 217 353 l 799 353 l 799 250 l 217 250 m 442 1044 q 385 1052 407 1044 q 332 1074 364 1060 l 236 1119 q 189 1151 197 1139 q 181 1175 181 1164 q 201 1194 181 1188 q 254 1200 222 1200 q 319 1192 299 1200 q 360 1168 339 1183 l 463 1089 q 475 1075 472 1082 q 478 1063 478 1068 q 468 1049 478 1054 q 442 1044 458 1044 m 714 1044 q 658 1052 679 1044 q 604 1074 636 1060 l 508 1119 q 461 1151 469 1139 q 453 1175 453 1164 q 474 1194 453 1188 q 526 1200 494 1200 q 591 1192 571 1200 q 632 1168 611 1183 l 735 1089 q 747 1075 744 1082 q 750 1063 750 1068 q 740 1049 750 1054 q 714 1044 731 1044 z "},"Ä":{"ha":1021,"x_min":32,"x_max":989,"o":"m 92 -3 q 47 3 61 -3 q 32 21 32 10 q 33 30 32 25 q 36 40 33 35 l 418 946 q 442 968 425 961 q 488 975 458 975 l 533 975 q 580 968 563 975 q 603 946 597 961 l 985 39 q 988 29 988 33 q 989 21 989 25 q 975 4 989 11 q 929 -3 961 -3 l 917 -3 q 880 1 894 -3 q 858 24 865 6 l 557 761 q 533 825 546 789 q 513 889 519 861 l 510 889 q 490 829 504 865 q 463 761 475 793 l 158 24 q 137 1 151 6 q 101 -3 122 -3 l 92 -3 m 217 250 l 217 353 l 799 353 l 799 250 l 217 250 m 638 1053 q 591 1060 606 1053 q 576 1083 576 1068 l 576 1161 q 591 1184 576 1176 q 638 1192 606 1192 q 684 1184 669 1192 q 699 1161 699 1176 l 699 1083 q 684 1060 699 1068 q 638 1053 669 1053 m 385 1053 q 338 1060 353 1053 q 324 1083 324 1068 l 324 1161 q 338 1184 324 1176 q 385 1192 353 1192 q 431 1184 417 1192 q 446 1161 446 1176 l 446 1083 q 431 1060 446 1068 q 385 1053 417 1053 z "},"Ạ":{"ha":1021,"x_min":32,"x_max":989,"o":"m 92 -3 q 47 3 61 -3 q 32 21 32 10 q 33 30 32 25 q 36 40 33 35 l 418 946 q 442 968 425 961 q 488 975 458 975 l 533 975 q 580 968 563 975 q 603 946 597 961 l 985 39 q 988 29 988 33 q 989 21 989 25 q 975 4 989 11 q 929 -3 961 -3 l 917 -3 q 880 1 894 -3 q 858 24 865 6 l 557 761 q 533 825 546 789 q 513 889 519 861 l 510 889 q 490 829 504 865 q 463 761 475 793 l 158 24 q 137 1 151 6 q 101 -3 122 -3 l 92 -3 m 217 250 l 217 353 l 799 353 l 799 250 l 217 250 m 511 -243 q 466 -235 481 -243 q 451 -212 451 -228 l 451 -142 q 466 -119 451 -126 q 511 -111 481 -111 q 557 -119 543 -111 q 571 -142 571 -126 l 571 -212 q 557 -235 571 -228 q 511 -243 543 -243 z "},"À":{"ha":1021,"x_min":32,"x_max":989,"o":"m 92 -3 q 47 3 61 -3 q 32 21 32 10 q 33 30 32 25 q 36 40 33 35 l 418 946 q 442 968 425 961 q 488 975 458 975 l 533 975 q 580 968 563 975 q 603 946 597 961 l 985 39 q 988 29 988 33 q 989 21 989 25 q 975 4 989 11 q 929 -3 961 -3 l 917 -3 q 880 1 894 -3 q 858 24 865 6 l 557 761 q 533 825 546 789 q 513 889 519 861 l 510 889 q 490 829 504 865 q 463 761 475 793 l 158 24 q 137 1 151 6 q 101 -3 122 -3 l 92 -3 m 217 250 l 217 353 l 799 353 l 799 250 l 217 250 m 594 1044 q 538 1052 560 1044 q 485 1074 517 1060 l 389 1119 q 342 1151 350 1139 q 333 1175 333 1164 q 354 1194 333 1188 q 407 1200 375 1200 q 472 1192 451 1200 q 513 1168 492 1183 l 615 1089 q 628 1075 625 1082 q 631 1063 631 1068 q 621 1049 631 1054 q 594 1044 611 1044 z "},"Ả":{"ha":1021,"x_min":32,"x_max":989,"o":"m 92 -3 q 47 3 61 -3 q 32 21 32 10 q 33 30 32 25 q 36 40 33 35 l 418 946 q 442 968 425 961 q 488 975 458 975 l 533 975 q 580 968 563 975 q 603 946 597 961 l 985 39 q 988 29 988 33 q 989 21 989 25 q 975 4 989 11 q 929 -3 961 -3 l 917 -3 q 880 1 894 -3 q 858 24 865 6 l 557 761 q 533 825 546 789 q 513 889 519 861 l 510 889 q 490 829 504 865 q 463 761 475 793 l 158 24 q 137 1 151 6 q 101 -3 122 -3 l 92 -3 m 217 250 l 217 353 l 799 353 l 799 250 l 217 250 m 499 1028 q 478 1040 489 1028 q 467 1063 467 1053 q 482 1077 467 1068 q 518 1097 497 1086 q 554 1123 539 1108 q 569 1154 569 1138 q 548 1181 569 1172 q 496 1189 526 1189 q 436 1176 460 1189 q 406 1164 413 1164 q 392 1172 400 1164 q 378 1192 385 1181 q 372 1210 372 1203 q 392 1230 372 1218 q 442 1251 411 1242 q 506 1260 474 1260 q 570 1252 536 1260 q 628 1224 604 1244 q 651 1168 651 1204 q 632 1111 651 1138 q 585 1067 613 1085 q 534 1038 558 1049 q 499 1028 510 1028 z "},"Ȃ":{"ha":1021,"x_min":32,"x_max":989,"o":"m 92 -3 q 47 3 61 -3 q 32 21 32 10 q 33 30 32 25 q 36 40 33 35 l 418 946 q 442 968 425 961 q 488 975 458 975 l 533 975 q 580 968 563 975 q 603 946 597 961 l 985 39 q 988 29 988 33 q 989 21 989 25 q 975 4 989 11 q 929 -3 961 -3 l 917 -3 q 880 1 894 -3 q 858 24 865 6 l 557 761 q 533 825 546 789 q 513 889 519 861 l 510 889 q 490 829 504 865 q 463 761 475 793 l 158 24 q 137 1 151 6 q 101 -3 122 -3 l 92 -3 m 217 250 l 217 353 l 799 353 l 799 250 l 217 250 m 340 1033 q 320 1042 326 1033 q 314 1068 314 1050 q 338 1143 314 1110 q 407 1195 363 1176 q 511 1214 451 1214 q 615 1195 571 1214 q 683 1143 658 1176 q 707 1068 707 1110 q 701 1042 707 1050 q 683 1033 696 1033 q 654 1056 664 1033 q 603 1106 642 1089 q 511 1122 564 1122 q 417 1106 456 1122 q 368 1056 379 1089 q 357 1038 363 1043 q 340 1033 351 1033 z "},"Ā":{"ha":1021,"x_min":32,"x_max":989,"o":"m 92 -3 q 47 3 61 -3 q 32 21 32 10 q 33 30 32 25 q 36 40 33 35 l 418 946 q 442 968 425 961 q 488 975 458 975 l 533 975 q 580 968 563 975 q 603 946 597 961 l 985 39 q 988 29 988 33 q 989 21 989 25 q 975 4 989 11 q 929 -3 961 -3 l 917 -3 q 880 1 894 -3 q 858 24 865 6 l 557 761 q 533 825 546 789 q 513 889 519 861 l 510 889 q 490 829 504 865 q 463 761 475 793 l 158 24 q 137 1 151 6 q 101 -3 122 -3 l 92 -3 m 217 250 l 217 353 l 799 353 l 799 250 l 217 250 m 329 1075 q 303 1117 303 1075 l 303 1131 q 329 1172 303 1172 l 693 1172 q 719 1131 719 1172 l 719 1117 q 693 1075 719 1075 l 329 1075 z "},"Ą":{"ha":1021,"x_min":32,"x_max":1058,"o":"m 92 -3 q 47 3 61 -3 q 32 21 32 10 q 33 30 32 25 q 36 40 33 35 l 418 946 q 442 968 425 961 q 488 975 458 975 l 533 975 q 580 968 563 975 q 603 946 597 961 l 985 39 q 988 29 988 33 q 989 21 989 25 q 975 4 989 11 q 929 -3 961 -3 l 917 -3 q 880 1 894 -3 q 858 24 865 6 l 557 761 q 533 825 546 789 q 513 889 519 861 l 510 889 q 490 829 504 865 q 463 761 475 793 l 158 24 q 137 1 151 6 q 101 -3 122 -3 l 92 -3 m 217 250 l 217 353 l 799 353 l 799 250 l 217 250 m 918 -254 q 812 -226 850 -254 q 774 -146 774 -197 q 790 -83 774 -115 q 838 -23 806 -51 q 918 24 869 6 l 988 14 q 900 -47 932 -12 q 868 -118 868 -81 q 882 -153 868 -140 q 922 -165 896 -165 q 972 -158 951 -165 q 1006 -143 992 -150 q 1029 -136 1019 -136 q 1044 -146 1038 -136 q 1055 -168 1051 -156 q 1058 -190 1058 -181 q 1035 -222 1058 -207 q 980 -245 1013 -236 q 918 -254 947 -254 z "},"Å":{"ha":1021,"x_min":32,"x_max":989,"o":"m 92 -3 q 47 3 61 -3 q 32 21 32 10 q 33 30 32 25 q 36 40 33 35 l 418 946 q 442 968 425 961 q 488 975 458 975 l 533 975 q 580 968 563 975 q 603 946 597 961 l 985 39 q 988 29 988 33 q 989 21 989 25 q 975 4 989 11 q 929 -3 961 -3 l 917 -3 q 880 1 894 -3 q 858 24 865 6 l 557 761 q 533 825 546 789 q 513 889 519 861 l 510 889 q 490 829 504 865 q 463 761 475 793 l 158 24 q 137 1 151 6 q 101 -3 122 -3 l 92 -3 m 217 250 l 217 353 l 799 353 l 799 250 l 217 250 m 511 1038 q 415 1069 451 1038 q 379 1154 379 1101 q 415 1240 379 1208 q 511 1272 451 1272 q 608 1240 572 1272 q 643 1154 643 1208 q 608 1069 643 1101 q 511 1038 572 1038 m 511 1104 q 556 1117 540 1104 q 571 1154 571 1131 q 556 1192 571 1178 q 511 1206 540 1206 q 468 1192 485 1206 q 451 1154 451 1178 q 468 1117 451 1131 q 511 1104 485 1104 z "},"Ǻ":{"ha":1021,"x_min":32,"x_max":989,"o":"m 92 -3 q 47 3 61 -3 q 32 21 32 10 q 33 30 32 25 q 36 40 33 35 l 418 946 q 442 968 425 961 q 488 975 458 975 l 533 975 q 580 968 563 975 q 603 946 597 961 l 985 39 q 988 29 988 33 q 989 21 989 25 q 975 4 989 11 q 929 -3 961 -3 l 917 -3 q 880 1 894 -3 q 858 24 865 6 l 557 761 q 533 825 546 789 q 513 889 519 861 l 510 889 q 490 829 504 865 q 463 761 475 793 l 158 24 q 137 1 151 6 q 101 -3 122 -3 l 92 -3 m 217 250 l 217 353 l 799 353 l 799 250 l 217 250 m 511 1038 q 415 1069 451 1038 q 379 1154 379 1101 q 415 1240 379 1208 q 511 1272 451 1272 q 608 1240 572 1272 q 643 1154 643 1208 q 608 1069 643 1101 q 511 1038 572 1038 m 511 1104 q 556 1117 540 1104 q 571 1154 571 1131 q 556 1192 571 1178 q 511 1206 540 1206 q 468 1192 485 1206 q 451 1154 451 1178 q 468 1117 451 1131 q 511 1104 485 1104 m 428 1290 q 401 1295 411 1290 q 392 1308 392 1300 q 394 1321 392 1314 q 407 1335 397 1328 l 510 1414 q 551 1438 531 1429 q 615 1446 572 1446 q 668 1440 647 1446 q 689 1421 689 1433 q 681 1397 689 1410 q 633 1365 674 1385 l 538 1319 q 485 1298 507 1306 q 428 1290 463 1290 z "},"Ã":{"ha":1021,"x_min":32,"x_max":989,"o":"m 92 -3 q 47 3 61 -3 q 32 21 32 10 q 33 30 32 25 q 36 40 33 35 l 418 946 q 442 968 425 961 q 488 975 458 975 l 533 975 q 580 968 563 975 q 603 946 597 961 l 985 39 q 988 29 988 33 q 989 21 989 25 q 975 4 989 11 q 929 -3 961 -3 l 917 -3 q 880 1 894 -3 q 858 24 865 6 l 557 761 q 533 825 546 789 q 513 889 519 861 l 510 889 q 490 829 504 865 q 463 761 475 793 l 158 24 q 137 1 151 6 q 101 -3 122 -3 l 92 -3 m 217 250 l 217 353 l 799 353 l 799 250 l 217 250 m 304 1046 q 288 1049 299 1046 q 269 1058 278 1053 q 261 1071 261 1064 q 263 1081 261 1076 q 265 1092 264 1086 q 322 1163 289 1143 q 388 1182 356 1182 q 478 1169 432 1182 q 565 1144 524 1157 q 638 1131 607 1131 q 679 1145 665 1131 q 700 1174 693 1160 q 715 1188 707 1188 q 744 1179 726 1188 q 761 1163 761 1171 q 758 1148 761 1158 q 746 1118 756 1138 q 706 1068 728 1086 q 635 1050 683 1050 q 540 1063 586 1050 q 453 1089 493 1076 q 381 1101 413 1101 q 344 1088 357 1101 q 322 1060 331 1074 q 304 1046 314 1046 z "},"Æ":{"ha":1417,"x_min":29,"x_max":1342,"o":"m 92 -3 q 45 3 61 -3 q 29 21 29 10 q 31 30 29 25 q 36 40 33 35 l 547 943 q 562 960 553 954 q 584 969 571 967 q 617 972 597 972 l 1313 972 q 1340 931 1340 972 l 1340 908 q 1313 867 1340 867 l 774 867 l 822 550 l 1271 550 q 1299 508 1299 550 l 1299 486 q 1271 444 1299 444 l 839 444 l 890 106 l 1314 106 q 1342 64 1342 106 l 1342 42 q 1314 0 1342 0 l 817 0 q 785 10 794 0 q 774 42 776 19 l 644 886 l 639 886 l 158 24 q 135 1 149 6 q 101 -3 122 -3 l 92 -3 m 244 250 l 244 353 l 799 353 l 799 250 l 244 250 z "},"Ǽ":{"ha":1417,"x_min":29,"x_max":1342,"o":"m 92 -3 q 45 3 61 -3 q 29 21 29 10 q 31 30 29 25 q 36 40 33 35 l 547 943 q 562 960 553 954 q 584 969 571 967 q 617 972 597 972 l 1313 972 q 1340 931 1340 972 l 1340 908 q 1313 867 1340 867 l 774 867 l 822 550 l 1271 550 q 1299 508 1299 550 l 1299 486 q 1271 444 1299 444 l 839 444 l 890 106 l 1314 106 q 1342 64 1342 106 l 1342 42 q 1314 0 1342 0 l 817 0 q 785 10 794 0 q 774 42 776 19 l 644 886 l 639 886 l 158 24 q 135 1 149 6 q 101 -3 122 -3 l 92 -3 m 244 250 l 244 353 l 799 353 l 799 250 l 244 250 m 667 1044 q 640 1049 650 1044 q 631 1063 631 1054 q 633 1075 631 1068 q 646 1089 636 1082 l 749 1168 q 790 1192 769 1183 q 854 1200 811 1200 q 907 1194 886 1200 q 928 1175 928 1188 q 920 1151 928 1164 q 872 1119 913 1139 l 776 1074 q 724 1052 746 1060 q 667 1044 701 1044 z "},"B":{"ha":972,"x_min":160,"x_max":925,"o":"m 203 0 q 160 42 160 0 l 160 931 q 203 972 160 972 l 572 972 q 745 941 676 972 q 849 855 814 910 q 883 726 883 800 q 865 630 883 674 q 812 556 846 586 q 731 513 778 526 l 731 507 q 835 461 792 493 q 901 383 878 429 q 925 279 925 336 q 885 125 925 188 q 764 31 844 63 q 563 0 683 0 l 203 0 m 285 106 l 607 106 q 750 149 701 106 q 799 278 799 193 q 744 400 799 356 q 583 444 690 444 l 285 444 l 285 106 m 285 550 l 565 550 q 708 592 660 550 q 757 715 757 633 q 710 830 757 793 q 560 867 664 867 l 285 867 l 285 550 z "},"C":{"ha":1028,"x_min":69,"x_max":943,"o":"m 594 -8 q 198 117 326 -8 q 69 489 69 242 q 205 857 69 733 q 608 981 340 981 q 700 975 651 981 q 794 960 749 969 q 872 938 840 951 q 915 917 906 924 q 924 894 924 910 q 921 875 924 886 q 913 853 918 864 q 901 834 908 842 q 886 826 894 826 q 841 839 876 826 q 747 863 806 851 q 608 875 689 875 q 380 838 472 875 q 242 715 288 800 q 196 489 196 631 q 242 260 196 346 q 380 135 288 174 q 608 97 472 97 q 731 106 678 97 q 821 127 783 115 q 880 148 858 139 q 908 157 901 157 q 924 148 917 157 q 935 126 931 139 q 941 103 939 114 q 943 88 943 92 q 930 64 943 72 q 881 42 917 56 q 791 15 839 26 q 693 -3 743 3 q 594 -8 643 -8 z "},"Ć":{"ha":1028,"x_min":69,"x_max":943,"o":"m 594 -8 q 198 117 326 -8 q 69 489 69 242 q 205 857 69 733 q 608 981 340 981 q 700 975 651 981 q 794 960 749 969 q 872 938 840 951 q 915 917 906 924 q 924 894 924 910 q 921 875 924 886 q 913 853 918 864 q 901 834 908 842 q 886 826 894 826 q 841 839 876 826 q 747 863 806 851 q 608 875 689 875 q 380 838 472 875 q 242 715 288 800 q 196 489 196 631 q 242 260 196 346 q 380 135 288 174 q 608 97 472 97 q 731 106 678 97 q 821 127 783 115 q 880 148 858 139 q 908 157 901 157 q 924 148 917 157 q 935 126 931 139 q 941 103 939 114 q 943 88 943 92 q 930 64 943 72 q 881 42 917 56 q 791 15 839 26 q 693 -3 743 3 q 594 -8 643 -8 m 486 1044 q 460 1049 469 1044 q 450 1063 450 1054 q 453 1075 450 1068 q 465 1089 456 1082 l 568 1168 q 610 1192 589 1183 q 674 1200 631 1200 q 726 1194 706 1200 q 747 1175 747 1188 q 740 1151 747 1164 q 692 1119 732 1139 l 596 1074 q 543 1052 565 1060 q 486 1044 521 1044 z "},"Č":{"ha":1028,"x_min":69,"x_max":943,"o":"m 594 -8 q 198 117 326 -8 q 69 489 69 242 q 205 857 69 733 q 608 981 340 981 q 700 975 651 981 q 794 960 749 969 q 872 938 840 951 q 915 917 906 924 q 924 894 924 910 q 921 875 924 886 q 913 853 918 864 q 901 834 908 842 q 886 826 894 826 q 841 839 876 826 q 747 863 806 851 q 608 875 689 875 q 380 838 472 875 q 242 715 288 800 q 196 489 196 631 q 242 260 196 346 q 380 135 288 174 q 608 97 472 97 q 731 106 678 97 q 821 127 783 115 q 880 148 858 139 q 908 157 901 157 q 924 148 917 157 q 935 126 931 139 q 941 103 939 114 q 943 88 943 92 q 930 64 943 72 q 881 42 917 56 q 791 15 839 26 q 693 -3 743 3 q 594 -8 643 -8 m 742 1186 q 769 1181 760 1186 q 778 1169 778 1176 q 772 1155 778 1163 q 751 1136 767 1147 l 647 1051 q 628 1040 638 1044 q 604 1033 618 1035 q 569 1031 590 1031 q 535 1033 549 1031 q 511 1040 521 1035 q 492 1051 501 1044 l 388 1136 q 367 1155 374 1147 q 361 1169 361 1163 q 370 1181 361 1176 q 397 1186 379 1186 q 424 1182 413 1186 q 449 1171 435 1178 l 569 1115 l 689 1171 q 716 1182 704 1178 q 742 1186 728 1186 z "},"Ç":{"ha":1028,"x_min":69,"x_max":943,"o":"m 594 -8 q 198 117 326 -8 q 69 489 69 242 q 205 857 69 733 q 608 981 340 981 q 700 975 651 981 q 794 960 749 969 q 872 938 840 951 q 915 917 906 924 q 924 894 924 910 q 921 875 924 886 q 913 853 918 864 q 901 834 908 842 q 886 826 894 826 q 841 839 876 826 q 747 863 806 851 q 608 875 689 875 q 380 838 472 875 q 242 715 288 800 q 196 489 196 631 q 242 260 196 346 q 380 135 288 174 q 608 97 472 97 q 731 106 678 97 q 821 127 783 115 q 880 148 858 139 q 908 157 901 157 q 924 148 917 157 q 935 126 931 139 q 941 103 939 114 q 943 88 943 92 q 930 64 943 72 q 881 42 917 56 q 791 15 839 26 q 693 -3 743 3 q 594 -8 643 -8 m 543 -292 q 475 -285 513 -292 q 410 -267 438 -279 q 383 -240 383 -256 q 386 -223 383 -233 q 395 -204 389 -212 q 408 -196 401 -196 q 438 -203 419 -196 q 481 -217 456 -210 q 539 -224 506 -224 q 580 -220 556 -224 q 623 -206 604 -217 q 642 -175 642 -196 q 622 -142 642 -151 q 576 -131 601 -133 q 530 -123 550 -128 q 510 -104 510 -118 q 513 -86 510 -99 q 524 -51 517 -74 q 542 8 532 -28 l 601 8 l 575 -82 l 563 -75 q 688 -101 644 -75 q 731 -174 731 -126 q 701 -250 731 -225 q 627 -283 671 -275 q 543 -292 583 -292 z "},"Ĉ":{"ha":1028,"x_min":69,"x_max":943,"o":"m 594 -8 q 198 117 326 -8 q 69 489 69 242 q 205 857 69 733 q 608 981 340 981 q 700 975 651 981 q 794 960 749 969 q 872 938 840 951 q 915 917 906 924 q 924 894 924 910 q 921 875 924 886 q 913 853 918 864 q 901 834 908 842 q 886 826 894 826 q 841 839 876 826 q 747 863 806 851 q 608 875 689 875 q 380 838 472 875 q 242 715 288 800 q 196 489 196 631 q 242 260 196 346 q 380 135 288 174 q 608 97 472 97 q 731 106 678 97 q 821 127 783 115 q 880 148 858 139 q 908 157 901 157 q 924 148 917 157 q 935 126 931 139 q 941 103 939 114 q 943 88 943 92 q 930 64 943 72 q 881 42 917 56 q 791 15 839 26 q 693 -3 743 3 q 594 -8 643 -8 m 397 1031 q 370 1035 379 1031 q 361 1047 361 1040 q 367 1062 361 1054 q 388 1081 374 1069 l 492 1165 q 511 1178 501 1174 q 535 1184 521 1182 q 569 1186 549 1186 q 604 1184 590 1186 q 628 1178 618 1182 q 647 1165 638 1174 l 751 1081 q 772 1062 767 1069 q 778 1047 778 1054 q 769 1035 778 1040 q 742 1031 760 1031 q 717 1035 728 1031 q 690 1046 706 1039 l 569 1101 l 450 1046 q 424 1035 436 1039 q 397 1031 413 1031 z "},"Ċ":{"ha":1028,"x_min":69,"x_max":943,"o":"m 594 -8 q 198 117 326 -8 q 69 489 69 242 q 205 857 69 733 q 608 981 340 981 q 700 975 651 981 q 794 960 749 969 q 872 938 840 951 q 915 917 906 924 q 924 894 924 910 q 921 875 924 886 q 913 853 918 864 q 901 834 908 842 q 886 826 894 826 q 841 839 876 826 q 747 863 806 851 q 608 875 689 875 q 380 838 472 875 q 242 715 288 800 q 196 489 196 631 q 242 260 196 346 q 380 135 288 174 q 608 97 472 97 q 731 106 678 97 q 821 127 783 115 q 880 148 858 139 q 908 157 901 157 q 924 148 917 157 q 935 126 931 139 q 941 103 939 114 q 943 88 943 92 q 930 64 943 72 q 881 42 917 56 q 791 15 839 26 q 693 -3 743 3 q 594 -8 643 -8 m 569 1051 q 521 1060 535 1051 q 507 1082 507 1068 l 507 1165 q 521 1188 507 1179 q 569 1196 535 1196 q 618 1188 604 1196 q 632 1165 632 1181 l 632 1082 q 618 1060 632 1068 q 569 1051 604 1051 z "},"D":{"ha":1158,"x_min":135,"x_max":1089,"o":"m 178 0 q 135 42 135 0 l 135 931 q 178 972 135 972 l 549 972 q 952 850 815 972 q 1089 489 1089 728 q 952 124 1089 249 q 549 0 815 0 l 178 0 m 260 106 l 549 106 q 858 203 753 106 q 963 489 963 300 q 858 771 963 675 q 549 867 753 867 l 260 867 l 260 106 z "},"Ǳ":{"ha":2103,"x_min":135,"x_max":2029,"o":"m 178 0 q 135 42 135 0 l 135 931 q 178 972 135 972 l 549 972 q 952 850 815 972 q 1089 489 1089 728 q 952 124 1089 249 q 549 0 815 0 l 178 0 m 260 106 l 549 106 q 858 203 753 106 q 963 489 963 300 q 858 771 963 675 q 549 867 753 867 l 260 867 l 260 106 m 1244 0 q 1228 7 1236 0 q 1216 26 1221 14 q 1208 50 1211 38 q 1204 72 1204 63 q 1206 86 1204 79 q 1213 100 1207 93 l 1893 913 l 1929 867 l 1244 867 q 1218 908 1218 867 l 1218 931 q 1244 972 1218 972 l 1989 972 q 2005 965 1997 972 q 2017 947 2013 958 q 2026 923 2022 935 q 2029 900 2029 911 q 2028 886 2029 893 q 2021 872 2028 879 l 1340 60 l 1307 106 l 1999 106 q 2026 64 2026 106 l 2026 42 q 1999 0 2026 0 l 1244 0 z "},"Ǆ":{"ha":2103,"x_min":135,"x_max":2029,"o":"m 178 0 q 135 42 135 0 l 135 931 q 178 972 135 972 l 549 972 q 952 850 815 972 q 1089 489 1089 728 q 952 124 1089 249 q 549 0 815 0 l 178 0 m 260 106 l 549 106 q 858 203 753 106 q 963 489 963 300 q 858 771 963 675 q 549 867 753 867 l 260 867 l 260 106 m 1244 0 q 1228 7 1236 0 q 1216 26 1221 14 q 1208 50 1211 38 q 1204 72 1204 63 q 1206 86 1204 79 q 1213 100 1207 93 l 1893 913 l 1929 867 l 1244 867 q 1218 908 1218 867 l 1218 931 q 1244 972 1218 972 l 1989 972 q 2005 965 1997 972 q 2017 947 2013 958 q 2026 923 2022 935 q 2029 900 2029 911 q 2028 886 2029 893 q 2021 872 2028 879 l 1340 60 l 1307 106 l 1999 106 q 2026 64 2026 106 l 2026 42 q 1999 0 2026 0 l 1244 0 m 1789 1186 q 1816 1181 1807 1186 q 1825 1169 1825 1176 q 1819 1155 1825 1163 q 1799 1136 1814 1147 l 1694 1051 q 1675 1040 1685 1044 q 1651 1033 1665 1035 q 1617 1031 1638 1031 q 1582 1033 1596 1031 q 1558 1040 1568 1035 q 1539 1051 1549 1044 l 1435 1136 q 1415 1155 1421 1147 q 1408 1169 1408 1163 q 1417 1181 1408 1176 q 1444 1186 1426 1186 q 1471 1182 1460 1186 q 1496 1171 1482 1178 l 1617 1115 l 1736 1171 q 1763 1182 1751 1178 q 1789 1186 1775 1186 z "},"Ð":{"ha":1158,"x_min":14,"x_max":1089,"o":"m 40 444 q 20 454 26 444 q 14 486 14 464 l 14 508 q 20 540 14 531 q 40 550 26 550 l 611 550 q 631 540 625 550 q 638 508 638 531 l 638 486 q 631 454 638 464 q 611 444 625 444 l 40 444 m 178 0 q 135 42 135 0 l 135 931 q 178 972 135 972 l 549 972 q 952 850 815 972 q 1089 489 1089 728 q 952 124 1089 249 q 549 0 815 0 l 178 0 m 260 106 l 549 106 q 858 203 753 106 q 963 489 963 300 q 858 771 963 675 q 549 867 753 867 l 260 867 l 260 106 z "},"Ď":{"ha":1158,"x_min":135,"x_max":1089,"o":"m 178 0 q 135 42 135 0 l 135 931 q 178 972 135 972 l 549 972 q 952 850 815 972 q 1089 489 1089 728 q 952 124 1089 249 q 549 0 815 0 l 178 0 m 260 106 l 549 106 q 858 203 753 106 q 963 489 963 300 q 858 771 963 675 q 549 867 753 867 l 260 867 l 260 106 m 738 1186 q 765 1181 756 1186 q 774 1169 774 1176 q 768 1155 774 1163 q 747 1136 763 1147 l 643 1051 q 624 1040 633 1044 q 600 1033 614 1035 q 565 1031 586 1031 q 531 1033 544 1031 q 507 1040 517 1035 q 488 1051 497 1044 l 383 1136 q 363 1155 369 1147 q 357 1169 357 1163 q 366 1181 357 1176 q 393 1186 375 1186 q 419 1182 408 1186 q 444 1171 431 1178 l 565 1115 l 685 1171 q 712 1182 700 1178 q 738 1186 724 1186 z "},"Đ":{"ha":1158,"x_min":14,"x_max":1089,"o":"m 40 444 q 20 454 26 444 q 14 486 14 464 l 14 508 q 20 540 14 531 q 40 550 26 550 l 611 550 q 631 540 625 550 q 638 508 638 531 l 638 486 q 631 454 638 464 q 611 444 625 444 l 40 444 m 178 0 q 135 42 135 0 l 135 931 q 178 972 135 972 l 549 972 q 952 850 815 972 q 1089 489 1089 728 q 952 124 1089 249 q 549 0 815 0 l 178 0 m 260 106 l 549 106 q 858 203 753 106 q 963 489 963 300 q 858 771 963 675 q 549 867 753 867 l 260 867 l 260 106 z "},"Ḍ":{"ha":1158,"x_min":135,"x_max":1089,"o":"m 178 0 q 135 42 135 0 l 135 931 q 178 972 135 972 l 549 972 q 952 850 815 972 q 1089 489 1089 728 q 952 124 1089 249 q 549 0 815 0 l 178 0 m 260 106 l 549 106 q 858 203 753 106 q 963 489 963 300 q 858 771 963 675 q 549 867 753 867 l 260 867 l 260 106 m 565 -243 q 520 -235 535 -243 q 506 -212 506 -228 l 506 -142 q 520 -119 506 -126 q 565 -111 535 -111 q 611 -119 597 -111 q 625 -142 625 -126 l 625 -212 q 611 -235 625 -228 q 565 -243 597 -243 z "},"ǲ":{"ha":1964,"x_min":135,"x_max":1913,"o":"m 178 0 q 135 42 135 0 l 135 931 q 178 972 135 972 l 549 972 q 952 850 815 972 q 1089 489 1089 728 q 952 124 1089 249 q 549 0 815 0 l 178 0 m 260 106 l 549 106 q 858 203 753 106 q 963 489 963 300 q 858 771 963 675 q 549 867 753 867 l 260 867 l 260 106 m 1246 0 q 1228 11 1236 0 q 1215 38 1219 22 q 1210 65 1210 53 q 1210 79 1210 72 q 1224 99 1211 86 l 1776 672 l 1815 626 l 1257 626 q 1231 668 1231 626 l 1231 685 q 1257 726 1231 726 l 1874 726 q 1892 715 1885 726 q 1905 689 1900 704 q 1910 661 1910 674 q 1909 647 1910 654 q 1896 628 1908 640 l 1343 54 l 1306 100 l 1885 100 q 1913 58 1913 100 l 1913 42 q 1885 0 1913 0 l 1246 0 z "},"ǅ":{"ha":1964,"x_min":135,"x_max":1913,"o":"m 178 0 q 135 42 135 0 l 135 931 q 178 972 135 972 l 549 972 q 952 850 815 972 q 1089 489 1089 728 q 952 124 1089 249 q 549 0 815 0 l 178 0 m 260 106 l 549 106 q 858 203 753 106 q 963 489 963 300 q 858 771 963 675 q 549 867 753 867 l 260 867 l 260 106 m 1246 0 q 1228 11 1236 0 q 1215 38 1219 22 q 1210 65 1210 53 q 1210 79 1210 72 q 1224 99 1211 86 l 1776 672 l 1815 626 l 1257 626 q 1231 668 1231 626 l 1231 685 q 1257 726 1231 726 l 1874 726 q 1892 715 1885 726 q 1905 689 1900 704 q 1910 661 1910 674 q 1909 647 1910 654 q 1896 628 1908 640 l 1343 54 l 1306 100 l 1885 100 q 1913 58 1913 100 l 1913 42 q 1885 0 1913 0 l 1246 0 m 1713 997 q 1735 992 1728 997 q 1743 979 1743 988 q 1738 963 1743 974 q 1725 942 1732 953 l 1658 836 q 1642 817 1651 825 q 1615 804 1633 808 q 1561 800 1596 800 q 1508 804 1526 800 q 1480 817 1489 808 q 1464 836 1471 825 l 1397 942 q 1385 963 1390 953 q 1379 979 1379 974 q 1387 992 1379 988 q 1410 997 1394 997 q 1446 990 1433 997 q 1478 964 1458 983 l 1560 879 l 1642 964 q 1675 990 1661 983 q 1713 997 1689 997 z "},"E":{"ha":942,"x_min":160,"x_max":867,"o":"m 203 0 q 160 42 160 0 l 160 931 q 203 972 160 972 l 838 972 q 865 931 865 972 l 865 908 q 838 867 865 867 l 285 867 l 285 550 l 796 550 q 824 508 824 550 l 824 486 q 796 444 824 444 l 285 444 l 285 106 l 839 106 q 867 64 867 106 l 867 42 q 839 0 867 0 l 203 0 z "},"É":{"ha":886,"x_min":160,"x_max":867,"o":"m 203 0 q 160 42 160 0 l 160 931 q 203 972 160 972 l 838 972 q 865 931 865 972 l 865 908 q 838 867 865 867 l 285 867 l 285 550 l 796 550 q 824 508 824 550 l 824 486 q 796 444 824 444 l 285 444 l 285 106 l 839 106 q 867 64 867 106 l 867 42 q 839 0 867 0 l 203 0 m 428 1044 q 401 1049 411 1044 q 392 1063 392 1054 q 394 1075 392 1068 q 407 1089 397 1082 l 510 1168 q 551 1192 531 1183 q 615 1200 572 1200 q 668 1194 647 1200 q 689 1175 689 1188 q 681 1151 689 1164 q 633 1119 674 1139 l 538 1074 q 485 1052 507 1060 q 428 1044 463 1044 z "},"Ĕ":{"ha":886,"x_min":160,"x_max":867,"o":"m 203 0 q 160 42 160 0 l 160 931 q 203 972 160 972 l 838 972 q 865 931 865 972 l 865 908 q 838 867 865 867 l 285 867 l 285 550 l 796 550 q 824 508 824 550 l 824 486 q 796 444 824 444 l 285 444 l 285 106 l 839 106 q 867 64 867 106 l 867 42 q 839 0 867 0 l 203 0 m 511 1033 q 407 1053 451 1033 q 338 1105 363 1072 q 314 1179 314 1138 q 320 1206 314 1199 q 340 1214 326 1214 q 357 1209 351 1214 q 368 1192 363 1204 q 417 1142 379 1158 q 511 1125 456 1125 q 603 1142 564 1125 q 654 1192 642 1158 q 683 1214 664 1214 q 701 1206 696 1214 q 707 1179 707 1199 q 683 1105 707 1138 q 615 1053 658 1072 q 511 1033 571 1033 z "},"Ě":{"ha":886,"x_min":160,"x_max":867,"o":"m 203 0 q 160 42 160 0 l 160 931 q 203 972 160 972 l 838 972 q 865 931 865 972 l 865 908 q 838 867 865 867 l 285 867 l 285 550 l 796 550 q 824 508 824 550 l 824 486 q 796 444 824 444 l 285 444 l 285 106 l 839 106 q 867 64 867 106 l 867 42 q 839 0 867 0 l 203 0 m 683 1186 q 710 1181 701 1186 q 719 1169 719 1176 q 714 1155 719 1163 q 693 1136 708 1147 l 589 1051 q 569 1040 579 1044 q 546 1033 560 1035 q 511 1031 532 1031 q 476 1033 490 1031 q 453 1040 463 1035 q 433 1051 443 1044 l 329 1136 q 309 1155 315 1147 q 303 1169 303 1163 q 312 1181 303 1176 q 339 1186 321 1186 q 365 1182 354 1186 q 390 1171 376 1178 l 511 1115 l 631 1171 q 658 1182 646 1178 q 683 1186 669 1186 z "},"Ê":{"ha":886,"x_min":160,"x_max":867,"o":"m 203 0 q 160 42 160 0 l 160 931 q 203 972 160 972 l 838 972 q 865 931 865 972 l 865 908 q 838 867 865 867 l 285 867 l 285 550 l 796 550 q 824 508 824 550 l 824 486 q 796 444 824 444 l 285 444 l 285 106 l 839 106 q 867 64 867 106 l 867 42 q 839 0 867 0 l 203 0 m 339 1031 q 312 1035 321 1031 q 303 1047 303 1040 q 309 1062 303 1054 q 329 1081 315 1069 l 433 1165 q 453 1178 443 1174 q 476 1184 463 1182 q 511 1186 490 1186 q 546 1184 532 1186 q 569 1178 560 1182 q 589 1165 579 1174 l 693 1081 q 714 1062 708 1069 q 719 1047 719 1054 q 710 1035 719 1040 q 683 1031 701 1031 q 658 1035 669 1031 q 632 1046 647 1039 l 511 1101 l 392 1046 q 366 1035 378 1039 q 339 1031 354 1031 z "},"Ế":{"ha":886,"x_min":160,"x_max":867,"o":"m 203 0 q 160 42 160 0 l 160 931 q 203 972 160 972 l 838 972 q 865 931 865 972 l 865 908 q 838 867 865 867 l 285 867 l 285 550 l 796 550 q 824 508 824 550 l 824 486 q 796 444 824 444 l 285 444 l 285 106 l 839 106 q 867 64 867 106 l 867 42 q 839 0 867 0 l 203 0 m 339 1031 q 312 1035 321 1031 q 303 1047 303 1040 q 309 1062 303 1054 q 329 1081 315 1069 l 433 1165 q 453 1178 443 1174 q 476 1184 463 1182 q 511 1186 490 1186 q 546 1184 532 1186 q 569 1178 560 1182 q 589 1165 579 1174 l 693 1081 q 714 1062 708 1069 q 719 1047 719 1054 q 710 1035 719 1040 q 683 1031 701 1031 q 658 1035 669 1031 q 632 1046 647 1039 l 511 1101 l 392 1046 q 366 1035 378 1039 q 339 1031 354 1031 m 428 1235 q 401 1240 411 1235 q 392 1253 392 1244 q 394 1265 392 1258 q 407 1279 397 1272 l 510 1358 q 551 1382 531 1374 q 615 1390 572 1390 q 668 1384 647 1390 q 689 1365 689 1378 q 681 1342 689 1354 q 633 1310 674 1329 l 538 1264 q 485 1242 507 1250 q 428 1235 463 1235 z "},"Ệ":{"ha":886,"x_min":160,"x_max":867,"o":"m 203 0 q 160 42 160 0 l 160 931 q 203 972 160 972 l 838 972 q 865 931 865 972 l 865 908 q 838 867 865 867 l 285 867 l 285 550 l 796 550 q 824 508 824 550 l 824 486 q 796 444 824 444 l 285 444 l 285 106 l 839 106 q 867 64 867 106 l 867 42 q 839 0 867 0 l 203 0 m 517 -243 q 472 -235 486 -243 q 457 -212 457 -228 l 457 -142 q 472 -119 457 -126 q 517 -111 486 -111 q 563 -119 549 -111 q 576 -142 576 -126 l 576 -212 q 563 -235 576 -228 q 517 -243 549 -243 m 339 1031 q 312 1035 321 1031 q 303 1047 303 1040 q 309 1062 303 1054 q 329 1081 315 1069 l 433 1165 q 453 1178 443 1174 q 476 1184 463 1182 q 511 1186 490 1186 q 546 1184 532 1186 q 569 1178 560 1182 q 589 1165 579 1174 l 693 1081 q 714 1062 708 1069 q 719 1047 719 1054 q 710 1035 719 1040 q 683 1031 701 1031 q 658 1035 669 1031 q 632 1046 647 1039 l 511 1101 l 392 1046 q 366 1035 378 1039 q 339 1031 354 1031 z "},"Ề":{"ha":886,"x_min":160,"x_max":867,"o":"m 203 0 q 160 42 160 0 l 160 931 q 203 972 160 972 l 838 972 q 865 931 865 972 l 865 908 q 838 867 865 867 l 285 867 l 285 550 l 796 550 q 824 508 824 550 l 824 486 q 796 444 824 444 l 285 444 l 285 106 l 839 106 q 867 64 867 106 l 867 42 q 839 0 867 0 l 203 0 m 339 1031 q 312 1035 321 1031 q 303 1047 303 1040 q 309 1062 303 1054 q 329 1081 315 1069 l 433 1165 q 453 1178 443 1174 q 476 1184 463 1182 q 511 1186 490 1186 q 546 1184 532 1186 q 569 1178 560 1182 q 589 1165 579 1174 l 693 1081 q 714 1062 708 1069 q 719 1047 719 1054 q 710 1035 719 1040 q 683 1031 701 1031 q 658 1035 669 1031 q 632 1046 647 1039 l 511 1101 l 392 1046 q 366 1035 378 1039 q 339 1031 354 1031 m 594 1235 q 538 1242 560 1235 q 485 1264 517 1250 l 389 1310 q 342 1342 350 1329 q 333 1365 333 1354 q 354 1384 333 1378 q 407 1390 375 1390 q 472 1382 451 1390 q 513 1358 492 1374 l 615 1279 q 628 1265 625 1272 q 631 1253 631 1258 q 621 1240 631 1244 q 594 1235 611 1235 z "},"Ể":{"ha":886,"x_min":160,"x_max":867,"o":"m 203 0 q 160 42 160 0 l 160 931 q 203 972 160 972 l 838 972 q 865 931 865 972 l 865 908 q 838 867 865 867 l 285 867 l 285 550 l 796 550 q 824 508 824 550 l 824 486 q 796 444 824 444 l 285 444 l 285 106 l 839 106 q 867 64 867 106 l 867 42 q 839 0 867 0 l 203 0 m 339 1031 q 312 1035 321 1031 q 303 1047 303 1040 q 309 1062 303 1054 q 329 1081 315 1069 l 433 1165 q 453 1178 443 1174 q 476 1184 463 1182 q 511 1186 490 1186 q 546 1184 532 1186 q 569 1178 560 1182 q 589 1165 579 1174 l 693 1081 q 714 1062 708 1069 q 719 1047 719 1054 q 710 1035 719 1040 q 683 1031 701 1031 q 658 1035 669 1031 q 632 1046 647 1039 l 511 1101 l 392 1046 q 366 1035 378 1039 q 339 1031 354 1031 m 499 1218 q 478 1231 489 1218 q 467 1253 467 1243 q 482 1267 467 1258 q 518 1288 497 1276 q 554 1313 539 1299 q 569 1344 569 1328 q 548 1371 569 1363 q 496 1379 526 1379 q 436 1367 460 1379 q 406 1354 413 1354 q 392 1363 400 1354 q 378 1382 385 1371 q 372 1400 372 1393 q 392 1420 372 1408 q 442 1441 411 1432 q 506 1450 474 1450 q 570 1442 536 1450 q 628 1415 604 1435 q 651 1358 651 1394 q 632 1301 651 1328 q 585 1257 613 1275 q 534 1228 558 1239 q 499 1218 510 1218 z "},"Ễ":{"ha":886,"x_min":160,"x_max":867,"o":"m 203 0 q 160 42 160 0 l 160 931 q 203 972 160 972 l 838 972 q 865 931 865 972 l 865 908 q 838 867 865 867 l 285 867 l 285 550 l 796 550 q 824 508 824 550 l 824 486 q 796 444 824 444 l 285 444 l 285 106 l 839 106 q 867 64 867 106 l 867 42 q 839 0 867 0 l 203 0 m 339 1031 q 312 1035 321 1031 q 303 1047 303 1040 q 309 1062 303 1054 q 329 1081 315 1069 l 433 1165 q 453 1178 443 1174 q 476 1184 463 1182 q 511 1186 490 1186 q 546 1184 532 1186 q 569 1178 560 1182 q 589 1165 579 1174 l 693 1081 q 714 1062 708 1069 q 719 1047 719 1054 q 710 1035 719 1040 q 683 1031 701 1031 q 658 1035 669 1031 q 632 1046 647 1039 l 511 1101 l 392 1046 q 366 1035 378 1039 q 339 1031 354 1031 m 304 1236 q 288 1240 299 1236 q 269 1249 278 1243 q 261 1261 261 1254 q 263 1272 261 1267 q 265 1282 264 1276 q 322 1353 289 1333 q 388 1372 356 1372 q 478 1360 432 1372 q 565 1334 524 1347 q 638 1321 607 1321 q 679 1335 665 1321 q 700 1364 693 1350 q 715 1378 707 1378 q 744 1369 726 1378 q 761 1353 761 1361 q 758 1338 761 1349 q 746 1308 756 1328 q 706 1258 728 1276 q 635 1240 683 1240 q 540 1253 586 1240 q 453 1279 493 1267 q 381 1292 413 1292 q 344 1278 357 1292 q 322 1250 331 1264 q 304 1236 314 1236 z "},"Ȅ":{"ha":886,"x_min":160,"x_max":867,"o":"m 203 0 q 160 42 160 0 l 160 931 q 203 972 160 972 l 838 972 q 865 931 865 972 l 865 908 q 838 867 865 867 l 285 867 l 285 550 l 796 550 q 824 508 824 550 l 824 486 q 796 444 824 444 l 285 444 l 285 106 l 839 106 q 867 64 867 106 l 867 42 q 839 0 867 0 l 203 0 m 442 1044 q 385 1052 407 1044 q 332 1074 364 1060 l 236 1119 q 189 1151 197 1139 q 181 1175 181 1164 q 201 1194 181 1188 q 254 1200 222 1200 q 319 1192 299 1200 q 360 1168 339 1183 l 463 1089 q 475 1075 472 1082 q 478 1063 478 1068 q 468 1049 478 1054 q 442 1044 458 1044 m 714 1044 q 658 1052 679 1044 q 604 1074 636 1060 l 508 1119 q 461 1151 469 1139 q 453 1175 453 1164 q 474 1194 453 1188 q 526 1200 494 1200 q 591 1192 571 1200 q 632 1168 611 1183 l 735 1089 q 747 1075 744 1082 q 750 1063 750 1068 q 740 1049 750 1054 q 714 1044 731 1044 z "},"Ë":{"ha":886,"x_min":160,"x_max":867,"o":"m 203 0 q 160 42 160 0 l 160 931 q 203 972 160 972 l 838 972 q 865 931 865 972 l 865 908 q 838 867 865 867 l 285 867 l 285 550 l 796 550 q 824 508 824 550 l 824 486 q 796 444 824 444 l 285 444 l 285 106 l 839 106 q 867 64 867 106 l 867 42 q 839 0 867 0 l 203 0 m 638 1053 q 591 1060 606 1053 q 576 1083 576 1068 l 576 1161 q 591 1184 576 1176 q 638 1192 606 1192 q 684 1184 669 1192 q 699 1161 699 1176 l 699 1083 q 684 1060 699 1068 q 638 1053 669 1053 m 385 1053 q 338 1060 353 1053 q 324 1083 324 1068 l 324 1161 q 338 1184 324 1176 q 385 1192 353 1192 q 431 1184 417 1192 q 446 1161 446 1176 l 446 1083 q 431 1060 446 1068 q 385 1053 417 1053 z "},"Ė":{"ha":886,"x_min":160,"x_max":867,"o":"m 203 0 q 160 42 160 0 l 160 931 q 203 972 160 972 l 838 972 q 865 931 865 972 l 865 908 q 838 867 865 867 l 285 867 l 285 550 l 796 550 q 824 508 824 550 l 824 486 q 796 444 824 444 l 285 444 l 285 106 l 839 106 q 867 64 867 106 l 867 42 q 839 0 867 0 l 203 0 m 511 1051 q 463 1060 476 1051 q 449 1082 449 1068 l 449 1165 q 463 1188 449 1179 q 511 1196 476 1196 q 560 1188 546 1196 q 574 1165 574 1181 l 574 1082 q 560 1060 574 1068 q 511 1051 546 1051 z "},"Ẹ":{"ha":886,"x_min":160,"x_max":867,"o":"m 203 0 q 160 42 160 0 l 160 931 q 203 972 160 972 l 838 972 q 865 931 865 972 l 865 908 q 838 867 865 867 l 285 867 l 285 550 l 796 550 q 824 508 824 550 l 824 486 q 796 444 824 444 l 285 444 l 285 106 l 839 106 q 867 64 867 106 l 867 42 q 839 0 867 0 l 203 0 m 517 -243 q 472 -235 486 -243 q 457 -212 457 -228 l 457 -142 q 472 -119 457 -126 q 517 -111 486 -111 q 563 -119 549 -111 q 576 -142 576 -126 l 576 -212 q 563 -235 576 -228 q 517 -243 549 -243 z "},"È":{"ha":886,"x_min":160,"x_max":867,"o":"m 203 0 q 160 42 160 0 l 160 931 q 203 972 160 972 l 838 972 q 865 931 865 972 l 865 908 q 838 867 865 867 l 285 867 l 285 550 l 796 550 q 824 508 824 550 l 824 486 q 796 444 824 444 l 285 444 l 285 106 l 839 106 q 867 64 867 106 l 867 42 q 839 0 867 0 l 203 0 m 594 1044 q 538 1052 560 1044 q 485 1074 517 1060 l 389 1119 q 342 1151 350 1139 q 333 1175 333 1164 q 354 1194 333 1188 q 407 1200 375 1200 q 472 1192 451 1200 q 513 1168 492 1183 l 615 1089 q 628 1075 625 1082 q 631 1063 631 1068 q 621 1049 631 1054 q 594 1044 611 1044 z "},"Ẻ":{"ha":886,"x_min":160,"x_max":867,"o":"m 203 0 q 160 42 160 0 l 160 931 q 203 972 160 972 l 838 972 q 865 931 865 972 l 865 908 q 838 867 865 867 l 285 867 l 285 550 l 796 550 q 824 508 824 550 l 824 486 q 796 444 824 444 l 285 444 l 285 106 l 839 106 q 867 64 867 106 l 867 42 q 839 0 867 0 l 203 0 m 499 1028 q 478 1040 489 1028 q 467 1063 467 1053 q 482 1077 467 1068 q 518 1097 497 1086 q 554 1123 539 1108 q 569 1154 569 1138 q 548 1181 569 1172 q 496 1189 526 1189 q 436 1176 460 1189 q 406 1164 413 1164 q 392 1172 400 1164 q 378 1192 385 1181 q 372 1210 372 1203 q 392 1230 372 1218 q 442 1251 411 1242 q 506 1260 474 1260 q 570 1252 536 1260 q 628 1224 604 1244 q 651 1168 651 1204 q 632 1111 651 1138 q 585 1067 613 1085 q 534 1038 558 1049 q 499 1028 510 1028 z "},"Ȇ":{"ha":886,"x_min":160,"x_max":867,"o":"m 203 0 q 160 42 160 0 l 160 931 q 203 972 160 972 l 838 972 q 865 931 865 972 l 865 908 q 838 867 865 867 l 285 867 l 285 550 l 796 550 q 824 508 824 550 l 824 486 q 796 444 824 444 l 285 444 l 285 106 l 839 106 q 867 64 867 106 l 867 42 q 839 0 867 0 l 203 0 m 340 1033 q 320 1042 326 1033 q 314 1068 314 1050 q 338 1143 314 1110 q 407 1195 363 1176 q 511 1214 451 1214 q 615 1195 571 1214 q 683 1143 658 1176 q 707 1068 707 1110 q 701 1042 707 1050 q 683 1033 696 1033 q 654 1056 664 1033 q 603 1106 642 1089 q 511 1122 564 1122 q 417 1106 456 1122 q 368 1056 379 1089 q 357 1038 363 1043 q 340 1033 351 1033 z "},"Ē":{"ha":886,"x_min":160,"x_max":867,"o":"m 203 0 q 160 42 160 0 l 160 931 q 203 972 160 972 l 838 972 q 865 931 865 972 l 865 908 q 838 867 865 867 l 285 867 l 285 550 l 796 550 q 824 508 824 550 l 824 486 q 796 444 824 444 l 285 444 l 285 106 l 839 106 q 867 64 867 106 l 867 42 q 839 0 867 0 l 203 0 m 329 1075 q 303 1117 303 1075 l 303 1131 q 329 1172 303 1172 l 693 1172 q 719 1131 719 1172 l 719 1117 q 693 1075 719 1075 l 329 1075 z "},"Ę":{"ha":942,"x_min":160,"x_max":878,"o":"m 203 0 q 160 42 160 0 l 160 931 q 203 972 160 972 l 838 972 q 865 931 865 972 l 865 908 q 838 867 865 867 l 285 867 l 285 550 l 796 550 q 824 508 824 550 l 824 486 q 796 444 824 444 l 285 444 l 285 106 l 839 106 q 867 64 867 106 l 867 42 q 839 0 867 0 l 203 0 m 738 -254 q 631 -226 669 -254 q 593 -146 593 -197 q 609 -83 593 -115 q 657 -23 625 -51 q 738 24 689 6 l 807 14 q 719 -47 751 -12 q 688 -118 688 -81 q 701 -153 688 -140 q 742 -165 715 -165 q 791 -158 771 -165 q 825 -143 811 -150 q 849 -136 839 -136 q 864 -146 857 -136 q 874 -168 871 -156 q 878 -190 878 -181 q 855 -222 878 -207 q 799 -245 832 -236 q 738 -254 767 -254 z "},"Ẽ":{"ha":886,"x_min":160,"x_max":867,"o":"m 203 0 q 160 42 160 0 l 160 931 q 203 972 160 972 l 838 972 q 865 931 865 972 l 865 908 q 838 867 865 867 l 285 867 l 285 550 l 796 550 q 824 508 824 550 l 824 486 q 796 444 824 444 l 285 444 l 285 106 l 839 106 q 867 64 867 106 l 867 42 q 839 0 867 0 l 203 0 m 304 1046 q 288 1049 299 1046 q 269 1058 278 1053 q 261 1071 261 1064 q 263 1081 261 1076 q 265 1092 264 1086 q 322 1163 289 1143 q 388 1182 356 1182 q 478 1169 432 1182 q 565 1144 524 1157 q 638 1131 607 1131 q 679 1145 665 1131 q 700 1174 693 1160 q 715 1188 707 1188 q 744 1179 726 1188 q 761 1163 761 1171 q 758 1148 761 1158 q 746 1118 756 1138 q 706 1068 728 1086 q 635 1050 683 1050 q 540 1063 586 1050 q 453 1089 493 1076 q 381 1101 413 1101 q 344 1088 357 1101 q 322 1060 331 1074 q 304 1046 314 1046 z "},"Ə":{"ha":1083,"x_min":43,"x_max":1014,"o":"m 510 -12 q 160 103 278 -12 q 43 447 43 219 q 51 469 43 456 q 70 493 60 482 q 89 504 81 504 l 889 504 q 783 781 882 689 q 503 874 685 874 q 323 853 397 874 q 206 813 249 833 q 153 792 164 792 q 132 806 143 792 q 113 839 121 821 q 104 864 104 857 q 135 894 104 875 q 220 933 165 914 q 347 967 275 953 q 501 981 418 981 q 888 850 763 981 q 1014 461 1014 719 q 958 199 1014 304 q 790 40 901 93 q 510 -12 678 -12 m 514 90 q 793 169 699 90 q 889 404 888 249 l 167 404 q 254 169 167 249 q 514 90 342 90 z "},"F":{"ha":838,"x_min":160,"x_max":801,"o":"m 217 -3 q 173 6 186 -3 q 160 28 160 14 l 160 931 q 203 972 160 972 l 775 972 q 801 931 801 972 l 801 908 q 775 867 801 867 l 285 867 l 285 508 l 753 508 q 781 467 781 508 l 781 444 q 753 403 781 403 l 285 403 l 285 28 q 272 6 285 14 q 228 -3 260 -3 l 217 -3 z "},"G":{"ha":1118,"x_min":69,"x_max":975,"o":"m 622 -8 q 208 117 347 -8 q 69 489 69 242 q 208 857 69 733 q 622 981 347 981 q 699 976 656 981 q 785 965 742 972 q 865 949 829 958 q 918 931 900 940 q 942 912 933 921 q 951 894 951 903 q 947 874 951 886 q 936 851 943 863 q 921 831 929 839 q 904 824 913 824 q 874 831 896 824 q 818 849 853 839 q 735 867 783 860 q 622 875 686 875 q 303 778 410 875 q 196 489 196 681 q 244 272 196 360 q 386 141 292 185 q 622 97 481 97 q 724 103 674 97 q 813 119 774 108 q 869 142 851 129 l 853 68 l 853 424 l 607 424 q 579 465 579 424 l 579 486 q 607 528 579 528 l 932 528 q 975 486 975 528 l 975 108 q 969 76 975 86 q 947 58 963 67 q 854 24 910 39 q 738 0 799 8 q 622 -8 678 -8 z "},"Ğ":{"ha":1118,"x_min":69,"x_max":975,"o":"m 622 -8 q 208 117 347 -8 q 69 489 69 242 q 208 857 69 733 q 622 981 347 981 q 699 976 656 981 q 785 965 742 972 q 865 949 829 958 q 918 931 900 940 q 942 912 933 921 q 951 894 951 903 q 947 874 951 886 q 936 851 943 863 q 921 831 929 839 q 904 824 913 824 q 874 831 896 824 q 818 849 853 839 q 735 867 783 860 q 622 875 686 875 q 303 778 410 875 q 196 489 196 681 q 244 272 196 360 q 386 141 292 185 q 622 97 481 97 q 724 103 674 97 q 813 119 774 108 q 869 142 851 129 l 853 68 l 853 424 l 607 424 q 579 465 579 424 l 579 486 q 607 528 579 528 l 932 528 q 975 486 975 528 l 975 108 q 969 76 975 86 q 947 58 963 67 q 854 24 910 39 q 738 0 799 8 q 622 -8 678 -8 m 574 1033 q 469 1053 514 1033 q 401 1105 425 1072 q 376 1179 376 1138 q 383 1206 376 1199 q 403 1214 389 1214 q 419 1209 414 1214 q 431 1192 425 1204 q 480 1142 442 1158 q 574 1125 518 1125 q 665 1142 626 1125 q 717 1192 704 1158 q 746 1214 726 1214 q 764 1206 758 1214 q 769 1179 769 1199 q 745 1105 769 1138 q 677 1053 721 1072 q 574 1033 633 1033 z "},"Ǧ":{"ha":1118,"x_min":69,"x_max":975,"o":"m 622 -8 q 208 117 347 -8 q 69 489 69 242 q 208 857 69 733 q 622 981 347 981 q 699 976 656 981 q 785 965 742 972 q 865 949 829 958 q 918 931 900 940 q 942 912 933 921 q 951 894 951 903 q 947 874 951 886 q 936 851 943 863 q 921 831 929 839 q 904 824 913 824 q 874 831 896 824 q 818 849 853 839 q 735 867 783 860 q 622 875 686 875 q 303 778 410 875 q 196 489 196 681 q 244 272 196 360 q 386 141 292 185 q 622 97 481 97 q 724 103 674 97 q 813 119 774 108 q 869 142 851 129 l 853 68 l 853 424 l 607 424 q 579 465 579 424 l 579 486 q 607 528 579 528 l 932 528 q 975 486 975 528 l 975 108 q 969 76 975 86 q 947 58 963 67 q 854 24 910 39 q 738 0 799 8 q 622 -8 678 -8 m 746 1186 q 773 1181 764 1186 q 782 1169 782 1176 q 776 1155 782 1163 q 756 1136 771 1147 l 651 1051 q 632 1040 642 1044 q 608 1033 622 1035 q 574 1031 594 1031 q 539 1033 553 1031 q 515 1040 525 1035 q 496 1051 506 1044 l 392 1136 q 372 1155 378 1147 q 365 1169 365 1163 q 374 1181 365 1176 q 401 1186 383 1186 q 428 1182 417 1186 q 453 1171 439 1178 l 574 1115 l 693 1171 q 720 1182 708 1178 q 746 1186 732 1186 z "},"Ĝ":{"ha":1118,"x_min":69,"x_max":975,"o":"m 622 -8 q 208 117 347 -8 q 69 489 69 242 q 208 857 69 733 q 622 981 347 981 q 699 976 656 981 q 785 965 742 972 q 865 949 829 958 q 918 931 900 940 q 942 912 933 921 q 951 894 951 903 q 947 874 951 886 q 936 851 943 863 q 921 831 929 839 q 904 824 913 824 q 874 831 896 824 q 818 849 853 839 q 735 867 783 860 q 622 875 686 875 q 303 778 410 875 q 196 489 196 681 q 244 272 196 360 q 386 141 292 185 q 622 97 481 97 q 724 103 674 97 q 813 119 774 108 q 869 142 851 129 l 853 68 l 853 424 l 607 424 q 579 465 579 424 l 579 486 q 607 528 579 528 l 932 528 q 975 486 975 528 l 975 108 q 969 76 975 86 q 947 58 963 67 q 854 24 910 39 q 738 0 799 8 q 622 -8 678 -8 m 401 1031 q 374 1035 383 1031 q 365 1047 365 1040 q 372 1062 365 1054 q 392 1081 378 1069 l 496 1165 q 515 1178 506 1174 q 539 1184 525 1182 q 574 1186 553 1186 q 608 1184 594 1186 q 632 1178 622 1182 q 651 1165 642 1174 l 756 1081 q 776 1062 771 1069 q 782 1047 782 1054 q 773 1035 782 1040 q 746 1031 764 1031 q 721 1035 732 1031 q 694 1046 710 1039 l 574 1101 l 454 1046 q 428 1035 440 1039 q 401 1031 417 1031 z "},"Ģ":{"ha":1118,"x_min":69,"x_max":975,"o":"m 622 -8 q 208 117 347 -8 q 69 489 69 242 q 208 857 69 733 q 622 981 347 981 q 699 976 656 981 q 785 965 742 972 q 865 949 829 958 q 918 931 900 940 q 942 912 933 921 q 951 894 951 903 q 947 874 951 886 q 936 851 943 863 q 921 831 929 839 q 904 824 913 824 q 874 831 896 824 q 818 849 853 839 q 735 867 783 860 q 622 875 686 875 q 303 778 410 875 q 196 489 196 681 q 244 272 196 360 q 386 141 292 185 q 622 97 481 97 q 724 103 674 97 q 813 119 774 108 q 869 142 851 129 l 853 68 l 853 424 l 607 424 q 579 465 579 424 l 579 486 q 607 528 579 528 l 932 528 q 975 486 975 528 l 975 108 q 969 76 975 86 q 947 58 963 67 q 854 24 910 39 q 738 0 799 8 q 622 -8 678 -8 m 499 -312 q 476 -308 489 -312 q 463 -292 463 -304 q 471 -265 463 -281 q 490 -228 479 -250 q 510 -176 501 -207 q 518 -106 518 -146 q 531 -79 518 -87 q 574 -71 544 -71 q 629 -106 629 -71 q 606 -212 629 -165 q 551 -286 582 -260 q 499 -312 519 -312 z "},"Ġ":{"ha":1118,"x_min":69,"x_max":975,"o":"m 622 -8 q 208 117 347 -8 q 69 489 69 242 q 208 857 69 733 q 622 981 347 981 q 699 976 656 981 q 785 965 742 972 q 865 949 829 958 q 918 931 900 940 q 942 912 933 921 q 951 894 951 903 q 947 874 951 886 q 936 851 943 863 q 921 831 929 839 q 904 824 913 824 q 874 831 896 824 q 818 849 853 839 q 735 867 783 860 q 622 875 686 875 q 303 778 410 875 q 196 489 196 681 q 244 272 196 360 q 386 141 292 185 q 622 97 481 97 q 724 103 674 97 q 813 119 774 108 q 869 142 851 129 l 853 68 l 853 424 l 607 424 q 579 465 579 424 l 579 486 q 607 528 579 528 l 932 528 q 975 486 975 528 l 975 108 q 969 76 975 86 q 947 58 963 67 q 854 24 910 39 q 738 0 799 8 q 622 -8 678 -8 m 574 1051 q 525 1060 539 1051 q 511 1082 511 1068 l 511 1165 q 525 1188 511 1179 q 574 1196 539 1196 q 622 1188 608 1196 q 636 1165 636 1181 l 636 1082 q 622 1060 636 1068 q 574 1051 608 1051 z "},"H":{"ha":1192,"x_min":160,"x_max":1032,"o":"m 217 -3 q 173 6 186 -3 q 160 28 160 14 l 160 944 q 173 967 160 960 q 217 975 186 975 l 228 975 q 272 967 260 975 q 285 944 285 960 l 285 551 l 907 551 l 907 944 q 920 967 907 960 q 964 975 933 975 l 975 975 q 1019 967 1007 975 q 1032 944 1032 960 l 1032 28 q 1019 6 1032 14 q 975 -3 1007 -3 l 964 -3 q 920 6 933 -3 q 907 28 907 14 l 907 446 l 285 446 l 285 28 q 272 6 285 14 q 228 -3 260 -3 l 217 -3 z "},"Ħ":{"ha":1192,"x_min":68,"x_max":1124,"o":"m 96 696 q 68 738 68 696 l 68 751 q 96 793 68 793 l 1096 793 q 1124 751 1124 793 l 1124 738 q 1096 696 1124 696 l 96 696 m 217 -3 q 173 6 186 -3 q 160 28 160 14 l 160 944 q 173 967 160 960 q 217 975 186 975 l 228 975 q 272 967 260 975 q 285 944 285 960 l 285 551 l 907 551 l 907 944 q 920 967 907 960 q 964 975 933 975 l 975 975 q 1019 967 1007 975 q 1032 944 1032 960 l 1032 28 q 1019 6 1032 14 q 975 -3 1007 -3 l 964 -3 q 920 6 933 -3 q 907 28 907 14 l 907 446 l 285 446 l 285 28 q 272 6 285 14 q 228 -3 260 -3 l 217 -3 z "},"Ĥ":{"ha":1192,"x_min":160,"x_max":1032,"o":"m 217 -3 q 173 6 186 -3 q 160 28 160 14 l 160 944 q 173 967 160 960 q 217 975 186 975 l 228 975 q 272 967 260 975 q 285 944 285 960 l 285 551 l 907 551 l 907 944 q 920 967 907 960 q 964 975 933 975 l 975 975 q 1019 967 1007 975 q 1032 944 1032 960 l 1032 28 q 1019 6 1032 14 q 975 -3 1007 -3 l 964 -3 q 920 6 933 -3 q 907 28 907 14 l 907 446 l 285 446 l 285 28 q 272 6 285 14 q 228 -3 260 -3 l 217 -3 m 424 1031 q 397 1035 406 1031 q 388 1047 388 1040 q 394 1062 388 1054 q 414 1081 400 1069 l 518 1165 q 538 1178 528 1174 q 561 1184 547 1182 q 596 1186 575 1186 q 631 1184 617 1186 q 654 1178 644 1182 q 674 1165 664 1174 l 778 1081 q 799 1062 793 1069 q 804 1047 804 1054 q 795 1035 804 1040 q 768 1031 786 1031 q 743 1035 754 1031 q 717 1046 732 1039 l 596 1101 l 476 1046 q 451 1035 463 1039 q 424 1031 439 1031 z "},"Ḥ":{"ha":1192,"x_min":160,"x_max":1032,"o":"m 217 -3 q 173 6 186 -3 q 160 28 160 14 l 160 944 q 173 967 160 960 q 217 975 186 975 l 228 975 q 272 967 260 975 q 285 944 285 960 l 285 551 l 907 551 l 907 944 q 920 967 907 960 q 964 975 933 975 l 975 975 q 1019 967 1007 975 q 1032 944 1032 960 l 1032 28 q 1019 6 1032 14 q 975 -3 1007 -3 l 964 -3 q 920 6 933 -3 q 907 28 907 14 l 907 446 l 285 446 l 285 28 q 272 6 285 14 q 228 -3 260 -3 l 217 -3 m 596 -243 q 551 -235 565 -243 q 536 -212 536 -228 l 536 -142 q 551 -119 536 -126 q 596 -111 565 -111 q 642 -119 628 -111 q 656 -142 656 -126 l 656 -212 q 642 -235 656 -228 q 596 -243 628 -243 z "},"I":{"ha":444,"x_min":160,"x_max":285,"o":"m 217 -3 q 173 6 186 -3 q 160 28 160 14 l 160 944 q 173 967 160 960 q 217 975 186 975 l 228 975 q 272 967 260 975 q 285 944 285 960 l 285 28 q 272 6 285 14 q 228 -3 260 -3 l 217 -3 z "},"Ĳ":{"ha":1111,"x_min":160,"x_max":958,"o":"m 217 -3 q 173 6 186 -3 q 160 28 160 14 l 160 944 q 173 967 160 960 q 217 975 186 975 l 228 975 q 272 967 260 975 q 285 944 285 960 l 285 28 q 272 6 285 14 q 228 -3 260 -3 l 217 -3 m 668 -8 q 590 -1 635 -8 q 513 22 546 7 q 479 54 479 36 q 482 72 479 60 q 490 96 485 83 q 501 117 494 108 q 517 126 508 126 q 546 120 529 126 q 592 107 563 114 q 668 100 621 100 q 794 140 756 100 q 833 271 833 181 l 833 944 q 847 967 833 960 q 890 975 860 975 l 901 975 q 946 967 933 975 q 958 944 958 960 l 958 271 q 885 62 958 132 q 668 -8 813 -8 z "},"Í":{"ha":444,"x_min":103,"x_max":400,"o":"m 217 -3 q 173 6 186 -3 q 160 28 160 14 l 160 944 q 173 967 160 960 q 217 975 186 975 l 228 975 q 272 967 260 975 q 285 944 285 960 l 285 28 q 272 6 285 14 q 228 -3 260 -3 l 217 -3 m 139 1044 q 113 1049 122 1044 q 103 1063 103 1054 q 106 1075 103 1068 q 118 1089 108 1082 l 221 1168 q 263 1192 242 1183 q 326 1200 283 1200 q 379 1194 358 1200 q 400 1175 400 1188 q 392 1151 400 1164 q 344 1119 385 1139 l 249 1074 q 196 1052 218 1060 q 139 1044 174 1044 z "},"Ĭ":{"ha":444,"x_min":25,"x_max":418,"o":"m 217 -3 q 173 6 186 -3 q 160 28 160 14 l 160 944 q 173 967 160 960 q 217 975 186 975 l 228 975 q 272 967 260 975 q 285 944 285 960 l 285 28 q 272 6 285 14 q 228 -3 260 -3 l 217 -3 m 222 1033 q 118 1053 163 1033 q 49 1105 74 1072 q 25 1179 25 1138 q 31 1206 25 1199 q 51 1214 38 1214 q 68 1209 63 1214 q 79 1192 74 1204 q 128 1142 90 1158 q 222 1125 167 1125 q 314 1142 275 1125 q 365 1192 353 1158 q 394 1214 375 1214 q 413 1206 407 1214 q 418 1179 418 1199 q 394 1105 418 1138 q 326 1053 369 1072 q 222 1033 282 1033 z "},"Ǐ":{"ha":444,"x_min":14,"x_max":431,"o":"m 217 -3 q 173 6 186 -3 q 160 28 160 14 l 160 944 q 173 967 160 960 q 217 975 186 975 l 228 975 q 272 967 260 975 q 285 944 285 960 l 285 28 q 272 6 285 14 q 228 -3 260 -3 l 217 -3 m 394 1186 q 422 1181 413 1186 q 431 1169 431 1176 q 425 1155 431 1163 q 404 1136 419 1147 l 300 1051 q 281 1040 290 1044 q 257 1033 271 1035 q 222 1031 243 1031 q 188 1033 201 1031 q 164 1040 174 1035 q 144 1051 154 1044 l 40 1136 q 20 1155 26 1147 q 14 1169 14 1163 q 23 1181 14 1176 q 50 1186 32 1186 q 76 1182 65 1186 q 101 1171 88 1178 l 222 1115 l 342 1171 q 369 1182 357 1178 q 394 1186 381 1186 z "},"Î":{"ha":444,"x_min":14,"x_max":431,"o":"m 217 -3 q 173 6 186 -3 q 160 28 160 14 l 160 944 q 173 967 160 960 q 217 975 186 975 l 228 975 q 272 967 260 975 q 285 944 285 960 l 285 28 q 272 6 285 14 q 228 -3 260 -3 l 217 -3 m 50 1031 q 23 1035 32 1031 q 14 1047 14 1040 q 20 1062 14 1054 q 40 1081 26 1069 l 144 1165 q 164 1178 154 1174 q 188 1184 174 1182 q 222 1186 201 1186 q 257 1184 243 1186 q 281 1178 271 1182 q 300 1165 290 1174 l 404 1081 q 425 1062 419 1069 q 431 1047 431 1054 q 422 1035 431 1040 q 394 1031 413 1031 q 369 1035 381 1031 q 343 1046 358 1039 l 222 1101 l 103 1046 q 77 1035 89 1039 q 50 1031 65 1031 z "},"Ȉ":{"ha":444,"x_min":-108,"x_max":461,"o":"m 217 -3 q 173 6 186 -3 q 160 28 160 14 l 160 944 q 173 967 160 960 q 217 975 186 975 l 228 975 q 272 967 260 975 q 285 944 285 960 l 285 28 q 272 6 285 14 q 228 -3 260 -3 l 217 -3 m 153 1044 q 97 1052 118 1044 q 43 1074 75 1060 l -53 1119 q -100 1151 -92 1139 q -108 1175 -108 1164 q -87 1194 -108 1188 q -35 1200 -67 1200 q 30 1192 10 1200 q 71 1168 50 1183 l 174 1089 q 186 1075 183 1082 q 189 1063 189 1068 q 179 1049 189 1054 q 153 1044 169 1044 m 425 1044 q 369 1052 390 1044 q 315 1074 347 1060 l 219 1119 q 172 1151 181 1139 q 164 1175 164 1164 q 185 1194 164 1188 q 238 1200 206 1200 q 302 1192 282 1200 q 343 1168 322 1183 l 446 1089 q 458 1075 456 1082 q 461 1063 461 1068 q 451 1049 461 1054 q 425 1044 442 1044 z "},"Ï":{"ha":444,"x_min":35,"x_max":410,"o":"m 217 -3 q 173 6 186 -3 q 160 28 160 14 l 160 944 q 173 967 160 960 q 217 975 186 975 l 228 975 q 272 967 260 975 q 285 944 285 960 l 285 28 q 272 6 285 14 q 228 -3 260 -3 l 217 -3 m 349 1053 q 302 1060 317 1053 q 288 1083 288 1068 l 288 1161 q 302 1184 288 1176 q 349 1192 317 1192 q 395 1184 381 1192 q 410 1161 410 1176 l 410 1083 q 395 1060 410 1068 q 349 1053 381 1053 m 96 1053 q 49 1060 64 1053 q 35 1083 35 1068 l 35 1161 q 49 1184 35 1176 q 96 1192 64 1192 q 142 1184 128 1192 q 157 1161 157 1176 l 157 1083 q 142 1060 157 1068 q 96 1053 128 1053 z "},"İ":{"ha":444,"x_min":160,"x_max":285,"o":"m 217 -3 q 173 6 186 -3 q 160 28 160 14 l 160 944 q 173 967 160 960 q 217 975 186 975 l 228 975 q 272 967 260 975 q 285 944 285 960 l 285 28 q 272 6 285 14 q 228 -3 260 -3 l 217 -3 m 222 1051 q 174 1060 188 1051 q 160 1082 160 1068 l 160 1165 q 174 1188 160 1179 q 222 1196 188 1196 q 271 1188 257 1196 q 285 1165 285 1181 l 285 1082 q 271 1060 285 1068 q 222 1051 257 1051 z "},"Ị":{"ha":444,"x_min":160,"x_max":285,"o":"m 217 -3 q 173 6 186 -3 q 160 28 160 14 l 160 944 q 173 967 160 960 q 217 975 186 975 l 228 975 q 272 967 260 975 q 285 944 285 960 l 285 28 q 272 6 285 14 q 228 -3 260 -3 l 217 -3 m 222 -243 q 177 -235 192 -243 q 163 -212 163 -228 l 163 -142 q 177 -119 163 -126 q 222 -111 192 -111 q 268 -119 254 -111 q 282 -142 282 -126 l 282 -212 q 268 -235 282 -228 q 222 -243 254 -243 z "},"Ì":{"ha":444,"x_min":44,"x_max":342,"o":"m 217 -3 q 173 6 186 -3 q 160 28 160 14 l 160 944 q 173 967 160 960 q 217 975 186 975 l 228 975 q 272 967 260 975 q 285 944 285 960 l 285 28 q 272 6 285 14 q 228 -3 260 -3 l 217 -3 m 306 1044 q 249 1052 271 1044 q 196 1074 228 1060 l 100 1119 q 53 1151 61 1139 q 44 1175 44 1164 q 65 1194 44 1188 q 118 1200 86 1200 q 183 1192 163 1200 q 224 1168 203 1183 l 326 1089 q 339 1075 336 1082 q 342 1063 342 1068 q 332 1049 342 1054 q 306 1044 322 1044 z "},"Ỉ":{"ha":444,"x_min":83,"x_max":363,"o":"m 217 -3 q 173 6 186 -3 q 160 28 160 14 l 160 944 q 173 967 160 960 q 217 975 186 975 l 228 975 q 272 967 260 975 q 285 944 285 960 l 285 28 q 272 6 285 14 q 228 -3 260 -3 l 217 -3 m 210 1028 q 189 1040 200 1028 q 178 1063 178 1053 q 193 1077 178 1068 q 229 1097 208 1086 q 265 1123 250 1108 q 281 1154 281 1138 q 259 1181 281 1172 q 207 1189 238 1189 q 147 1176 171 1189 q 117 1164 124 1164 q 103 1172 111 1164 q 90 1192 96 1181 q 83 1210 83 1203 q 103 1230 83 1218 q 153 1251 122 1242 q 217 1260 185 1260 q 281 1252 247 1260 q 339 1224 315 1244 q 363 1168 363 1204 q 343 1111 363 1138 q 297 1067 324 1085 q 245 1038 269 1049 q 210 1028 221 1028 z "},"Ȋ":{"ha":444,"x_min":25,"x_max":418,"o":"m 217 -3 q 173 6 186 -3 q 160 28 160 14 l 160 944 q 173 967 160 960 q 217 975 186 975 l 228 975 q 272 967 260 975 q 285 944 285 960 l 285 28 q 272 6 285 14 q 228 -3 260 -3 l 217 -3 m 51 1033 q 31 1042 38 1033 q 25 1068 25 1050 q 49 1143 25 1110 q 118 1195 74 1176 q 222 1214 163 1214 q 326 1195 282 1214 q 394 1143 369 1176 q 418 1068 418 1110 q 413 1042 418 1050 q 394 1033 407 1033 q 365 1056 375 1033 q 314 1106 353 1089 q 222 1122 275 1122 q 128 1106 167 1122 q 79 1056 90 1089 q 68 1038 74 1043 q 51 1033 63 1033 z "},"Ī":{"ha":444,"x_min":14,"x_max":431,"o":"m 217 -3 q 173 6 186 -3 q 160 28 160 14 l 160 944 q 173 967 160 960 q 217 975 186 975 l 228 975 q 272 967 260 975 q 285 944 285 960 l 285 28 q 272 6 285 14 q 228 -3 260 -3 l 217 -3 m 40 1075 q 14 1117 14 1075 l 14 1131 q 40 1172 14 1172 l 404 1172 q 431 1131 431 1172 l 431 1117 q 404 1075 431 1075 l 40 1075 z "},"Į":{"ha":444,"x_min":67,"x_max":351,"o":"m 217 -3 q 173 6 186 -3 q 160 28 160 14 l 160 944 q 173 967 160 960 q 217 975 186 975 l 228 975 q 272 967 260 975 q 285 944 285 960 l 285 28 q 272 6 285 14 q 228 -3 260 -3 l 217 -3 m 211 -254 q 105 -226 143 -254 q 67 -146 67 -197 q 83 -83 67 -115 q 131 -23 99 -51 q 211 24 163 6 l 281 14 q 193 -47 225 -12 q 161 -118 161 -81 q 175 -153 161 -140 q 215 -165 189 -165 q 265 -158 244 -165 q 299 -143 285 -150 q 322 -136 313 -136 q 338 -146 331 -136 q 348 -168 344 -156 q 351 -190 351 -181 q 328 -222 351 -207 q 273 -245 306 -236 q 211 -254 240 -254 z "},"Ĩ":{"ha":444,"x_min":-28,"x_max":472,"o":"m 217 -3 q 173 6 186 -3 q 160 28 160 14 l 160 944 q 173 967 160 960 q 217 975 186 975 l 228 975 q 272 967 260 975 q 285 944 285 960 l 285 28 q 272 6 285 14 q 228 -3 260 -3 l 217 -3 m 15 1046 q -1 1049 10 1046 q -19 1058 -11 1053 q -28 1071 -28 1064 q -26 1081 -28 1076 q -24 1092 -25 1086 q 33 1163 0 1143 q 99 1182 67 1182 q 189 1169 143 1182 q 276 1144 235 1157 q 349 1131 318 1131 q 390 1145 376 1131 q 411 1174 404 1160 q 426 1188 418 1188 q 455 1179 438 1188 q 472 1163 472 1171 q 469 1148 472 1158 q 457 1118 467 1138 q 417 1068 439 1086 q 346 1050 394 1050 q 251 1063 297 1050 q 164 1089 204 1076 q 92 1101 124 1101 q 55 1088 68 1101 q 33 1060 42 1074 q 15 1046 25 1046 z "},"J":{"ha":667,"x_min":35,"x_max":514,"o":"m 224 -8 q 146 -1 190 -8 q 68 22 101 7 q 35 54 35 36 q 38 72 35 60 q 45 96 40 83 q 57 117 50 108 q 72 126 64 126 q 101 120 85 126 q 147 107 118 114 q 224 100 176 100 q 350 140 311 100 q 389 271 389 181 l 389 944 q 402 967 389 960 q 446 975 415 975 l 457 975 q 501 967 489 975 q 514 944 514 960 l 514 271 q 441 62 514 132 q 224 -8 368 -8 z "},"Ĵ":{"ha":667,"x_min":35,"x_max":660,"o":"m 224 -8 q 146 -1 190 -8 q 68 22 101 7 q 35 54 35 36 q 38 72 35 60 q 45 96 40 83 q 57 117 50 108 q 72 126 64 126 q 101 120 85 126 q 147 107 118 114 q 224 100 176 100 q 350 140 311 100 q 389 271 389 181 l 389 944 q 402 967 389 960 q 446 975 415 975 l 457 975 q 501 967 489 975 q 514 944 514 960 l 514 271 q 441 62 514 132 q 224 -8 368 -8 m 279 1031 q 252 1035 261 1031 q 243 1047 243 1040 q 249 1062 243 1054 q 269 1081 256 1069 l 374 1165 q 393 1178 383 1174 q 417 1184 403 1182 q 451 1186 431 1186 q 486 1184 472 1186 q 510 1178 500 1182 q 529 1165 519 1174 l 633 1081 q 654 1062 649 1069 q 660 1047 660 1054 q 651 1035 660 1040 q 624 1031 642 1031 q 599 1035 610 1031 q 572 1046 588 1039 l 451 1101 l 332 1046 q 306 1035 318 1039 q 279 1031 294 1031 z "},"K":{"ha":931,"x_min":160,"x_max":950,"o":"m 217 -3 q 173 6 186 -3 q 160 28 160 14 l 160 944 q 173 967 160 960 q 217 975 186 975 l 228 975 q 272 967 260 975 q 285 944 285 960 l 285 533 l 290 533 l 728 947 q 763 971 747 967 q 810 975 779 975 l 828 975 q 865 970 851 975 q 878 954 878 965 q 875 941 878 949 q 857 919 872 933 l 388 479 l 388 511 l 924 50 q 947 28 943 35 q 950 17 950 21 q 935 1 950 6 q 889 -3 921 -3 l 864 -3 q 819 2 835 -3 q 782 25 803 7 l 290 449 l 285 449 l 285 28 q 272 6 285 14 q 228 -3 260 -3 l 217 -3 z "},"Ķ":{"ha":931,"x_min":160,"x_max":950,"o":"m 217 -3 q 173 6 186 -3 q 160 28 160 14 l 160 944 q 173 967 160 960 q 217 975 186 975 l 228 975 q 272 967 260 975 q 285 944 285 960 l 285 533 l 290 533 l 728 947 q 763 971 747 967 q 810 975 779 975 l 828 975 q 865 970 851 975 q 878 954 878 965 q 875 941 878 949 q 857 919 872 933 l 388 479 l 388 511 l 924 50 q 947 28 943 35 q 950 17 950 21 q 935 1 950 6 q 889 -3 921 -3 l 864 -3 q 819 2 835 -3 q 782 25 803 7 l 290 449 l 285 449 l 285 28 q 272 6 285 14 q 228 -3 260 -3 l 217 -3 m 433 -312 q 410 -308 424 -312 q 397 -292 397 -304 q 406 -265 397 -281 q 425 -228 414 -250 q 444 -176 436 -207 q 453 -106 453 -146 q 466 -79 453 -87 q 508 -71 479 -71 q 564 -106 564 -71 q 540 -212 564 -165 q 485 -286 517 -260 q 433 -312 454 -312 z "},"L":{"ha":806,"x_min":160,"x_max":792,"o":"m 203 0 q 160 42 160 0 l 160 944 q 173 967 160 960 q 217 975 186 975 l 228 975 q 272 967 260 975 q 285 944 285 960 l 285 106 l 764 106 q 792 64 792 106 l 792 42 q 764 0 792 0 l 203 0 z "},"Ǉ":{"ha":1208,"x_min":160,"x_max":1056,"o":"m 765 -250 q 688 -242 732 -250 q 610 -220 643 -235 q 576 -187 576 -206 q 579 -170 576 -182 q 587 -146 582 -158 q 599 -124 592 -133 q 614 -115 606 -115 q 643 -122 626 -115 q 689 -135 660 -128 q 765 -142 718 -142 q 892 -101 853 -142 q 931 29 931 -61 l 931 944 q 944 967 931 960 q 988 975 957 975 l 999 975 q 1043 967 1031 975 q 1056 944 1056 960 l 1056 29 q 983 -180 1056 -110 q 765 -250 911 -250 m 203 0 q 160 42 160 0 l 160 944 q 173 967 160 960 q 217 975 186 975 l 228 975 q 272 967 260 975 q 285 944 285 960 l 285 106 l 667 106 q 694 64 694 106 l 694 42 q 667 0 694 0 l 203 0 z "},"Ĺ":{"ha":806,"x_min":103,"x_max":792,"o":"m 203 0 q 160 42 160 0 l 160 944 q 173 967 160 960 q 217 975 186 975 l 228 975 q 272 967 260 975 q 285 944 285 960 l 285 106 l 764 106 q 792 64 792 106 l 792 42 q 764 0 792 0 l 203 0 m 139 1044 q 113 1049 122 1044 q 103 1063 103 1054 q 106 1075 103 1068 q 118 1089 108 1082 l 221 1168 q 263 1192 242 1183 q 326 1200 283 1200 q 379 1194 358 1200 q 400 1175 400 1188 q 392 1151 400 1164 q 344 1119 385 1139 l 249 1074 q 196 1052 218 1060 q 139 1044 174 1044 z "},"Ľ":{"ha":806,"x_min":160,"x_max":792,"o":"m 203 0 q 160 42 160 0 l 160 944 q 173 967 160 960 q 217 975 186 975 l 228 975 q 272 967 260 975 q 285 944 285 960 l 285 106 l 764 106 q 792 64 792 106 l 792 42 q 764 0 792 0 l 203 0 m 488 733 q 465 738 478 733 q 451 754 451 742 q 462 792 451 769 q 483 850 472 814 q 493 940 493 886 q 506 967 493 958 q 549 975 519 975 q 604 940 604 975 q 583 833 604 881 q 534 760 561 786 q 488 733 507 733 z "},"Ļ":{"ha":806,"x_min":160,"x_max":792,"o":"m 203 0 q 160 42 160 0 l 160 944 q 173 967 160 960 q 217 975 186 975 l 228 975 q 272 967 260 975 q 285 944 285 960 l 285 106 l 764 106 q 792 64 792 106 l 792 42 q 764 0 792 0 l 203 0 m 413 -312 q 390 -308 403 -312 q 376 -292 376 -304 q 385 -265 376 -281 q 404 -228 393 -250 q 424 -176 415 -207 q 432 -106 432 -146 q 445 -79 432 -87 q 488 -71 458 -71 q 543 -106 543 -71 q 519 -212 543 -165 q 465 -286 496 -260 q 413 -312 433 -312 z "},"Ŀ":{"ha":806,"x_min":160,"x_max":792,"o":"m 203 0 q 160 42 160 0 l 160 944 q 173 967 160 960 q 217 975 186 975 l 228 975 q 272 967 260 975 q 285 944 285 960 l 285 106 l 764 106 q 792 64 792 106 l 792 42 q 764 0 792 0 l 203 0 m 624 394 q 573 415 593 394 q 553 465 553 435 q 573 517 553 496 q 624 538 593 538 q 675 517 654 538 q 696 465 696 496 q 675 415 696 435 q 624 394 654 394 z "},"ǈ":{"ha":1208,"x_min":160,"x_max":1075,"o":"m 203 0 q 160 42 160 0 l 160 944 q 173 967 160 960 q 217 975 186 975 l 228 975 q 272 967 260 975 q 285 944 285 960 l 285 106 l 764 106 q 792 64 792 106 l 792 42 q 764 0 792 0 l 203 0 m 881 -294 q 806 -287 844 -294 q 742 -266 768 -279 q 715 -237 715 -253 q 717 -221 715 -232 q 721 -197 718 -210 q 728 -176 724 -185 q 740 -168 733 -168 q 782 -178 751 -168 q 856 -189 813 -189 q 932 -170 908 -189 q 956 -94 956 -151 l 956 699 q 967 722 956 714 q 1010 729 979 729 l 1021 729 q 1063 722 1051 729 q 1075 699 1075 714 l 1075 -108 q 1052 -211 1075 -169 q 986 -274 1029 -253 q 881 -294 943 -294 m 1013 826 q 965 835 979 826 q 951 857 951 843 l 951 940 q 965 963 951 954 q 1013 971 979 971 q 1060 963 1046 971 q 1074 940 1074 956 l 1074 857 q 1060 835 1074 843 q 1013 826 1046 826 z "},"Ł":{"ha":806,"x_min":0,"x_max":792,"o":"m 11 351 q 3 358 7 351 q 0 381 0 365 q 4 409 0 399 q 26 426 8 419 l 471 608 q 488 615 482 614 q 496 617 493 617 q 503 610 500 617 q 507 588 507 603 q 503 560 507 571 q 481 542 499 549 l 36 360 q 19 353 25 354 q 11 351 14 351 m 203 0 q 160 42 160 0 l 160 944 q 173 967 160 960 q 217 975 186 975 l 228 975 q 272 967 260 975 q 285 944 285 960 l 285 106 l 764 106 q 792 64 792 106 l 792 42 q 764 0 792 0 l 203 0 z "},"M":{"ha":1389,"x_min":160,"x_max":1229,"o":"m 217 -3 q 173 6 186 -3 q 160 28 160 14 l 160 944 q 173 967 160 960 q 217 975 186 975 l 251 975 q 303 968 286 975 q 333 940 319 961 l 660 457 q 681 423 671 442 q 697 392 692 404 q 715 423 703 403 q 739 461 726 443 l 1064 940 q 1094 968 1078 961 q 1142 975 1110 975 l 1172 975 q 1217 967 1204 975 q 1229 944 1229 960 l 1229 28 q 1217 6 1229 14 q 1172 -3 1204 -3 l 1161 -3 q 1117 6 1131 -3 q 1104 28 1104 14 l 1104 724 q 1105 763 1104 743 q 1107 800 1106 782 l 1101 801 q 1083 767 1096 788 q 1058 729 1071 747 l 774 310 q 743 278 756 285 q 701 271 731 271 l 690 271 q 649 278 661 271 q 618 310 636 285 l 329 738 q 305 777 317 757 q 288 810 293 797 l 282 808 q 284 769 283 790 q 285 718 285 749 l 285 28 q 272 6 285 14 q 228 -3 260 -3 l 217 -3 z "},"N":{"ha":1181,"x_min":160,"x_max":1021,"o":"m 217 -3 q 173 6 186 -3 q 160 28 160 14 l 160 944 q 173 967 160 960 q 217 975 186 975 l 251 975 q 281 972 269 975 q 303 964 293 969 q 319 949 313 958 l 854 235 q 875 206 864 222 q 893 174 886 189 l 899 175 q 897 205 897 186 q 896 242 896 224 l 896 944 q 909 967 896 960 q 953 975 922 975 l 964 975 q 1008 967 996 975 q 1021 944 1021 960 l 1021 28 q 1008 6 1021 14 q 964 -3 996 -3 l 931 -3 q 898 0 911 -3 q 876 8 885 3 q 861 22 868 14 l 318 746 q 301 770 311 756 q 285 799 292 785 l 279 797 q 283 765 282 783 q 285 731 285 746 l 285 28 q 272 6 285 14 q 228 -3 260 -3 l 217 -3 z "},"Ǌ":{"ha":1847,"x_min":160,"x_max":1694,"o":"m 217 -3 q 173 6 186 -3 q 160 28 160 14 l 160 944 q 173 967 160 960 q 217 975 186 975 l 251 975 q 281 972 269 975 q 303 964 293 969 q 319 949 313 958 l 854 235 q 875 206 864 222 q 893 174 886 189 l 899 175 q 897 205 897 186 q 896 242 896 224 l 896 944 q 909 967 896 960 q 953 975 922 975 l 964 975 q 1008 967 996 975 q 1021 944 1021 960 l 1021 28 q 1008 6 1021 14 q 964 -3 996 -3 l 931 -3 q 898 0 911 -3 q 876 8 885 3 q 861 22 868 14 l 318 746 q 301 770 311 756 q 285 799 292 785 l 279 797 q 283 765 282 783 q 285 731 285 746 l 285 28 q 272 6 285 14 q 228 -3 260 -3 l 217 -3 m 1404 -8 q 1326 -1 1371 -8 q 1249 22 1282 7 q 1215 54 1215 36 q 1218 72 1215 60 q 1226 96 1221 83 q 1238 117 1231 108 q 1253 126 1244 126 q 1282 120 1265 126 q 1328 107 1299 114 q 1404 100 1357 100 q 1531 140 1492 100 q 1569 271 1569 181 l 1569 944 q 1583 967 1569 960 q 1626 975 1596 975 l 1638 975 q 1682 967 1669 975 q 1694 944 1694 960 l 1694 271 q 1622 62 1694 132 q 1404 -8 1549 -8 z "},"Ń":{"ha":1181,"x_min":160,"x_max":1021,"o":"m 217 -3 q 173 6 186 -3 q 160 28 160 14 l 160 944 q 173 967 160 960 q 217 975 186 975 l 251 975 q 281 972 269 975 q 303 964 293 969 q 319 949 313 958 l 854 235 q 875 206 864 222 q 893 174 886 189 l 899 175 q 897 205 897 186 q 896 242 896 224 l 896 944 q 909 967 896 960 q 953 975 922 975 l 964 975 q 1008 967 996 975 q 1021 944 1021 960 l 1021 28 q 1008 6 1021 14 q 964 -3 996 -3 l 931 -3 q 898 0 911 -3 q 876 8 885 3 q 861 22 868 14 l 318 746 q 301 770 311 756 q 285 799 292 785 l 279 797 q 283 765 282 783 q 285 731 285 746 l 285 28 q 272 6 285 14 q 228 -3 260 -3 l 217 -3 m 507 1044 q 481 1049 490 1044 q 471 1063 471 1054 q 474 1075 471 1068 q 486 1089 476 1082 l 589 1168 q 631 1192 610 1183 q 694 1200 651 1200 q 747 1194 726 1200 q 768 1175 768 1188 q 760 1151 768 1164 q 713 1119 753 1139 l 617 1074 q 564 1052 586 1060 q 507 1044 542 1044 z "},"Ň":{"ha":1181,"x_min":160,"x_max":1021,"o":"m 217 -3 q 173 6 186 -3 q 160 28 160 14 l 160 944 q 173 967 160 960 q 217 975 186 975 l 251 975 q 281 972 269 975 q 303 964 293 969 q 319 949 313 958 l 854 235 q 875 206 864 222 q 893 174 886 189 l 899 175 q 897 205 897 186 q 896 242 896 224 l 896 944 q 909 967 896 960 q 953 975 922 975 l 964 975 q 1008 967 996 975 q 1021 944 1021 960 l 1021 28 q 1008 6 1021 14 q 964 -3 996 -3 l 931 -3 q 898 0 911 -3 q 876 8 885 3 q 861 22 868 14 l 318 746 q 301 770 311 756 q 285 799 292 785 l 279 797 q 283 765 282 783 q 285 731 285 746 l 285 28 q 272 6 285 14 q 228 -3 260 -3 l 217 -3 m 763 1186 q 790 1181 781 1186 q 799 1169 799 1176 q 793 1155 799 1163 q 772 1136 788 1147 l 668 1051 q 649 1040 658 1044 q 625 1033 639 1035 q 590 1031 611 1031 q 556 1033 569 1031 q 532 1040 542 1035 q 513 1051 522 1044 l 408 1136 q 388 1155 394 1147 q 382 1169 382 1163 q 391 1181 382 1176 q 418 1186 400 1186 q 444 1182 433 1186 q 469 1171 456 1178 l 590 1115 l 710 1171 q 737 1182 725 1178 q 763 1186 749 1186 z "},"Ņ":{"ha":1181,"x_min":160,"x_max":1021,"o":"m 217 -3 q 173 6 186 -3 q 160 28 160 14 l 160 944 q 173 967 160 960 q 217 975 186 975 l 251 975 q 281 972 269 975 q 303 964 293 969 q 319 949 313 958 l 854 235 q 875 206 864 222 q 893 174 886 189 l 899 175 q 897 205 897 186 q 896 242 896 224 l 896 944 q 909 967 896 960 q 953 975 922 975 l 964 975 q 1008 967 996 975 q 1021 944 1021 960 l 1021 28 q 1008 6 1021 14 q 964 -3 996 -3 l 931 -3 q 898 0 911 -3 q 876 8 885 3 q 861 22 868 14 l 318 746 q 301 770 311 756 q 285 799 292 785 l 279 797 q 283 765 282 783 q 285 731 285 746 l 285 28 q 272 6 285 14 q 228 -3 260 -3 l 217 -3 m 515 -312 q 492 -308 506 -312 q 479 -292 479 -304 q 488 -265 479 -281 q 507 -228 496 -250 q 526 -176 518 -207 q 535 -106 535 -146 q 548 -79 535 -87 q 590 -71 561 -71 q 646 -106 646 -71 q 622 -212 646 -165 q 567 -286 599 -260 q 515 -312 536 -312 z "},"Ṅ":{"ha":1181,"x_min":160,"x_max":1021,"o":"m 217 -3 q 173 6 186 -3 q 160 28 160 14 l 160 944 q 173 967 160 960 q 217 975 186 975 l 251 975 q 281 972 269 975 q 303 964 293 969 q 319 949 313 958 l 854 235 q 875 206 864 222 q 893 174 886 189 l 899 175 q 897 205 897 186 q 896 242 896 224 l 896 944 q 909 967 896 960 q 953 975 922 975 l 964 975 q 1008 967 996 975 q 1021 944 1021 960 l 1021 28 q 1008 6 1021 14 q 964 -3 996 -3 l 931 -3 q 898 0 911 -3 q 876 8 885 3 q 861 22 868 14 l 318 746 q 301 770 311 756 q 285 799 292 785 l 279 797 q 283 765 282 783 q 285 731 285 746 l 285 28 q 272 6 285 14 q 228 -3 260 -3 l 217 -3 m 590 1051 q 542 1060 556 1051 q 528 1082 528 1068 l 528 1165 q 542 1188 528 1179 q 590 1196 556 1196 q 639 1188 625 1196 q 653 1165 653 1181 l 653 1082 q 639 1060 653 1068 q 590 1051 625 1051 z "},"Ɲ":{"ha":1181,"x_min":-81,"x_max":1021,"o":"m 85 -294 q 10 -287 49 -294 q -54 -266 -28 -279 q -81 -237 -81 -253 q -79 -221 -81 -232 q -75 -197 -78 -210 q -67 -176 -72 -185 q -56 -168 -62 -168 q -14 -178 -44 -168 q 60 -189 17 -189 q 136 -170 113 -189 q 160 -94 160 -151 l 160 944 q 173 967 160 960 q 217 975 186 975 l 251 975 q 281 972 269 975 q 303 964 293 969 q 319 949 313 958 l 854 235 q 875 206 864 222 q 893 174 886 189 l 899 175 q 897 205 897 186 q 896 242 896 224 l 896 944 q 909 967 896 960 q 953 975 922 975 l 964 975 q 1008 967 996 975 q 1021 944 1021 960 l 1021 28 q 1008 6 1021 14 q 964 -3 996 -3 l 931 -3 q 898 0 911 -3 q 876 8 885 3 q 861 22 868 14 l 318 746 q 301 770 311 756 q 285 799 292 785 l 279 797 q 283 765 282 783 q 285 731 285 746 l 285 -108 q 261 -211 285 -169 q 193 -274 238 -253 q 85 -294 149 -294 z "},"ǋ":{"ha":1583,"x_min":160,"x_max":1450,"o":"m 217 -3 q 173 6 186 -3 q 160 28 160 14 l 160 944 q 173 967 160 960 q 217 975 186 975 l 251 975 q 281 972 269 975 q 303 964 293 969 q 319 949 313 958 l 854 235 q 875 206 864 222 q 893 174 886 189 l 899 175 q 897 205 897 186 q 896 242 896 224 l 896 944 q 909 967 896 960 q 953 975 922 975 l 964 975 q 1008 967 996 975 q 1021 944 1021 960 l 1021 28 q 1008 6 1021 14 q 964 -3 996 -3 l 931 -3 q 898 0 911 -3 q 876 8 885 3 q 861 22 868 14 l 318 746 q 301 770 311 756 q 285 799 292 785 l 279 797 q 283 765 282 783 q 285 731 285 746 l 285 28 q 272 6 285 14 q 228 -3 260 -3 l 217 -3 m 1256 -294 q 1181 -287 1219 -294 q 1117 -266 1143 -279 q 1090 -237 1090 -253 q 1092 -221 1090 -232 q 1096 -197 1093 -210 q 1103 -176 1099 -185 q 1115 -168 1108 -168 q 1157 -178 1126 -168 q 1231 -189 1188 -189 q 1307 -170 1283 -189 q 1331 -94 1331 -151 l 1331 699 q 1342 722 1331 714 q 1385 729 1354 729 l 1396 729 q 1438 722 1426 729 q 1450 699 1450 714 l 1450 -108 q 1427 -211 1450 -169 q 1361 -274 1404 -253 q 1256 -294 1318 -294 m 1388 826 q 1340 835 1354 826 q 1326 857 1326 843 l 1326 940 q 1340 963 1326 954 q 1388 971 1354 971 q 1435 963 1421 971 q 1449 940 1449 956 l 1449 857 q 1435 835 1449 843 q 1388 826 1421 826 z "},"Ñ":{"ha":1181,"x_min":160,"x_max":1021,"o":"m 217 -3 q 173 6 186 -3 q 160 28 160 14 l 160 944 q 173 967 160 960 q 217 975 186 975 l 251 975 q 281 972 269 975 q 303 964 293 969 q 319 949 313 958 l 854 235 q 875 206 864 222 q 893 174 886 189 l 899 175 q 897 205 897 186 q 896 242 896 224 l 896 944 q 909 967 896 960 q 953 975 922 975 l 964 975 q 1008 967 996 975 q 1021 944 1021 960 l 1021 28 q 1008 6 1021 14 q 964 -3 996 -3 l 931 -3 q 898 0 911 -3 q 876 8 885 3 q 861 22 868 14 l 318 746 q 301 770 311 756 q 285 799 292 785 l 279 797 q 283 765 282 783 q 285 731 285 746 l 285 28 q 272 6 285 14 q 228 -3 260 -3 l 217 -3 m 383 1046 q 367 1049 378 1046 q 349 1058 357 1053 q 340 1071 340 1064 q 342 1081 340 1076 q 344 1092 343 1086 q 401 1163 368 1143 q 467 1182 435 1182 q 557 1169 511 1182 q 644 1144 603 1157 q 717 1131 686 1131 q 758 1145 744 1131 q 779 1174 772 1160 q 794 1188 786 1188 q 823 1179 806 1188 q 840 1163 840 1171 q 838 1148 840 1158 q 825 1118 835 1138 q 785 1068 807 1086 q 714 1050 763 1050 q 619 1063 665 1050 q 532 1089 572 1076 q 460 1101 492 1101 q 423 1088 436 1101 q 401 1060 410 1074 q 383 1046 393 1046 z "},"Ŋ":{"ha":1181,"x_min":160,"x_max":1021,"o":"m 924 -29 l 318 746 q 301 770 311 756 q 285 799 292 785 l 279 797 q 283 765 282 783 q 285 731 285 746 l 285 28 q 272 6 285 14 q 228 -3 260 -3 l 217 -3 q 173 6 186 -3 q 160 28 160 14 l 160 944 q 173 967 160 960 q 217 975 186 975 l 251 975 q 279 972 268 975 q 299 964 290 969 q 315 949 308 958 l 854 257 q 875 228 864 244 q 893 196 886 211 l 899 197 q 897 227 897 208 q 896 264 896 246 l 896 944 q 909 967 896 960 q 953 975 922 975 l 964 975 q 1008 967 996 975 q 1021 944 1021 960 l 1021 28 l 924 -29 m 826 -294 q 752 -287 790 -294 q 688 -266 714 -279 q 661 -237 661 -253 q 663 -221 661 -232 q 667 -197 664 -210 q 674 -176 669 -185 q 686 -168 679 -168 q 728 -178 697 -168 q 801 -189 758 -189 q 878 -170 854 -189 q 901 -94 901 -151 l 901 28 l 1021 28 l 1021 -108 q 998 -211 1021 -169 q 932 -274 975 -253 q 826 -294 889 -294 z "},"O":{"ha":1218,"x_min":69,"x_max":1149,"o":"m 608 -8 q 206 118 343 -8 q 69 489 69 244 q 206 856 69 732 q 608 981 343 981 q 1012 856 875 981 q 1149 489 1149 732 q 1012 118 1149 244 q 608 -8 875 -8 m 608 97 q 917 192 813 97 q 1022 489 1022 286 q 917 783 1022 690 q 608 875 813 875 q 301 783 406 875 q 196 489 196 690 q 301 192 196 286 q 608 97 406 97 z "},"Ó":{"ha":1218,"x_min":69,"x_max":1149,"o":"m 608 -8 q 206 118 343 -8 q 69 489 69 244 q 206 856 69 732 q 608 981 343 981 q 1012 856 875 981 q 1149 489 1149 732 q 1012 118 1149 244 q 608 -8 875 -8 m 608 97 q 917 192 813 97 q 1022 489 1022 286 q 917 783 1022 690 q 608 875 813 875 q 301 783 406 875 q 196 489 196 690 q 301 192 196 286 q 608 97 406 97 m 525 1044 q 499 1049 508 1044 q 489 1063 489 1054 q 492 1075 489 1068 q 504 1089 494 1082 l 607 1168 q 649 1192 628 1183 q 713 1200 669 1200 q 765 1194 744 1200 q 786 1175 786 1188 q 778 1151 786 1164 q 731 1119 771 1139 l 635 1074 q 582 1052 604 1060 q 525 1044 560 1044 z "},"Ŏ":{"ha":1218,"x_min":69,"x_max":1149,"o":"m 608 -8 q 206 118 343 -8 q 69 489 69 244 q 206 856 69 732 q 608 981 343 981 q 1012 856 875 981 q 1149 489 1149 732 q 1012 118 1149 244 q 608 -8 875 -8 m 608 97 q 917 192 813 97 q 1022 489 1022 286 q 917 783 1022 690 q 608 875 813 875 q 301 783 406 875 q 196 489 196 690 q 301 192 196 286 q 608 97 406 97 m 608 1033 q 504 1053 549 1033 q 435 1105 460 1072 q 411 1179 411 1138 q 417 1206 411 1199 q 438 1214 424 1214 q 454 1209 449 1214 q 465 1192 460 1204 q 515 1142 476 1158 q 608 1125 553 1125 q 700 1142 661 1125 q 751 1192 739 1158 q 781 1214 761 1214 q 799 1206 793 1214 q 804 1179 804 1199 q 780 1105 804 1138 q 712 1053 756 1072 q 608 1033 668 1033 z "},"Ǒ":{"ha":1218,"x_min":69,"x_max":1149,"o":"m 608 -8 q 206 118 343 -8 q 69 489 69 244 q 206 856 69 732 q 608 981 343 981 q 1012 856 875 981 q 1149 489 1149 732 q 1012 118 1149 244 q 608 -8 875 -8 m 608 97 q 917 192 813 97 q 1022 489 1022 286 q 917 783 1022 690 q 608 875 813 875 q 301 783 406 875 q 196 489 196 690 q 301 192 196 286 q 608 97 406 97 m 781 1186 q 808 1181 799 1186 q 817 1169 817 1176 q 811 1155 817 1163 q 790 1136 806 1147 l 686 1051 q 667 1040 676 1044 q 643 1033 657 1035 q 608 1031 629 1031 q 574 1033 588 1031 q 550 1040 560 1035 q 531 1051 540 1044 l 426 1136 q 406 1155 413 1147 q 400 1169 400 1163 q 409 1181 400 1176 q 436 1186 418 1186 q 463 1182 451 1186 q 488 1171 474 1178 l 608 1115 l 728 1171 q 755 1182 743 1178 q 781 1186 767 1186 z "},"Ô":{"ha":1218,"x_min":69,"x_max":1149,"o":"m 608 -8 q 206 118 343 -8 q 69 489 69 244 q 206 856 69 732 q 608 981 343 981 q 1012 856 875 981 q 1149 489 1149 732 q 1012 118 1149 244 q 608 -8 875 -8 m 608 97 q 917 192 813 97 q 1022 489 1022 286 q 917 783 1022 690 q 608 875 813 875 q 301 783 406 875 q 196 489 196 690 q 301 192 196 286 q 608 97 406 97 m 436 1031 q 409 1035 418 1031 q 400 1047 400 1040 q 406 1062 400 1054 q 426 1081 413 1069 l 531 1165 q 550 1178 540 1174 q 574 1184 560 1182 q 608 1186 588 1186 q 643 1184 629 1186 q 667 1178 657 1182 q 686 1165 676 1174 l 790 1081 q 811 1062 806 1069 q 817 1047 817 1054 q 808 1035 817 1040 q 781 1031 799 1031 q 756 1035 767 1031 q 729 1046 744 1039 l 608 1101 l 489 1046 q 463 1035 475 1039 q 436 1031 451 1031 z "},"Ố":{"ha":1218,"x_min":69,"x_max":1149,"o":"m 608 -8 q 206 118 343 -8 q 69 489 69 244 q 206 856 69 732 q 608 981 343 981 q 1012 856 875 981 q 1149 489 1149 732 q 1012 118 1149 244 q 608 -8 875 -8 m 608 97 q 917 192 813 97 q 1022 489 1022 286 q 917 783 1022 690 q 608 875 813 875 q 301 783 406 875 q 196 489 196 690 q 301 192 196 286 q 608 97 406 97 m 436 1031 q 409 1035 418 1031 q 400 1047 400 1040 q 406 1062 400 1054 q 426 1081 413 1069 l 531 1165 q 550 1178 540 1174 q 574 1184 560 1182 q 608 1186 588 1186 q 643 1184 629 1186 q 667 1178 657 1182 q 686 1165 676 1174 l 790 1081 q 811 1062 806 1069 q 817 1047 817 1054 q 808 1035 817 1040 q 781 1031 799 1031 q 756 1035 767 1031 q 729 1046 744 1039 l 608 1101 l 489 1046 q 463 1035 475 1039 q 436 1031 451 1031 m 525 1235 q 499 1240 508 1235 q 489 1253 489 1244 q 492 1265 489 1258 q 504 1279 494 1272 l 607 1358 q 649 1382 628 1374 q 713 1390 669 1390 q 765 1384 744 1390 q 786 1365 786 1378 q 778 1342 786 1354 q 731 1310 771 1329 l 635 1264 q 582 1242 604 1250 q 525 1235 560 1235 z "},"Ộ":{"ha":1218,"x_min":69,"x_max":1149,"o":"m 608 -8 q 206 118 343 -8 q 69 489 69 244 q 206 856 69 732 q 608 981 343 981 q 1012 856 875 981 q 1149 489 1149 732 q 1012 118 1149 244 q 608 -8 875 -8 m 608 97 q 917 192 813 97 q 1022 489 1022 286 q 917 783 1022 690 q 608 875 813 875 q 301 783 406 875 q 196 489 196 690 q 301 192 196 286 q 608 97 406 97 m 610 -243 q 565 -235 579 -243 q 550 -212 550 -228 l 550 -142 q 565 -119 550 -126 q 610 -111 579 -111 q 656 -119 642 -111 q 669 -142 669 -126 l 669 -212 q 656 -235 669 -228 q 610 -243 642 -243 m 436 1031 q 409 1035 418 1031 q 400 1047 400 1040 q 406 1062 400 1054 q 426 1081 413 1069 l 531 1165 q 550 1178 540 1174 q 574 1184 560 1182 q 608 1186 588 1186 q 643 1184 629 1186 q 667 1178 657 1182 q 686 1165 676 1174 l 790 1081 q 811 1062 806 1069 q 817 1047 817 1054 q 808 1035 817 1040 q 781 1031 799 1031 q 756 1035 767 1031 q 729 1046 744 1039 l 608 1101 l 489 1046 q 463 1035 475 1039 q 436 1031 451 1031 z "},"Ồ":{"ha":1218,"x_min":69,"x_max":1149,"o":"m 608 -8 q 206 118 343 -8 q 69 489 69 244 q 206 856 69 732 q 608 981 343 981 q 1012 856 875 981 q 1149 489 1149 732 q 1012 118 1149 244 q 608 -8 875 -8 m 608 97 q 917 192 813 97 q 1022 489 1022 286 q 917 783 1022 690 q 608 875 813 875 q 301 783 406 875 q 196 489 196 690 q 301 192 196 286 q 608 97 406 97 m 436 1031 q 409 1035 418 1031 q 400 1047 400 1040 q 406 1062 400 1054 q 426 1081 413 1069 l 531 1165 q 550 1178 540 1174 q 574 1184 560 1182 q 608 1186 588 1186 q 643 1184 629 1186 q 667 1178 657 1182 q 686 1165 676 1174 l 790 1081 q 811 1062 806 1069 q 817 1047 817 1054 q 808 1035 817 1040 q 781 1031 799 1031 q 756 1035 767 1031 q 729 1046 744 1039 l 608 1101 l 489 1046 q 463 1035 475 1039 q 436 1031 451 1031 m 692 1235 q 635 1242 657 1235 q 582 1264 614 1250 l 486 1310 q 439 1342 447 1329 q 431 1365 431 1354 q 451 1384 431 1378 q 504 1390 472 1390 q 569 1382 549 1390 q 610 1358 589 1374 l 713 1279 q 725 1265 722 1272 q 728 1253 728 1258 q 718 1240 728 1244 q 692 1235 708 1235 z "},"Ổ":{"ha":1218,"x_min":69,"x_max":1149,"o":"m 608 -8 q 206 118 343 -8 q 69 489 69 244 q 206 856 69 732 q 608 981 343 981 q 1012 856 875 981 q 1149 489 1149 732 q 1012 118 1149 244 q 608 -8 875 -8 m 608 97 q 917 192 813 97 q 1022 489 1022 286 q 917 783 1022 690 q 608 875 813 875 q 301 783 406 875 q 196 489 196 690 q 301 192 196 286 q 608 97 406 97 m 436 1031 q 409 1035 418 1031 q 400 1047 400 1040 q 406 1062 400 1054 q 426 1081 413 1069 l 531 1165 q 550 1178 540 1174 q 574 1184 560 1182 q 608 1186 588 1186 q 643 1184 629 1186 q 667 1178 657 1182 q 686 1165 676 1174 l 790 1081 q 811 1062 806 1069 q 817 1047 817 1054 q 808 1035 817 1040 q 781 1031 799 1031 q 756 1035 767 1031 q 729 1046 744 1039 l 608 1101 l 489 1046 q 463 1035 475 1039 q 436 1031 451 1031 m 596 1218 q 575 1231 586 1218 q 564 1253 564 1243 q 579 1267 564 1258 q 615 1288 594 1276 q 651 1313 636 1299 q 667 1344 667 1328 q 645 1371 667 1363 q 593 1379 624 1379 q 533 1367 557 1379 q 503 1354 510 1354 q 490 1363 497 1354 q 476 1382 482 1371 q 469 1400 469 1393 q 489 1420 469 1408 q 540 1441 508 1432 q 603 1450 571 1450 q 667 1442 633 1450 q 725 1415 701 1435 q 749 1358 749 1394 q 729 1301 749 1328 q 683 1257 710 1275 q 631 1228 656 1239 q 596 1218 607 1218 z "},"Ỗ":{"ha":1218,"x_min":69,"x_max":1149,"o":"m 608 -8 q 206 118 343 -8 q 69 489 69 244 q 206 856 69 732 q 608 981 343 981 q 1012 856 875 981 q 1149 489 1149 732 q 1012 118 1149 244 q 608 -8 875 -8 m 608 97 q 917 192 813 97 q 1022 489 1022 286 q 917 783 1022 690 q 608 875 813 875 q 301 783 406 875 q 196 489 196 690 q 301 192 196 286 q 608 97 406 97 m 436 1031 q 409 1035 418 1031 q 400 1047 400 1040 q 406 1062 400 1054 q 426 1081 413 1069 l 531 1165 q 550 1178 540 1174 q 574 1184 560 1182 q 608 1186 588 1186 q 643 1184 629 1186 q 667 1178 657 1182 q 686 1165 676 1174 l 790 1081 q 811 1062 806 1069 q 817 1047 817 1054 q 808 1035 817 1040 q 781 1031 799 1031 q 756 1035 767 1031 q 729 1046 744 1039 l 608 1101 l 489 1046 q 463 1035 475 1039 q 436 1031 451 1031 m 401 1236 q 385 1240 396 1236 q 367 1249 375 1243 q 358 1261 358 1254 q 360 1272 358 1267 q 363 1282 361 1276 q 419 1353 386 1333 q 485 1372 453 1372 q 575 1360 529 1372 q 663 1334 621 1347 q 735 1321 704 1321 q 776 1335 763 1321 q 797 1364 790 1350 q 813 1378 804 1378 q 841 1369 824 1378 q 858 1353 858 1361 q 856 1338 858 1349 q 843 1308 853 1328 q 803 1258 825 1276 q 732 1240 781 1240 q 637 1253 683 1240 q 550 1279 590 1267 q 478 1292 510 1292 q 441 1278 454 1292 q 419 1250 428 1264 q 401 1236 411 1236 z "},"Ȍ":{"ha":1218,"x_min":69,"x_max":1149,"o":"m 608 -8 q 206 118 343 -8 q 69 489 69 244 q 206 856 69 732 q 608 981 343 981 q 1012 856 875 981 q 1149 489 1149 732 q 1012 118 1149 244 q 608 -8 875 -8 m 608 97 q 917 192 813 97 q 1022 489 1022 286 q 917 783 1022 690 q 608 875 813 875 q 301 783 406 875 q 196 489 196 690 q 301 192 196 286 q 608 97 406 97 m 539 1044 q 483 1052 504 1044 q 429 1074 461 1060 l 333 1119 q 286 1151 294 1139 q 278 1175 278 1164 q 299 1194 278 1188 q 351 1200 319 1200 q 416 1192 396 1200 q 457 1168 436 1183 l 560 1089 q 572 1075 569 1082 q 575 1063 575 1068 q 565 1049 575 1054 q 539 1044 556 1044 m 811 1044 q 755 1052 776 1044 q 701 1074 733 1060 l 606 1119 q 558 1151 567 1139 q 550 1175 550 1164 q 571 1194 550 1188 q 624 1200 592 1200 q 688 1192 668 1200 q 729 1168 708 1183 l 832 1089 q 844 1075 842 1082 q 847 1063 847 1068 q 838 1049 847 1054 q 811 1044 828 1044 z "},"Ö":{"ha":1218,"x_min":69,"x_max":1149,"o":"m 608 -8 q 206 118 343 -8 q 69 489 69 244 q 206 856 69 732 q 608 981 343 981 q 1012 856 875 981 q 1149 489 1149 732 q 1012 118 1149 244 q 608 -8 875 -8 m 608 97 q 917 192 813 97 q 1022 489 1022 286 q 917 783 1022 690 q 608 875 813 875 q 301 783 406 875 q 196 489 196 690 q 301 192 196 286 q 608 97 406 97 m 735 1053 q 688 1060 703 1053 q 674 1083 674 1068 l 674 1161 q 688 1184 674 1176 q 735 1192 703 1192 q 781 1184 767 1192 q 796 1161 796 1176 l 796 1083 q 781 1060 796 1068 q 735 1053 767 1053 m 482 1053 q 435 1060 450 1053 q 421 1083 421 1068 l 421 1161 q 435 1184 421 1176 q 482 1192 450 1192 q 528 1184 514 1192 q 543 1161 543 1176 l 543 1083 q 528 1060 543 1068 q 482 1053 514 1053 z "},"Ȫ":{"ha":1218,"x_min":69,"x_max":1149,"o":"m 608 -8 q 206 118 343 -8 q 69 489 69 244 q 206 856 69 732 q 608 981 343 981 q 1012 856 875 981 q 1149 489 1149 732 q 1012 118 1149 244 q 608 -8 875 -8 m 608 97 q 917 192 813 97 q 1022 489 1022 286 q 917 783 1022 690 q 608 875 813 875 q 301 783 406 875 q 196 489 196 690 q 301 192 196 286 q 608 97 406 97 m 735 1053 q 688 1060 703 1053 q 674 1083 674 1068 l 674 1161 q 688 1184 674 1176 q 735 1192 703 1192 q 781 1184 767 1192 q 796 1161 796 1176 l 796 1083 q 781 1060 796 1068 q 735 1053 767 1053 m 482 1053 q 435 1060 450 1053 q 421 1083 421 1068 l 421 1161 q 435 1184 421 1176 q 482 1192 450 1192 q 528 1184 514 1192 q 543 1161 543 1176 l 543 1083 q 528 1060 543 1068 q 482 1053 514 1053 m 426 1272 q 400 1314 400 1272 l 400 1328 q 426 1369 400 1369 l 790 1369 q 817 1328 817 1369 l 817 1314 q 790 1272 817 1272 l 426 1272 z "},"Ȱ":{"ha":1218,"x_min":69,"x_max":1149,"o":"m 608 -8 q 206 118 343 -8 q 69 489 69 244 q 206 856 69 732 q 608 981 343 981 q 1012 856 875 981 q 1149 489 1149 732 q 1012 118 1149 244 q 608 -8 875 -8 m 608 97 q 917 192 813 97 q 1022 489 1022 286 q 917 783 1022 690 q 608 875 813 875 q 301 783 406 875 q 196 489 196 690 q 301 192 196 286 q 608 97 406 97 m 608 1051 q 560 1060 574 1051 q 546 1082 546 1068 l 546 1165 q 560 1188 546 1179 q 608 1196 574 1196 q 657 1188 643 1196 q 671 1165 671 1181 l 671 1082 q 657 1060 671 1068 q 608 1051 643 1051 m 426 1272 q 400 1314 400 1272 l 400 1328 q 426 1369 400 1369 l 790 1369 q 817 1328 817 1369 l 817 1314 q 790 1272 817 1272 l 426 1272 z "},"Ọ":{"ha":1218,"x_min":69,"x_max":1149,"o":"m 608 -8 q 206 118 343 -8 q 69 489 69 244 q 206 856 69 732 q 608 981 343 981 q 1012 856 875 981 q 1149 489 1149 732 q 1012 118 1149 244 q 608 -8 875 -8 m 608 97 q 917 192 813 97 q 1022 489 1022 286 q 917 783 1022 690 q 608 875 813 875 q 301 783 406 875 q 196 489 196 690 q 301 192 196 286 q 608 97 406 97 m 610 -243 q 565 -235 579 -243 q 550 -212 550 -228 l 550 -142 q 565 -119 550 -126 q 610 -111 579 -111 q 656 -119 642 -111 q 669 -142 669 -126 l 669 -212 q 656 -235 669 -228 q 610 -243 642 -243 z "},"Ò":{"ha":1218,"x_min":69,"x_max":1149,"o":"m 608 -8 q 206 118 343 -8 q 69 489 69 244 q 206 856 69 732 q 608 981 343 981 q 1012 856 875 981 q 1149 489 1149 732 q 1012 118 1149 244 q 608 -8 875 -8 m 608 97 q 917 192 813 97 q 1022 489 1022 286 q 917 783 1022 690 q 608 875 813 875 q 301 783 406 875 q 196 489 196 690 q 301 192 196 286 q 608 97 406 97 m 692 1044 q 635 1052 657 1044 q 582 1074 614 1060 l 486 1119 q 439 1151 447 1139 q 431 1175 431 1164 q 451 1194 431 1188 q 504 1200 472 1200 q 569 1192 549 1200 q 610 1168 589 1183 l 713 1089 q 725 1075 722 1082 q 728 1063 728 1068 q 718 1049 728 1054 q 692 1044 708 1044 z "},"Ỏ":{"ha":1218,"x_min":69,"x_max":1149,"o":"m 608 -8 q 206 118 343 -8 q 69 489 69 244 q 206 856 69 732 q 608 981 343 981 q 1012 856 875 981 q 1149 489 1149 732 q 1012 118 1149 244 q 608 -8 875 -8 m 608 97 q 917 192 813 97 q 1022 489 1022 286 q 917 783 1022 690 q 608 875 813 875 q 301 783 406 875 q 196 489 196 690 q 301 192 196 286 q 608 97 406 97 m 596 1028 q 575 1040 586 1028 q 564 1063 564 1053 q 579 1077 564 1068 q 615 1097 594 1086 q 651 1123 636 1108 q 667 1154 667 1138 q 645 1181 667 1172 q 593 1189 624 1189 q 533 1176 557 1189 q 503 1164 510 1164 q 490 1172 497 1164 q 476 1192 482 1181 q 469 1210 469 1203 q 489 1230 469 1218 q 540 1251 508 1242 q 603 1260 571 1260 q 667 1252 633 1260 q 725 1224 701 1244 q 749 1168 749 1204 q 729 1111 749 1138 q 683 1067 710 1085 q 631 1038 656 1049 q 596 1028 607 1028 z "},"Ơ":{"ha":1218,"x_min":69,"x_max":1149,"o":"m 608 -8 q 206 118 343 -8 q 69 489 69 244 q 206 856 69 732 q 608 981 343 981 q 1012 856 875 981 q 1149 489 1149 732 q 1012 118 1149 244 q 608 -8 875 -8 m 608 97 q 917 192 813 97 q 1022 489 1022 286 q 917 783 1022 690 q 608 875 813 875 q 301 783 406 875 q 196 489 196 690 q 301 192 196 286 q 608 97 406 97 m 807 892 l 807 944 l 876 944 q 926 959 917 944 q 936 990 936 974 q 928 1030 936 1013 q 911 1061 919 1047 q 903 1083 903 1075 q 915 1104 903 1094 q 941 1120 926 1114 q 964 1126 956 1126 q 992 1109 979 1126 q 1013 1068 1006 1092 q 1021 1024 1021 1044 q 992 928 1021 965 q 876 892 963 892 l 807 892 z "},"Ớ":{"ha":1218,"x_min":69,"x_max":1149,"o":"m 608 -8 q 206 118 343 -8 q 69 489 69 244 q 206 856 69 732 q 608 981 343 981 q 1012 856 875 981 q 1149 489 1149 732 q 1012 118 1149 244 q 608 -8 875 -8 m 608 97 q 917 192 813 97 q 1022 489 1022 286 q 917 783 1022 690 q 608 875 813 875 q 301 783 406 875 q 196 489 196 690 q 301 192 196 286 q 608 97 406 97 m 807 892 l 807 944 l 876 944 q 926 959 917 944 q 936 990 936 974 q 928 1030 936 1013 q 911 1061 919 1047 q 903 1083 903 1075 q 915 1104 903 1094 q 941 1120 926 1114 q 964 1126 956 1126 q 992 1109 979 1126 q 1013 1068 1006 1092 q 1021 1024 1021 1044 q 992 928 1021 965 q 876 892 963 892 l 807 892 m 525 1044 q 499 1049 508 1044 q 489 1063 489 1054 q 492 1075 489 1068 q 504 1089 494 1082 l 607 1168 q 649 1192 628 1183 q 713 1200 669 1200 q 765 1194 744 1200 q 786 1175 786 1188 q 778 1151 786 1164 q 731 1119 771 1139 l 635 1074 q 582 1052 604 1060 q 525 1044 560 1044 z "},"Ợ":{"ha":1218,"x_min":69,"x_max":1149,"o":"m 608 -8 q 206 118 343 -8 q 69 489 69 244 q 206 856 69 732 q 608 981 343 981 q 1012 856 875 981 q 1149 489 1149 732 q 1012 118 1149 244 q 608 -8 875 -8 m 608 97 q 917 192 813 97 q 1022 489 1022 286 q 917 783 1022 690 q 608 875 813 875 q 301 783 406 875 q 196 489 196 690 q 301 192 196 286 q 608 97 406 97 m 807 892 l 807 944 l 876 944 q 926 959 917 944 q 936 990 936 974 q 928 1030 936 1013 q 911 1061 919 1047 q 903 1083 903 1075 q 915 1104 903 1094 q 941 1120 926 1114 q 964 1126 956 1126 q 992 1109 979 1126 q 1013 1068 1006 1092 q 1021 1024 1021 1044 q 992 928 1021 965 q 876 892 963 892 l 807 892 m 610 -243 q 565 -235 579 -243 q 550 -212 550 -228 l 550 -142 q 565 -119 550 -126 q 610 -111 579 -111 q 656 -119 642 -111 q 669 -142 669 -126 l 669 -212 q 656 -235 669 -228 q 610 -243 642 -243 z "},"Ờ":{"ha":1218,"x_min":69,"x_max":1149,"o":"m 608 -8 q 206 118 343 -8 q 69 489 69 244 q 206 856 69 732 q 608 981 343 981 q 1012 856 875 981 q 1149 489 1149 732 q 1012 118 1149 244 q 608 -8 875 -8 m 608 97 q 917 192 813 97 q 1022 489 1022 286 q 917 783 1022 690 q 608 875 813 875 q 301 783 406 875 q 196 489 196 690 q 301 192 196 286 q 608 97 406 97 m 807 892 l 807 944 l 876 944 q 926 959 917 944 q 936 990 936 974 q 928 1030 936 1013 q 911 1061 919 1047 q 903 1083 903 1075 q 915 1104 903 1094 q 941 1120 926 1114 q 964 1126 956 1126 q 992 1109 979 1126 q 1013 1068 1006 1092 q 1021 1024 1021 1044 q 992 928 1021 965 q 876 892 963 892 l 807 892 m 692 1044 q 635 1052 657 1044 q 582 1074 614 1060 l 486 1119 q 439 1151 447 1139 q 431 1175 431 1164 q 451 1194 431 1188 q 504 1200 472 1200 q 569 1192 549 1200 q 610 1168 589 1183 l 713 1089 q 725 1075 722 1082 q 728 1063 728 1068 q 718 1049 728 1054 q 692 1044 708 1044 z "},"Ở":{"ha":1218,"x_min":69,"x_max":1149,"o":"m 608 -8 q 206 118 343 -8 q 69 489 69 244 q 206 856 69 732 q 608 981 343 981 q 1012 856 875 981 q 1149 489 1149 732 q 1012 118 1149 244 q 608 -8 875 -8 m 608 97 q 917 192 813 97 q 1022 489 1022 286 q 917 783 1022 690 q 608 875 813 875 q 301 783 406 875 q 196 489 196 690 q 301 192 196 286 q 608 97 406 97 m 807 892 l 807 944 l 876 944 q 926 959 917 944 q 936 990 936 974 q 928 1030 936 1013 q 911 1061 919 1047 q 903 1083 903 1075 q 915 1104 903 1094 q 941 1120 926 1114 q 964 1126 956 1126 q 992 1109 979 1126 q 1013 1068 1006 1092 q 1021 1024 1021 1044 q 992 928 1021 965 q 876 892 963 892 l 807 892 m 596 1028 q 575 1040 586 1028 q 564 1063 564 1053 q 579 1077 564 1068 q 615 1097 594 1086 q 651 1123 636 1108 q 667 1154 667 1138 q 645 1181 667 1172 q 593 1189 624 1189 q 533 1176 557 1189 q 503 1164 510 1164 q 490 1172 497 1164 q 476 1192 482 1181 q 469 1210 469 1203 q 489 1230 469 1218 q 540 1251 508 1242 q 603 1260 571 1260 q 667 1252 633 1260 q 725 1224 701 1244 q 749 1168 749 1204 q 729 1111 749 1138 q 683 1067 710 1085 q 631 1038 656 1049 q 596 1028 607 1028 z "},"Ỡ":{"ha":1218,"x_min":69,"x_max":1149,"o":"m 608 -8 q 206 118 343 -8 q 69 489 69 244 q 206 856 69 732 q 608 981 343 981 q 1012 856 875 981 q 1149 489 1149 732 q 1012 118 1149 244 q 608 -8 875 -8 m 608 97 q 917 192 813 97 q 1022 489 1022 286 q 917 783 1022 690 q 608 875 813 875 q 301 783 406 875 q 196 489 196 690 q 301 192 196 286 q 608 97 406 97 m 807 892 l 807 944 l 876 944 q 926 959 917 944 q 936 990 936 974 q 928 1030 936 1013 q 911 1061 919 1047 q 903 1083 903 1075 q 915 1104 903 1094 q 941 1120 926 1114 q 964 1126 956 1126 q 992 1109 979 1126 q 1013 1068 1006 1092 q 1021 1024 1021 1044 q 992 928 1021 965 q 876 892 963 892 l 807 892 m 401 1046 q 385 1049 396 1046 q 367 1058 375 1053 q 358 1071 358 1064 q 360 1081 358 1076 q 363 1092 361 1086 q 419 1163 386 1143 q 485 1182 453 1182 q 575 1169 529 1182 q 663 1144 621 1157 q 735 1131 704 1131 q 776 1145 763 1131 q 797 1174 790 1160 q 813 1188 804 1188 q 841 1179 824 1188 q 858 1163 858 1171 q 856 1148 858 1158 q 843 1118 853 1138 q 803 1068 825 1086 q 732 1050 781 1050 q 637 1063 683 1050 q 550 1089 590 1076 q 478 1101 510 1101 q 441 1088 454 1101 q 419 1060 428 1074 q 401 1046 411 1046 z "},"Ő":{"ha":1218,"x_min":69,"x_max":1149,"o":"m 608 -8 q 206 118 343 -8 q 69 489 69 244 q 206 856 69 732 q 608 981 343 981 q 1012 856 875 981 q 1149 489 1149 732 q 1012 118 1149 244 q 608 -8 875 -8 m 608 97 q 917 192 813 97 q 1022 489 1022 286 q 917 783 1022 690 q 608 875 813 875 q 301 783 406 875 q 196 489 196 690 q 301 192 196 286 q 608 97 406 97 m 419 1044 q 393 1049 403 1044 q 383 1063 383 1054 q 386 1075 383 1068 q 399 1089 389 1082 l 501 1168 q 543 1192 522 1183 q 607 1200 564 1200 q 660 1194 639 1200 q 681 1175 681 1188 q 673 1151 681 1164 q 625 1119 665 1139 l 529 1074 q 476 1052 499 1060 q 419 1044 454 1044 m 692 1044 q 665 1049 675 1044 q 656 1063 656 1054 q 658 1075 656 1068 q 671 1089 661 1082 l 774 1168 q 815 1192 794 1183 q 879 1200 836 1200 q 932 1194 911 1200 q 953 1175 953 1188 q 945 1151 953 1164 q 897 1119 938 1139 l 801 1074 q 749 1052 771 1060 q 692 1044 726 1044 z "},"Ȏ":{"ha":1218,"x_min":69,"x_max":1149,"o":"m 608 -8 q 206 118 343 -8 q 69 489 69 244 q 206 856 69 732 q 608 981 343 981 q 1012 856 875 981 q 1149 489 1149 732 q 1012 118 1149 244 q 608 -8 875 -8 m 608 97 q 917 192 813 97 q 1022 489 1022 286 q 917 783 1022 690 q 608 875 813 875 q 301 783 406 875 q 196 489 196 690 q 301 192 196 286 q 608 97 406 97 m 438 1033 q 417 1042 424 1033 q 411 1068 411 1050 q 435 1143 411 1110 q 504 1195 460 1176 q 608 1214 549 1214 q 712 1195 668 1214 q 780 1143 756 1176 q 804 1068 804 1110 q 799 1042 804 1050 q 781 1033 793 1033 q 751 1056 761 1033 q 700 1106 739 1089 q 608 1122 661 1122 q 515 1106 553 1122 q 465 1056 476 1089 q 454 1038 460 1043 q 438 1033 449 1033 z "},"Ō":{"ha":1218,"x_min":69,"x_max":1149,"o":"m 608 -8 q 206 118 343 -8 q 69 489 69 244 q 206 856 69 732 q 608 981 343 981 q 1012 856 875 981 q 1149 489 1149 732 q 1012 118 1149 244 q 608 -8 875 -8 m 608 97 q 917 192 813 97 q 1022 489 1022 286 q 917 783 1022 690 q 608 875 813 875 q 301 783 406 875 q 196 489 196 690 q 301 192 196 286 q 608 97 406 97 m 426 1075 q 400 1117 400 1075 l 400 1131 q 426 1172 400 1172 l 790 1172 q 817 1131 817 1172 l 817 1117 q 790 1075 817 1075 l 426 1075 z "},"Ǫ":{"ha":1218,"x_min":69,"x_max":1149,"o":"m 608 -8 q 206 118 343 -8 q 69 489 69 244 q 206 856 69 732 q 608 981 343 981 q 1012 856 875 981 q 1149 489 1149 732 q 1012 118 1149 244 q 608 -8 875 -8 m 608 97 q 917 192 813 97 q 1022 489 1022 286 q 917 783 1022 690 q 608 875 813 875 q 301 783 406 875 q 196 489 196 690 q 301 192 196 286 q 608 97 406 97 m 738 -254 q 631 -226 669 -254 q 593 -146 593 -197 q 609 -83 593 -115 q 657 -23 625 -51 q 738 24 689 6 l 807 14 q 719 -47 751 -12 q 688 -118 688 -81 q 701 -153 688 -140 q 742 -165 715 -165 q 791 -158 771 -165 q 825 -143 811 -150 q 849 -136 839 -136 q 864 -146 857 -136 q 874 -168 871 -156 q 878 -190 878 -181 q 855 -222 878 -207 q 799 -245 832 -236 q 738 -254 767 -254 z "},"Ø":{"ha":1218,"x_min":69,"x_max":1149,"o":"m 135 -25 q 116 -17 128 -25 q 94 5 104 -8 q 85 29 85 18 q 90 40 85 35 q 97 49 94 46 l 1043 968 q 1066 988 1058 983 q 1083 993 1074 993 q 1103 984 1092 993 q 1124 963 1115 975 q 1133 938 1133 950 q 1128 926 1133 932 q 1121 918 1124 921 l 176 0 q 153 -20 161 -15 q 135 -25 146 -25 m 608 -8 q 206 118 343 -8 q 69 489 69 244 q 206 856 69 732 q 608 981 343 981 q 1012 856 875 981 q 1149 489 1149 732 q 1012 118 1149 244 q 608 -8 875 -8 m 608 97 q 917 192 813 97 q 1022 489 1022 286 q 917 783 1022 690 q 608 875 813 875 q 301 783 406 875 q 196 489 196 690 q 301 192 196 286 q 608 97 406 97 z "},"Ǿ":{"ha":1218,"x_min":69,"x_max":1149,"o":"m 135 -25 q 116 -17 128 -25 q 94 5 104 -8 q 85 29 85 18 q 90 40 85 35 q 97 49 94 46 l 1043 968 q 1066 988 1058 983 q 1083 993 1074 993 q 1103 984 1092 993 q 1124 963 1115 975 q 1133 938 1133 950 q 1128 926 1133 932 q 1121 918 1124 921 l 176 0 q 153 -20 161 -15 q 135 -25 146 -25 m 608 -8 q 206 118 343 -8 q 69 489 69 244 q 206 856 69 732 q 608 981 343 981 q 1012 856 875 981 q 1149 489 1149 732 q 1012 118 1149 244 q 608 -8 875 -8 m 608 97 q 917 192 813 97 q 1022 489 1022 286 q 917 783 1022 690 q 608 875 813 875 q 301 783 406 875 q 196 489 196 690 q 301 192 196 286 q 608 97 406 97 m 525 1044 q 499 1049 508 1044 q 489 1063 489 1054 q 492 1075 489 1068 q 504 1089 494 1082 l 607 1168 q 649 1192 628 1183 q 713 1200 669 1200 q 765 1194 744 1200 q 786 1175 786 1188 q 778 1151 786 1164 q 731 1119 771 1139 l 635 1074 q 582 1052 604 1060 q 525 1044 560 1044 z "},"Õ":{"ha":1218,"x_min":69,"x_max":1149,"o":"m 608 -8 q 206 118 343 -8 q 69 489 69 244 q 206 856 69 732 q 608 981 343 981 q 1012 856 875 981 q 1149 489 1149 732 q 1012 118 1149 244 q 608 -8 875 -8 m 608 97 q 917 192 813 97 q 1022 489 1022 286 q 917 783 1022 690 q 608 875 813 875 q 301 783 406 875 q 196 489 196 690 q 301 192 196 286 q 608 97 406 97 m 401 1046 q 385 1049 396 1046 q 367 1058 375 1053 q 358 1071 358 1064 q 360 1081 358 1076 q 363 1092 361 1086 q 419 1163 386 1143 q 485 1182 453 1182 q 575 1169 529 1182 q 663 1144 621 1157 q 735 1131 704 1131 q 776 1145 763 1131 q 797 1174 790 1160 q 813 1188 804 1188 q 841 1179 824 1188 q 858 1163 858 1171 q 856 1148 858 1158 q 843 1118 853 1138 q 803 1068 825 1086 q 732 1050 781 1050 q 637 1063 683 1050 q 550 1089 590 1076 q 478 1101 510 1101 q 441 1088 454 1101 q 419 1060 428 1074 q 401 1046 411 1046 z "},"Ȭ":{"ha":1218,"x_min":69,"x_max":1149,"o":"m 608 -8 q 206 118 343 -8 q 69 489 69 244 q 206 856 69 732 q 608 981 343 981 q 1012 856 875 981 q 1149 489 1149 732 q 1012 118 1149 244 q 608 -8 875 -8 m 608 97 q 917 192 813 97 q 1022 489 1022 286 q 917 783 1022 690 q 608 875 813 875 q 301 783 406 875 q 196 489 196 690 q 301 192 196 286 q 608 97 406 97 m 401 1046 q 385 1049 396 1046 q 367 1058 375 1053 q 358 1071 358 1064 q 360 1081 358 1076 q 363 1092 361 1086 q 419 1163 386 1143 q 485 1182 453 1182 q 575 1169 529 1182 q 663 1144 621 1157 q 735 1131 704 1131 q 776 1145 763 1131 q 797 1174 790 1160 q 813 1188 804 1188 q 841 1179 824 1188 q 858 1163 858 1171 q 856 1148 858 1158 q 843 1118 853 1138 q 803 1068 825 1086 q 732 1050 781 1050 q 637 1063 683 1050 q 550 1089 590 1076 q 478 1101 510 1101 q 441 1088 454 1101 q 419 1060 428 1074 q 401 1046 411 1046 m 426 1265 q 400 1307 400 1265 l 400 1321 q 426 1363 400 1363 l 790 1363 q 817 1321 817 1363 l 817 1307 q 790 1265 817 1265 l 426 1265 z "},"Œ":{"ha":1722,"x_min":69,"x_max":1647,"o":"m 601 -8 q 204 118 339 -8 q 69 489 69 244 q 204 856 69 732 q 601 981 339 981 q 974 856 847 981 q 1100 489 1100 732 q 1044 215 1100 326 q 876 48 988 104 q 601 -8 765 -8 m 601 97 q 890 192 792 97 q 988 489 988 286 q 890 783 988 690 q 601 875 792 875 q 299 783 401 875 q 196 489 196 690 q 299 192 196 286 q 601 97 401 97 m 1031 0 q 988 42 988 0 l 988 931 q 1031 972 988 972 l 1618 972 q 1646 931 1646 972 l 1646 908 q 1618 867 1646 867 l 1113 867 l 1113 550 l 1576 550 q 1604 508 1604 550 l 1604 486 q 1576 444 1604 444 l 1113 444 l 1113 106 l 1619 106 q 1647 64 1647 106 l 1647 42 q 1619 0 1647 0 l 1031 0 z "},"P":{"ha":950,"x_min":160,"x_max":925,"o":"m 217 -3 q 173 6 186 -3 q 160 28 160 14 l 160 931 q 203 972 160 972 l 596 972 q 842 902 760 972 q 925 693 925 832 q 842 484 925 554 q 596 414 760 414 l 285 414 l 285 28 q 272 6 285 14 q 228 -3 260 -3 l 217 -3 m 285 519 l 596 519 q 751 560 703 519 q 799 693 799 601 q 751 826 799 785 q 596 867 703 867 l 285 867 l 285 519 z "},"Þ":{"ha":938,"x_min":160,"x_max":913,"o":"m 224 207 l 224 313 l 583 313 q 738 353 690 313 q 786 486 786 394 q 738 619 786 578 q 583 660 690 660 l 224 660 l 224 765 l 583 765 q 830 695 747 765 q 913 486 913 625 q 830 277 913 347 q 583 207 747 207 l 224 207 m 217 -3 q 173 6 186 -3 q 160 28 160 14 l 160 944 q 173 967 160 960 q 217 975 186 975 l 228 975 q 272 967 260 975 q 285 944 285 960 l 285 28 q 272 6 285 14 q 228 -3 260 -3 l 217 -3 z "},"Q":{"ha":1218,"x_min":69,"x_max":1149,"o":"m 1110 -206 q 1064 -194 1103 -206 q 965 -165 1025 -183 q 835 -125 906 -147 q 695 -81 765 -103 q 565 -38 625 -58 q 464 -5 504 -18 q 415 13 424 8 l 746 13 l 746 -4 l 1121 -83 q 1140 -92 1135 -86 q 1146 -106 1146 -99 q 1144 -133 1146 -117 q 1138 -167 1142 -150 q 1126 -194 1133 -183 q 1110 -206 1119 -206 m 608 -8 q 206 118 343 -8 q 69 489 69 244 q 206 856 69 732 q 608 981 343 981 q 1012 856 875 981 q 1149 489 1149 732 q 1012 118 1149 244 q 608 -8 875 -8 m 608 97 q 917 192 813 97 q 1022 489 1022 286 q 917 783 1022 690 q 608 875 813 875 q 301 783 406 875 q 196 489 196 690 q 301 192 196 286 q 608 97 406 97 z "},"R":{"ha":1017,"x_min":160,"x_max":1003,"o":"m 217 -3 q 173 6 186 -3 q 160 28 160 14 l 160 931 q 203 972 160 972 l 596 972 q 842 903 760 972 q 925 693 925 833 q 904 592 925 639 q 848 514 883 546 q 765 472 813 482 l 765 467 q 837 408 810 453 q 890 299 864 364 l 999 39 q 1002 28 1001 33 q 1003 19 1003 22 q 989 3 1003 10 q 944 -3 975 -3 l 931 -3 q 894 4 910 -3 q 872 25 879 11 l 769 278 q 726 361 749 332 q 674 402 704 390 q 596 414 643 414 l 285 414 l 285 28 q 272 6 285 14 q 228 -3 260 -3 l 217 -3 m 285 519 l 596 519 q 751 560 703 519 q 799 693 799 601 q 751 826 799 785 q 596 867 703 867 l 285 867 l 285 519 z "},"Ŕ":{"ha":1017,"x_min":160,"x_max":1003,"o":"m 217 -3 q 173 6 186 -3 q 160 28 160 14 l 160 931 q 203 972 160 972 l 596 972 q 842 903 760 972 q 925 693 925 833 q 904 592 925 639 q 848 514 883 546 q 765 472 813 482 l 765 467 q 837 408 810 453 q 890 299 864 364 l 999 39 q 1002 28 1001 33 q 1003 19 1003 22 q 989 3 1003 10 q 944 -3 975 -3 l 931 -3 q 894 4 910 -3 q 872 25 879 11 l 769 278 q 726 361 749 332 q 674 402 704 390 q 596 414 643 414 l 285 414 l 285 28 q 272 6 285 14 q 228 -3 260 -3 l 217 -3 m 285 519 l 596 519 q 751 560 703 519 q 799 693 799 601 q 751 826 799 785 q 596 867 703 867 l 285 867 l 285 519 m 439 1044 q 413 1049 422 1044 q 403 1063 403 1054 q 406 1075 403 1068 q 418 1089 408 1082 l 521 1168 q 563 1192 542 1183 q 626 1200 583 1200 q 679 1194 658 1200 q 700 1175 700 1188 q 692 1151 700 1164 q 644 1119 685 1139 l 549 1074 q 496 1052 518 1060 q 439 1044 474 1044 z "},"Ř":{"ha":1017,"x_min":160,"x_max":1003,"o":"m 217 -3 q 173 6 186 -3 q 160 28 160 14 l 160 931 q 203 972 160 972 l 596 972 q 842 903 760 972 q 925 693 925 833 q 904 592 925 639 q 848 514 883 546 q 765 472 813 482 l 765 467 q 837 408 810 453 q 890 299 864 364 l 999 39 q 1002 28 1001 33 q 1003 19 1003 22 q 989 3 1003 10 q 944 -3 975 -3 l 931 -3 q 894 4 910 -3 q 872 25 879 11 l 769 278 q 726 361 749 332 q 674 402 704 390 q 596 414 643 414 l 285 414 l 285 28 q 272 6 285 14 q 228 -3 260 -3 l 217 -3 m 285 519 l 596 519 q 751 560 703 519 q 799 693 799 601 q 751 826 799 785 q 596 867 703 867 l 285 867 l 285 519 m 694 1186 q 722 1181 713 1186 q 731 1169 731 1176 q 725 1155 731 1163 q 704 1136 719 1147 l 600 1051 q 581 1040 590 1044 q 557 1033 571 1035 q 522 1031 543 1031 q 488 1033 501 1031 q 464 1040 474 1035 q 444 1051 454 1044 l 340 1136 q 320 1155 326 1147 q 314 1169 314 1163 q 323 1181 314 1176 q 350 1186 332 1186 q 376 1182 365 1186 q 401 1171 388 1178 l 522 1115 l 642 1171 q 669 1182 657 1178 q 694 1186 681 1186 z "},"Ŗ":{"ha":1017,"x_min":160,"x_max":1003,"o":"m 217 -3 q 173 6 186 -3 q 160 28 160 14 l 160 931 q 203 972 160 972 l 596 972 q 842 903 760 972 q 925 693 925 833 q 904 592 925 639 q 848 514 883 546 q 765 472 813 482 l 765 467 q 837 408 810 453 q 890 299 864 364 l 999 39 q 1002 28 1001 33 q 1003 19 1003 22 q 989 3 1003 10 q 944 -3 975 -3 l 931 -3 q 894 4 910 -3 q 872 25 879 11 l 769 278 q 726 361 749 332 q 674 402 704 390 q 596 414 643 414 l 285 414 l 285 28 q 272 6 285 14 q 228 -3 260 -3 l 217 -3 m 285 519 l 596 519 q 751 560 703 519 q 799 693 799 601 q 751 826 799 785 q 596 867 703 867 l 285 867 l 285 519 m 489 -312 q 466 -308 479 -312 q 453 -292 453 -304 q 461 -265 453 -281 q 481 -228 469 -250 q 500 -176 492 -207 q 508 -106 508 -146 q 522 -79 508 -87 q 564 -71 535 -71 q 619 -106 619 -71 q 596 -212 619 -165 q 541 -286 572 -260 q 489 -312 510 -312 z "},"Ȑ":{"ha":1017,"x_min":160,"x_max":1003,"o":"m 217 -3 q 173 6 186 -3 q 160 28 160 14 l 160 931 q 203 972 160 972 l 596 972 q 842 903 760 972 q 925 693 925 833 q 904 592 925 639 q 848 514 883 546 q 765 472 813 482 l 765 467 q 837 408 810 453 q 890 299 864 364 l 999 39 q 1002 28 1001 33 q 1003 19 1003 22 q 989 3 1003 10 q 944 -3 975 -3 l 931 -3 q 894 4 910 -3 q 872 25 879 11 l 769 278 q 726 361 749 332 q 674 402 704 390 q 596 414 643 414 l 285 414 l 285 28 q 272 6 285 14 q 228 -3 260 -3 l 217 -3 m 285 519 l 596 519 q 751 560 703 519 q 799 693 799 601 q 751 826 799 785 q 596 867 703 867 l 285 867 l 285 519 m 453 1044 q 397 1052 418 1044 q 343 1074 375 1060 l 247 1119 q 200 1151 208 1139 q 192 1175 192 1164 q 213 1194 192 1188 q 265 1200 233 1200 q 330 1192 310 1200 q 371 1168 350 1183 l 474 1089 q 486 1075 483 1082 q 489 1063 489 1068 q 479 1049 489 1054 q 453 1044 469 1044 m 725 1044 q 669 1052 690 1044 q 615 1074 647 1060 l 519 1119 q 472 1151 481 1139 q 464 1175 464 1164 q 485 1194 464 1188 q 538 1200 506 1200 q 602 1192 582 1200 q 643 1168 622 1183 l 746 1089 q 758 1075 756 1082 q 761 1063 761 1068 q 751 1049 761 1054 q 725 1044 742 1044 z "},"Ṛ":{"ha":1017,"x_min":160,"x_max":1003,"o":"m 217 -3 q 173 6 186 -3 q 160 28 160 14 l 160 931 q 203 972 160 972 l 596 972 q 842 903 760 972 q 925 693 925 833 q 904 592 925 639 q 848 514 883 546 q 765 472 813 482 l 765 467 q 837 408 810 453 q 890 299 864 364 l 999 39 q 1002 28 1001 33 q 1003 19 1003 22 q 989 3 1003 10 q 944 -3 975 -3 l 931 -3 q 894 4 910 -3 q 872 25 879 11 l 769 278 q 726 361 749 332 q 674 402 704 390 q 596 414 643 414 l 285 414 l 285 28 q 272 6 285 14 q 228 -3 260 -3 l 217 -3 m 285 519 l 596 519 q 751 560 703 519 q 799 693 799 601 q 751 826 799 785 q 596 867 703 867 l 285 867 l 285 519 m 564 -243 q 519 -235 533 -243 q 504 -212 504 -228 l 504 -142 q 519 -119 504 -126 q 564 -111 533 -111 q 610 -119 596 -111 q 624 -142 624 -126 l 624 -212 q 610 -235 624 -228 q 564 -243 596 -243 z "},"Ȓ":{"ha":1017,"x_min":160,"x_max":1003,"o":"m 217 -3 q 173 6 186 -3 q 160 28 160 14 l 160 931 q 203 972 160 972 l 596 972 q 842 903 760 972 q 925 693 925 833 q 904 592 925 639 q 848 514 883 546 q 765 472 813 482 l 765 467 q 837 408 810 453 q 890 299 864 364 l 999 39 q 1002 28 1001 33 q 1003 19 1003 22 q 989 3 1003 10 q 944 -3 975 -3 l 931 -3 q 894 4 910 -3 q 872 25 879 11 l 769 278 q 726 361 749 332 q 674 402 704 390 q 596 414 643 414 l 285 414 l 285 28 q 272 6 285 14 q 228 -3 260 -3 l 217 -3 m 285 519 l 596 519 q 751 560 703 519 q 799 693 799 601 q 751 826 799 785 q 596 867 703 867 l 285 867 l 285 519 m 351 1033 q 331 1042 338 1033 q 325 1068 325 1050 q 349 1143 325 1110 q 418 1195 374 1176 q 522 1214 463 1214 q 626 1195 582 1214 q 694 1143 669 1176 q 718 1068 718 1110 q 713 1042 718 1050 q 694 1033 707 1033 q 665 1056 675 1033 q 614 1106 653 1089 q 522 1122 575 1122 q 428 1106 467 1122 q 379 1056 390 1089 q 368 1038 374 1043 q 351 1033 363 1033 z "},"S":{"ha":833,"x_min":50,"x_max":785,"o":"m 407 -8 q 266 4 332 -8 q 151 33 200 17 q 81 63 103 50 q 59 78 68 69 q 50 97 50 88 q 53 116 50 104 q 60 140 56 128 q 72 161 65 153 q 86 169 78 169 q 144 151 100 169 q 255 115 188 133 q 407 97 322 97 q 548 115 492 97 q 633 170 604 133 q 661 260 661 207 q 640 335 661 306 q 583 383 619 365 q 499 414 546 401 q 403 436 453 426 q 284 465 343 449 q 176 509 225 481 q 98 585 128 538 q 68 710 68 633 q 94 818 68 768 q 169 904 121 868 q 284 960 218 940 q 428 981 350 981 q 546 973 490 981 q 644 953 601 965 q 711 928 688 940 q 731 917 724 922 q 738 900 738 911 q 735 879 738 892 q 729 853 733 867 q 719 831 725 840 q 706 822 713 822 q 657 835 692 822 q 565 862 622 849 q 425 875 508 875 q 294 856 346 875 q 217 800 243 836 q 192 714 192 764 q 224 629 192 660 q 313 581 257 599 q 442 547 369 564 q 563 517 503 535 q 674 471 624 500 q 754 391 724 442 q 785 261 785 340 q 759 149 785 199 q 684 63 733 99 q 565 10 635 28 q 407 -8 494 -8 z "},"Ś":{"ha":833,"x_min":50,"x_max":785,"o":"m 407 -8 q 266 4 332 -8 q 151 33 200 17 q 81 63 103 50 q 59 78 68 69 q 50 97 50 88 q 53 116 50 104 q 60 140 56 128 q 72 161 65 153 q 86 169 78 169 q 144 151 100 169 q 255 115 188 133 q 407 97 322 97 q 548 115 492 97 q 633 170 604 133 q 661 260 661 207 q 640 335 661 306 q 583 383 619 365 q 499 414 546 401 q 403 436 453 426 q 284 465 343 449 q 176 509 225 481 q 98 585 128 538 q 68 710 68 633 q 94 818 68 768 q 169 904 121 868 q 284 960 218 940 q 428 981 350 981 q 546 973 490 981 q 644 953 601 965 q 711 928 688 940 q 731 917 724 922 q 738 900 738 911 q 735 879 738 892 q 729 853 733 867 q 719 831 725 840 q 706 822 713 822 q 657 835 692 822 q 565 862 622 849 q 425 875 508 875 q 294 856 346 875 q 217 800 243 836 q 192 714 192 764 q 224 629 192 660 q 313 581 257 599 q 442 547 369 564 q 563 517 503 535 q 674 471 624 500 q 754 391 724 442 q 785 261 785 340 q 759 149 785 199 q 684 63 733 99 q 565 10 635 28 q 407 -8 494 -8 m 333 1044 q 307 1049 317 1044 q 297 1063 297 1054 q 300 1075 297 1068 q 313 1089 303 1082 l 415 1168 q 457 1192 436 1183 q 521 1200 478 1200 q 574 1194 553 1200 q 594 1175 594 1188 q 587 1151 594 1164 q 539 1119 579 1139 l 443 1074 q 390 1052 413 1060 q 333 1044 368 1044 z "},"Š":{"ha":833,"x_min":50,"x_max":785,"o":"m 407 -8 q 266 4 332 -8 q 151 33 200 17 q 81 63 103 50 q 59 78 68 69 q 50 97 50 88 q 53 116 50 104 q 60 140 56 128 q 72 161 65 153 q 86 169 78 169 q 144 151 100 169 q 255 115 188 133 q 407 97 322 97 q 548 115 492 97 q 633 170 604 133 q 661 260 661 207 q 640 335 661 306 q 583 383 619 365 q 499 414 546 401 q 403 436 453 426 q 284 465 343 449 q 176 509 225 481 q 98 585 128 538 q 68 710 68 633 q 94 818 68 768 q 169 904 121 868 q 284 960 218 940 q 428 981 350 981 q 546 973 490 981 q 644 953 601 965 q 711 928 688 940 q 731 917 724 922 q 738 900 738 911 q 735 879 738 892 q 729 853 733 867 q 719 831 725 840 q 706 822 713 822 q 657 835 692 822 q 565 862 622 849 q 425 875 508 875 q 294 856 346 875 q 217 800 243 836 q 192 714 192 764 q 224 629 192 660 q 313 581 257 599 q 442 547 369 564 q 563 517 503 535 q 674 471 624 500 q 754 391 724 442 q 785 261 785 340 q 759 149 785 199 q 684 63 733 99 q 565 10 635 28 q 407 -8 494 -8 m 589 1186 q 616 1181 607 1186 q 625 1169 625 1176 q 619 1155 625 1163 q 599 1136 614 1147 l 494 1051 q 475 1040 485 1044 q 451 1033 465 1035 q 417 1031 438 1031 q 382 1033 396 1031 q 358 1040 368 1035 q 339 1051 349 1044 l 235 1136 q 215 1155 221 1147 q 208 1169 208 1163 q 217 1181 208 1176 q 244 1186 226 1186 q 271 1182 260 1186 q 296 1171 282 1178 l 417 1115 l 536 1171 q 563 1182 551 1178 q 589 1186 575 1186 z "},"Ş":{"ha":833,"x_min":50,"x_max":785,"o":"m 407 -8 q 266 4 332 -8 q 151 33 200 17 q 81 63 103 50 q 59 78 68 69 q 50 97 50 88 q 53 116 50 104 q 60 140 56 128 q 72 161 65 153 q 86 169 78 169 q 144 151 100 169 q 255 115 188 133 q 407 97 322 97 q 548 115 492 97 q 633 170 604 133 q 661 260 661 207 q 640 335 661 306 q 583 383 619 365 q 499 414 546 401 q 403 436 453 426 q 284 465 343 449 q 176 509 225 481 q 98 585 128 538 q 68 710 68 633 q 94 818 68 768 q 169 904 121 868 q 284 960 218 940 q 428 981 350 981 q 546 973 490 981 q 644 953 601 965 q 711 928 688 940 q 731 917 724 922 q 738 900 738 911 q 735 879 738 892 q 729 853 733 867 q 719 831 725 840 q 706 822 713 822 q 657 835 692 822 q 565 862 622 849 q 425 875 508 875 q 294 856 346 875 q 217 800 243 836 q 192 714 192 764 q 224 629 192 660 q 313 581 257 599 q 442 547 369 564 q 563 517 503 535 q 674 471 624 500 q 754 391 724 442 q 785 261 785 340 q 759 149 785 199 q 684 63 733 99 q 565 10 635 28 q 407 -8 494 -8 m 390 -292 q 322 -285 360 -292 q 258 -267 285 -279 q 231 -240 231 -256 q 233 -223 231 -233 q 242 -204 236 -212 q 256 -196 249 -196 q 285 -203 267 -196 q 328 -217 303 -210 q 386 -224 353 -224 q 427 -220 403 -224 q 470 -206 451 -217 q 489 -175 489 -196 q 469 -142 489 -151 q 423 -131 449 -133 q 377 -123 397 -128 q 357 -104 357 -118 q 360 -86 357 -99 q 372 -51 364 -74 q 389 8 379 -28 l 449 8 l 422 -82 l 410 -75 q 535 -101 492 -75 q 578 -174 578 -126 q 548 -250 578 -225 q 474 -283 518 -275 q 390 -292 431 -292 z "},"Ŝ":{"ha":833,"x_min":50,"x_max":785,"o":"m 407 -8 q 266 4 332 -8 q 151 33 200 17 q 81 63 103 50 q 59 78 68 69 q 50 97 50 88 q 53 116 50 104 q 60 140 56 128 q 72 161 65 153 q 86 169 78 169 q 144 151 100 169 q 255 115 188 133 q 407 97 322 97 q 548 115 492 97 q 633 170 604 133 q 661 260 661 207 q 640 335 661 306 q 583 383 619 365 q 499 414 546 401 q 403 436 453 426 q 284 465 343 449 q 176 509 225 481 q 98 585 128 538 q 68 710 68 633 q 94 818 68 768 q 169 904 121 868 q 284 960 218 940 q 428 981 350 981 q 546 973 490 981 q 644 953 601 965 q 711 928 688 940 q 731 917 724 922 q 738 900 738 911 q 735 879 738 892 q 729 853 733 867 q 719 831 725 840 q 706 822 713 822 q 657 835 692 822 q 565 862 622 849 q 425 875 508 875 q 294 856 346 875 q 217 800 243 836 q 192 714 192 764 q 224 629 192 660 q 313 581 257 599 q 442 547 369 564 q 563 517 503 535 q 674 471 624 500 q 754 391 724 442 q 785 261 785 340 q 759 149 785 199 q 684 63 733 99 q 565 10 635 28 q 407 -8 494 -8 m 244 1031 q 217 1035 226 1031 q 208 1047 208 1040 q 215 1062 208 1054 q 235 1081 221 1069 l 339 1165 q 358 1178 349 1174 q 382 1184 368 1182 q 417 1186 396 1186 q 451 1184 438 1186 q 475 1178 465 1182 q 494 1165 485 1174 l 599 1081 q 619 1062 614 1069 q 625 1047 625 1054 q 616 1035 625 1040 q 589 1031 607 1031 q 564 1035 575 1031 q 538 1046 553 1039 l 417 1101 l 297 1046 q 272 1035 283 1039 q 244 1031 260 1031 z "},"Ș":{"ha":833,"x_min":50,"x_max":785,"o":"m 407 -8 q 266 4 332 -8 q 151 33 200 17 q 81 63 103 50 q 59 78 68 69 q 50 97 50 88 q 53 116 50 104 q 60 140 56 128 q 72 161 65 153 q 86 169 78 169 q 144 151 100 169 q 255 115 188 133 q 407 97 322 97 q 548 115 492 97 q 633 170 604 133 q 661 260 661 207 q 640 335 661 306 q 583 383 619 365 q 499 414 546 401 q 403 436 453 426 q 284 465 343 449 q 176 509 225 481 q 98 585 128 538 q 68 710 68 633 q 94 818 68 768 q 169 904 121 868 q 284 960 218 940 q 428 981 350 981 q 546 973 490 981 q 644 953 601 965 q 711 928 688 940 q 731 917 724 922 q 738 900 738 911 q 735 879 738 892 q 729 853 733 867 q 719 831 725 840 q 706 822 713 822 q 657 835 692 822 q 565 862 622 849 q 425 875 508 875 q 294 856 346 875 q 217 800 243 836 q 192 714 192 764 q 224 629 192 660 q 313 581 257 599 q 442 547 369 564 q 563 517 503 535 q 674 471 624 500 q 754 391 724 442 q 785 261 785 340 q 759 149 785 199 q 684 63 733 99 q 565 10 635 28 q 407 -8 494 -8 m 342 -312 q 319 -308 332 -312 q 306 -292 306 -304 q 314 -265 306 -281 q 333 -228 322 -250 q 353 -176 344 -207 q 361 -106 361 -146 q 374 -79 361 -87 q 417 -71 388 -71 q 472 -106 472 -71 q 449 -212 472 -165 q 394 -286 425 -260 q 342 -312 363 -312 z "},"Ṣ":{"ha":833,"x_min":50,"x_max":785,"o":"m 407 -8 q 266 4 332 -8 q 151 33 200 17 q 81 63 103 50 q 59 78 68 69 q 50 97 50 88 q 53 116 50 104 q 60 140 56 128 q 72 161 65 153 q 86 169 78 169 q 144 151 100 169 q 255 115 188 133 q 407 97 322 97 q 548 115 492 97 q 633 170 604 133 q 661 260 661 207 q 640 335 661 306 q 583 383 619 365 q 499 414 546 401 q 403 436 453 426 q 284 465 343 449 q 176 509 225 481 q 98 585 128 538 q 68 710 68 633 q 94 818 68 768 q 169 904 121 868 q 284 960 218 940 q 428 981 350 981 q 546 973 490 981 q 644 953 601 965 q 711 928 688 940 q 731 917 724 922 q 738 900 738 911 q 735 879 738 892 q 729 853 733 867 q 719 831 725 840 q 706 822 713 822 q 657 835 692 822 q 565 862 622 849 q 425 875 508 875 q 294 856 346 875 q 217 800 243 836 q 192 714 192 764 q 224 629 192 660 q 313 581 257 599 q 442 547 369 564 q 563 517 503 535 q 674 471 624 500 q 754 391 724 442 q 785 261 785 340 q 759 149 785 199 q 684 63 733 99 q 565 10 635 28 q 407 -8 494 -8 m 417 -243 q 372 -235 386 -243 q 357 -212 357 -228 l 357 -142 q 372 -119 357 -126 q 417 -111 386 -111 q 463 -119 449 -111 q 476 -142 476 -126 l 476 -212 q 463 -235 476 -228 q 417 -243 449 -243 z "},"ẞ":{"ha":1139,"x_min":146,"x_max":1088,"o":"m 694 -8 q 588 -1 636 -8 q 504 19 540 7 q 449 44 468 31 q 429 71 429 58 q 436 101 429 85 q 453 128 443 117 q 472 140 463 140 q 510 128 482 140 q 583 104 539 117 q 683 92 626 92 q 777 101 728 92 q 869 131 826 110 q 940 190 913 153 q 967 283 967 226 q 885 418 967 369 q 661 467 803 467 l 618 467 q 599 479 608 467 q 585 509 590 492 q 579 540 579 526 q 580 551 579 546 q 586 561 581 556 l 850 885 l 843 839 q 780 856 818 849 q 693 869 742 864 q 585 875 644 875 q 348 799 425 875 q 271 554 271 724 l 271 28 q 258 6 271 14 q 214 -3 246 -3 l 203 -3 q 159 6 172 -3 q 146 28 146 14 l 146 556 q 257 873 146 767 q 582 979 368 979 q 784 965 690 979 q 925 933 878 950 q 945 915 938 929 q 957 885 953 901 q 961 858 961 869 q 960 849 961 853 q 954 839 958 844 l 693 518 l 699 561 q 907 528 819 561 q 1041 432 994 494 q 1088 282 1088 369 q 1051 146 1088 201 q 956 56 1015 90 q 828 7 897 22 q 694 -8 760 -8 z "},"T":{"ha":915,"x_min":35,"x_max":881,"o":"m 449 -3 q 408 6 421 -3 q 396 28 396 14 l 396 867 l 61 867 q 35 908 35 867 l 35 931 q 61 972 35 972 l 853 972 q 881 931 881 972 l 881 908 q 853 867 881 867 l 521 867 l 521 28 q 508 6 521 14 q 468 -3 496 -3 l 449 -3 z "},"Ŧ":{"ha":915,"x_min":35,"x_max":881,"o":"m 153 453 q 125 494 125 453 l 125 508 q 153 550 125 550 l 764 550 q 792 508 792 550 l 792 494 q 764 453 792 453 l 153 453 m 449 -3 q 408 6 421 -3 q 396 28 396 14 l 396 867 l 61 867 q 35 908 35 867 l 35 931 q 61 972 35 972 l 853 972 q 881 931 881 972 l 881 908 q 853 867 881 867 l 521 867 l 521 28 q 508 6 521 14 q 468 -3 496 -3 l 449 -3 z "},"Ť":{"ha":915,"x_min":35,"x_max":881,"o":"m 449 -3 q 408 6 421 -3 q 396 28 396 14 l 396 867 l 61 867 q 35 908 35 867 l 35 931 q 61 972 35 972 l 853 972 q 881 931 881 972 l 881 908 q 853 867 881 867 l 521 867 l 521 28 q 508 6 521 14 q 468 -3 496 -3 l 449 -3 m 631 1186 q 658 1181 649 1186 q 667 1169 667 1176 q 661 1155 667 1163 q 640 1136 656 1147 l 536 1051 q 517 1040 526 1044 q 493 1033 507 1035 q 458 1031 479 1031 q 424 1033 438 1031 q 400 1040 410 1035 q 381 1051 390 1044 l 276 1136 q 256 1155 263 1147 q 250 1169 250 1163 q 259 1181 250 1176 q 286 1186 268 1186 q 313 1182 301 1186 q 338 1171 324 1178 l 458 1115 l 578 1171 q 605 1182 593 1178 q 631 1186 617 1186 z "},"Ţ":{"ha":915,"x_min":35,"x_max":881,"o":"m 449 -3 q 408 6 421 -3 q 396 28 396 14 l 396 867 l 61 867 q 35 908 35 867 l 35 931 q 61 972 35 972 l 853 972 q 881 931 881 972 l 881 908 q 853 867 881 867 l 521 867 l 521 28 q 508 6 521 14 q 468 -3 496 -3 l 449 -3 m 432 -292 q 364 -285 401 -292 q 299 -267 326 -279 q 272 -240 272 -256 q 275 -223 272 -233 q 284 -204 278 -212 q 297 -196 290 -196 q 326 -203 308 -196 q 369 -217 344 -210 q 428 -224 394 -224 q 469 -220 444 -224 q 512 -206 493 -217 q 531 -175 531 -196 q 510 -142 531 -151 q 465 -131 490 -133 q 419 -123 439 -128 q 399 -104 399 -118 q 402 -86 399 -99 q 413 -51 406 -74 q 431 8 421 -28 l 490 8 l 464 -82 l 451 -75 q 576 -101 533 -75 q 619 -174 619 -126 q 590 -250 619 -225 q 516 -283 560 -275 q 432 -292 472 -292 z "},"Ț":{"ha":915,"x_min":35,"x_max":881,"o":"m 449 -3 q 408 6 421 -3 q 396 28 396 14 l 396 867 l 61 867 q 35 908 35 867 l 35 931 q 61 972 35 972 l 853 972 q 881 931 881 972 l 881 908 q 853 867 881 867 l 521 867 l 521 28 q 508 6 521 14 q 468 -3 496 -3 l 449 -3 m 383 -312 q 360 -308 374 -312 q 347 -292 347 -304 q 356 -265 347 -281 q 375 -228 364 -250 q 394 -176 386 -207 q 403 -106 403 -146 q 416 -79 403 -87 q 458 -71 429 -71 q 514 -106 514 -71 q 490 -212 514 -165 q 435 -286 467 -260 q 383 -312 404 -312 z "},"Ṭ":{"ha":915,"x_min":35,"x_max":881,"o":"m 449 -3 q 408 6 421 -3 q 396 28 396 14 l 396 867 l 61 867 q 35 908 35 867 l 35 931 q 61 972 35 972 l 853 972 q 881 931 881 972 l 881 908 q 853 867 881 867 l 521 867 l 521 28 q 508 6 521 14 q 468 -3 496 -3 l 449 -3 m 458 -243 q 413 -235 428 -243 q 399 -212 399 -228 l 399 -142 q 413 -119 399 -126 q 458 -111 428 -111 q 504 -119 490 -111 q 518 -142 518 -126 l 518 -212 q 504 -235 518 -228 q 458 -243 490 -243 z "},"U":{"ha":1139,"x_min":146,"x_max":993,"o":"m 568 -8 q 253 73 360 -8 q 146 311 146 154 l 146 944 q 159 967 146 960 q 203 975 172 975 l 214 975 q 258 967 246 975 q 271 944 271 960 l 271 307 q 347 151 271 204 q 568 97 422 97 q 792 151 717 97 q 868 307 868 204 l 868 944 q 881 967 868 960 q 925 975 894 975 l 936 975 q 981 967 968 975 q 993 944 993 960 l 993 311 q 885 73 993 154 q 568 -8 778 -8 z "},"Ú":{"ha":1139,"x_min":146,"x_max":993,"o":"m 568 -8 q 253 73 360 -8 q 146 311 146 154 l 146 944 q 159 967 146 960 q 203 975 172 975 l 214 975 q 258 967 246 975 q 271 944 271 960 l 271 307 q 347 151 271 204 q 568 97 422 97 q 792 151 717 97 q 868 307 868 204 l 868 944 q 881 967 868 960 q 925 975 894 975 l 936 975 q 981 967 968 975 q 993 944 993 960 l 993 311 q 885 73 993 154 q 568 -8 778 -8 m 485 1044 q 458 1049 468 1044 q 449 1063 449 1054 q 451 1075 449 1068 q 464 1089 454 1082 l 567 1168 q 608 1192 588 1183 q 672 1200 629 1200 q 725 1194 704 1200 q 746 1175 746 1188 q 738 1151 746 1164 q 690 1119 731 1139 l 594 1074 q 542 1052 564 1060 q 485 1044 519 1044 z "},"Ŭ":{"ha":1139,"x_min":146,"x_max":993,"o":"m 568 -8 q 253 73 360 -8 q 146 311 146 154 l 146 944 q 159 967 146 960 q 203 975 172 975 l 214 975 q 258 967 246 975 q 271 944 271 960 l 271 307 q 347 151 271 204 q 568 97 422 97 q 792 151 717 97 q 868 307 868 204 l 868 944 q 881 967 868 960 q 925 975 894 975 l 936 975 q 981 967 968 975 q 993 944 993 960 l 993 311 q 885 73 993 154 q 568 -8 778 -8 m 568 1033 q 464 1053 508 1033 q 395 1105 419 1072 q 371 1179 371 1138 q 377 1206 371 1199 q 397 1214 383 1214 q 414 1209 408 1214 q 425 1192 419 1204 q 474 1142 436 1158 q 568 1125 513 1125 q 660 1142 621 1125 q 711 1192 699 1158 q 740 1214 721 1214 q 758 1206 753 1214 q 764 1179 764 1199 q 740 1105 764 1138 q 672 1053 715 1072 q 568 1033 628 1033 z "},"Ǔ":{"ha":1139,"x_min":146,"x_max":993,"o":"m 568 -8 q 253 73 360 -8 q 146 311 146 154 l 146 944 q 159 967 146 960 q 203 975 172 975 l 214 975 q 258 967 246 975 q 271 944 271 960 l 271 307 q 347 151 271 204 q 568 97 422 97 q 792 151 717 97 q 868 307 868 204 l 868 944 q 881 967 868 960 q 925 975 894 975 l 936 975 q 981 967 968 975 q 993 944 993 960 l 993 311 q 885 73 993 154 q 568 -8 778 -8 m 740 1186 q 767 1181 758 1186 q 776 1169 776 1176 q 771 1155 776 1163 q 750 1136 765 1147 l 646 1051 q 626 1040 636 1044 q 603 1033 617 1035 q 568 1031 589 1031 q 533 1033 547 1031 q 510 1040 519 1035 q 490 1051 500 1044 l 386 1136 q 366 1155 372 1147 q 360 1169 360 1163 q 369 1181 360 1176 q 396 1186 378 1186 q 422 1182 411 1186 q 447 1171 433 1178 l 568 1115 l 688 1171 q 715 1182 703 1178 q 740 1186 726 1186 z "},"Û":{"ha":1139,"x_min":146,"x_max":993,"o":"m 568 -8 q 253 73 360 -8 q 146 311 146 154 l 146 944 q 159 967 146 960 q 203 975 172 975 l 214 975 q 258 967 246 975 q 271 944 271 960 l 271 307 q 347 151 271 204 q 568 97 422 97 q 792 151 717 97 q 868 307 868 204 l 868 944 q 881 967 868 960 q 925 975 894 975 l 936 975 q 981 967 968 975 q 993 944 993 960 l 993 311 q 885 73 993 154 q 568 -8 778 -8 m 396 1031 q 369 1035 378 1031 q 360 1047 360 1040 q 366 1062 360 1054 q 386 1081 372 1069 l 490 1165 q 510 1178 500 1174 q 533 1184 519 1182 q 568 1186 547 1186 q 603 1184 589 1186 q 626 1178 617 1182 q 646 1165 636 1174 l 750 1081 q 771 1062 765 1069 q 776 1047 776 1054 q 767 1035 776 1040 q 740 1031 758 1031 q 715 1035 726 1031 q 689 1046 704 1039 l 568 1101 l 449 1046 q 423 1035 435 1039 q 396 1031 411 1031 z "},"Ȕ":{"ha":1139,"x_min":146,"x_max":993,"o":"m 568 -8 q 253 73 360 -8 q 146 311 146 154 l 146 944 q 159 967 146 960 q 203 975 172 975 l 214 975 q 258 967 246 975 q 271 944 271 960 l 271 307 q 347 151 271 204 q 568 97 422 97 q 792 151 717 97 q 868 307 868 204 l 868 944 q 881 967 868 960 q 925 975 894 975 l 936 975 q 981 967 968 975 q 993 944 993 960 l 993 311 q 885 73 993 154 q 568 -8 778 -8 m 499 1044 q 442 1052 464 1044 q 389 1074 421 1060 l 293 1119 q 246 1151 254 1139 q 238 1175 238 1164 q 258 1194 238 1188 q 311 1200 279 1200 q 376 1192 356 1200 q 417 1168 396 1183 l 519 1089 q 532 1075 529 1082 q 535 1063 535 1068 q 525 1049 535 1054 q 499 1044 515 1044 m 771 1044 q 715 1052 736 1044 q 661 1074 693 1060 l 565 1119 q 518 1151 526 1139 q 510 1175 510 1164 q 531 1194 510 1188 q 583 1200 551 1200 q 648 1192 628 1200 q 689 1168 668 1183 l 792 1089 q 804 1075 801 1082 q 807 1063 807 1068 q 797 1049 807 1054 q 771 1044 788 1044 z "},"Ü":{"ha":1139,"x_min":146,"x_max":993,"o":"m 568 -8 q 253 73 360 -8 q 146 311 146 154 l 146 944 q 159 967 146 960 q 203 975 172 975 l 214 975 q 258 967 246 975 q 271 944 271 960 l 271 307 q 347 151 271 204 q 568 97 422 97 q 792 151 717 97 q 868 307 868 204 l 868 944 q 881 967 868 960 q 925 975 894 975 l 936 975 q 981 967 968 975 q 993 944 993 960 l 993 311 q 885 73 993 154 q 568 -8 778 -8 m 694 1053 q 648 1060 663 1053 q 633 1083 633 1068 l 633 1161 q 648 1184 633 1176 q 694 1192 663 1192 q 741 1184 726 1192 q 756 1161 756 1176 l 756 1083 q 741 1060 756 1068 q 694 1053 726 1053 m 442 1053 q 395 1060 410 1053 q 381 1083 381 1068 l 381 1161 q 395 1184 381 1176 q 442 1192 410 1192 q 488 1184 474 1192 q 503 1161 503 1176 l 503 1083 q 488 1060 503 1068 q 442 1053 474 1053 z "},"Ǘ":{"ha":1139,"x_min":146,"x_max":993,"o":"m 568 -8 q 253 73 360 -8 q 146 311 146 154 l 146 944 q 159 967 146 960 q 203 975 172 975 l 214 975 q 258 967 246 975 q 271 944 271 960 l 271 307 q 347 151 271 204 q 568 97 422 97 q 792 151 717 97 q 868 307 868 204 l 868 944 q 881 967 868 960 q 925 975 894 975 l 936 975 q 981 967 968 975 q 993 944 993 960 l 993 311 q 885 73 993 154 q 568 -8 778 -8 m 694 1053 q 648 1060 663 1053 q 633 1083 633 1068 l 633 1161 q 648 1184 633 1176 q 694 1192 663 1192 q 741 1184 726 1192 q 756 1161 756 1176 l 756 1083 q 741 1060 756 1068 q 694 1053 726 1053 m 442 1053 q 395 1060 410 1053 q 381 1083 381 1068 l 381 1161 q 395 1184 381 1176 q 442 1192 410 1192 q 488 1184 474 1192 q 503 1161 503 1176 l 503 1083 q 488 1060 503 1068 q 442 1053 474 1053 m 485 1242 q 458 1247 468 1242 q 449 1260 449 1251 q 451 1272 449 1265 q 464 1286 454 1279 l 567 1365 q 608 1389 588 1381 q 672 1397 629 1397 q 725 1391 704 1397 q 746 1372 746 1385 q 738 1349 746 1361 q 690 1317 731 1336 l 594 1271 q 542 1249 564 1257 q 485 1242 519 1242 z "},"Ǚ":{"ha":1139,"x_min":146,"x_max":993,"o":"m 568 -8 q 253 73 360 -8 q 146 311 146 154 l 146 944 q 159 967 146 960 q 203 975 172 975 l 214 975 q 258 967 246 975 q 271 944 271 960 l 271 307 q 347 151 271 204 q 568 97 422 97 q 792 151 717 97 q 868 307 868 204 l 868 944 q 881 967 868 960 q 925 975 894 975 l 936 975 q 981 967 968 975 q 993 944 993 960 l 993 311 q 885 73 993 154 q 568 -8 778 -8 m 694 1053 q 648 1060 663 1053 q 633 1083 633 1068 l 633 1161 q 648 1184 633 1176 q 694 1192 663 1192 q 741 1184 726 1192 q 756 1161 756 1176 l 756 1083 q 741 1060 756 1068 q 694 1053 726 1053 m 442 1053 q 395 1060 410 1053 q 381 1083 381 1068 l 381 1161 q 395 1184 381 1176 q 442 1192 410 1192 q 488 1184 474 1192 q 503 1161 503 1176 l 503 1083 q 488 1060 503 1068 q 442 1053 474 1053 m 740 1383 q 767 1378 758 1383 q 776 1367 776 1374 q 771 1352 776 1360 q 750 1333 765 1344 l 646 1249 q 626 1237 636 1242 q 603 1230 617 1232 q 568 1228 589 1228 q 533 1230 547 1228 q 510 1237 519 1232 q 490 1249 500 1242 l 386 1333 q 366 1352 372 1344 q 360 1367 360 1360 q 369 1378 360 1374 q 396 1383 378 1383 q 422 1379 411 1383 q 447 1368 433 1375 l 568 1313 l 688 1368 q 715 1379 703 1375 q 740 1383 726 1383 z "},"Ǜ":{"ha":1139,"x_min":146,"x_max":993,"o":"m 568 -8 q 253 73 360 -8 q 146 311 146 154 l 146 944 q 159 967 146 960 q 203 975 172 975 l 214 975 q 258 967 246 975 q 271 944 271 960 l 271 307 q 347 151 271 204 q 568 97 422 97 q 792 151 717 97 q 868 307 868 204 l 868 944 q 881 967 868 960 q 925 975 894 975 l 936 975 q 981 967 968 975 q 993 944 993 960 l 993 311 q 885 73 993 154 q 568 -8 778 -8 m 694 1053 q 648 1060 663 1053 q 633 1083 633 1068 l 633 1161 q 648 1184 633 1176 q 694 1192 663 1192 q 741 1184 726 1192 q 756 1161 756 1176 l 756 1083 q 741 1060 756 1068 q 694 1053 726 1053 m 442 1053 q 395 1060 410 1053 q 381 1083 381 1068 l 381 1161 q 395 1184 381 1176 q 442 1192 410 1192 q 488 1184 474 1192 q 503 1161 503 1176 l 503 1083 q 488 1060 503 1068 q 442 1053 474 1053 m 651 1242 q 595 1249 617 1242 q 542 1271 574 1257 l 446 1317 q 399 1349 407 1336 q 390 1372 390 1361 q 411 1391 390 1385 q 464 1397 432 1397 q 528 1389 508 1397 q 569 1365 549 1381 l 672 1286 q 685 1272 682 1279 q 688 1260 688 1265 q 678 1247 688 1251 q 651 1242 668 1242 z "},"Ǖ":{"ha":1139,"x_min":146,"x_max":993,"o":"m 568 -8 q 253 73 360 -8 q 146 311 146 154 l 146 944 q 159 967 146 960 q 203 975 172 975 l 214 975 q 258 967 246 975 q 271 944 271 960 l 271 307 q 347 151 271 204 q 568 97 422 97 q 792 151 717 97 q 868 307 868 204 l 868 944 q 881 967 868 960 q 925 975 894 975 l 936 975 q 981 967 968 975 q 993 944 993 960 l 993 311 q 885 73 993 154 q 568 -8 778 -8 m 694 1053 q 648 1060 663 1053 q 633 1083 633 1068 l 633 1161 q 648 1184 633 1176 q 694 1192 663 1192 q 741 1184 726 1192 q 756 1161 756 1176 l 756 1083 q 741 1060 756 1068 q 694 1053 726 1053 m 442 1053 q 395 1060 410 1053 q 381 1083 381 1068 l 381 1161 q 395 1184 381 1176 q 442 1192 410 1192 q 488 1184 474 1192 q 503 1161 503 1176 l 503 1083 q 488 1060 503 1068 q 442 1053 474 1053 m 386 1272 q 360 1314 360 1272 l 360 1328 q 386 1369 360 1369 l 750 1369 q 776 1328 776 1369 l 776 1314 q 750 1272 776 1272 l 386 1272 z "},"Ụ":{"ha":1139,"x_min":146,"x_max":993,"o":"m 568 -8 q 253 73 360 -8 q 146 311 146 154 l 146 944 q 159 967 146 960 q 203 975 172 975 l 214 975 q 258 967 246 975 q 271 944 271 960 l 271 307 q 347 151 271 204 q 568 97 422 97 q 792 151 717 97 q 868 307 868 204 l 868 944 q 881 967 868 960 q 925 975 894 975 l 936 975 q 981 967 968 975 q 993 944 993 960 l 993 311 q 885 73 993 154 q 568 -8 778 -8 m 569 -243 q 524 -235 539 -243 q 510 -212 510 -228 l 510 -142 q 524 -119 510 -126 q 569 -111 539 -111 q 615 -119 601 -111 q 629 -142 629 -126 l 629 -212 q 615 -235 629 -228 q 569 -243 601 -243 z "},"Ù":{"ha":1139,"x_min":146,"x_max":993,"o":"m 568 -8 q 253 73 360 -8 q 146 311 146 154 l 146 944 q 159 967 146 960 q 203 975 172 975 l 214 975 q 258 967 246 975 q 271 944 271 960 l 271 307 q 347 151 271 204 q 568 97 422 97 q 792 151 717 97 q 868 307 868 204 l 868 944 q 881 967 868 960 q 925 975 894 975 l 936 975 q 981 967 968 975 q 993 944 993 960 l 993 311 q 885 73 993 154 q 568 -8 778 -8 m 651 1044 q 595 1052 617 1044 q 542 1074 574 1060 l 446 1119 q 399 1151 407 1139 q 390 1175 390 1164 q 411 1194 390 1188 q 464 1200 432 1200 q 528 1192 508 1200 q 569 1168 549 1183 l 672 1089 q 685 1075 682 1082 q 688 1063 688 1068 q 678 1049 688 1054 q 651 1044 668 1044 z "},"Ủ":{"ha":1139,"x_min":146,"x_max":993,"o":"m 568 -8 q 253 73 360 -8 q 146 311 146 154 l 146 944 q 159 967 146 960 q 203 975 172 975 l 214 975 q 258 967 246 975 q 271 944 271 960 l 271 307 q 347 151 271 204 q 568 97 422 97 q 792 151 717 97 q 868 307 868 204 l 868 944 q 881 967 868 960 q 925 975 894 975 l 936 975 q 981 967 968 975 q 993 944 993 960 l 993 311 q 885 73 993 154 q 568 -8 778 -8 m 556 1028 q 535 1040 546 1028 q 524 1063 524 1053 q 539 1077 524 1068 q 575 1097 554 1086 q 611 1123 596 1108 q 626 1154 626 1138 q 605 1181 626 1172 q 553 1189 583 1189 q 493 1176 517 1189 q 463 1164 469 1164 q 449 1172 457 1164 q 435 1192 442 1181 q 429 1210 429 1203 q 449 1230 429 1218 q 499 1251 468 1242 q 563 1260 531 1260 q 627 1252 593 1260 q 685 1224 661 1244 q 708 1168 708 1204 q 689 1111 708 1138 q 642 1067 669 1085 q 591 1038 615 1049 q 556 1028 567 1028 z "},"Ư":{"ha":1139,"x_min":146,"x_max":1139,"o":"m 568 -8 q 253 73 360 -8 q 146 311 146 154 l 146 944 q 159 967 146 960 q 203 975 172 975 l 214 975 q 258 967 246 975 q 271 944 271 960 l 271 307 q 347 151 271 204 q 568 97 422 97 q 792 151 717 97 q 868 307 868 204 l 868 944 q 881 967 868 960 q 925 975 894 975 l 936 975 q 981 967 968 975 q 993 944 993 960 l 993 311 q 885 73 993 154 q 568 -8 778 -8 m 925 922 l 925 975 l 994 975 q 1044 990 1035 975 q 1054 1021 1054 1004 q 1046 1060 1054 1043 q 1029 1092 1038 1078 q 1021 1114 1021 1106 q 1033 1135 1021 1125 q 1059 1151 1044 1144 q 1082 1157 1074 1157 q 1110 1140 1097 1157 q 1131 1099 1124 1122 q 1139 1054 1139 1075 q 1110 959 1139 996 q 994 922 1081 922 l 925 922 z "},"Ứ":{"ha":1139,"x_min":146,"x_max":1139,"o":"m 568 -8 q 253 73 360 -8 q 146 311 146 154 l 146 944 q 159 967 146 960 q 203 975 172 975 l 214 975 q 258 967 246 975 q 271 944 271 960 l 271 307 q 347 151 271 204 q 568 97 422 97 q 792 151 717 97 q 868 307 868 204 l 868 944 q 881 967 868 960 q 925 975 894 975 l 936 975 q 981 967 968 975 q 993 944 993 960 l 993 311 q 885 73 993 154 q 568 -8 778 -8 m 925 922 l 925 975 l 994 975 q 1044 990 1035 975 q 1054 1021 1054 1004 q 1046 1060 1054 1043 q 1029 1092 1038 1078 q 1021 1114 1021 1106 q 1033 1135 1021 1125 q 1059 1151 1044 1144 q 1082 1157 1074 1157 q 1110 1140 1097 1157 q 1131 1099 1124 1122 q 1139 1054 1139 1075 q 1110 959 1139 996 q 994 922 1081 922 l 925 922 m 485 1044 q 458 1049 468 1044 q 449 1063 449 1054 q 451 1075 449 1068 q 464 1089 454 1082 l 567 1168 q 608 1192 588 1183 q 672 1200 629 1200 q 725 1194 704 1200 q 746 1175 746 1188 q 738 1151 746 1164 q 690 1119 731 1139 l 594 1074 q 542 1052 564 1060 q 485 1044 519 1044 z "},"Ự":{"ha":1139,"x_min":146,"x_max":1139,"o":"m 568 -8 q 253 73 360 -8 q 146 311 146 154 l 146 944 q 159 967 146 960 q 203 975 172 975 l 214 975 q 258 967 246 975 q 271 944 271 960 l 271 307 q 347 151 271 204 q 568 97 422 97 q 792 151 717 97 q 868 307 868 204 l 868 944 q 881 967 868 960 q 925 975 894 975 l 936 975 q 981 967 968 975 q 993 944 993 960 l 993 311 q 885 73 993 154 q 568 -8 778 -8 m 925 922 l 925 975 l 994 975 q 1044 990 1035 975 q 1054 1021 1054 1004 q 1046 1060 1054 1043 q 1029 1092 1038 1078 q 1021 1114 1021 1106 q 1033 1135 1021 1125 q 1059 1151 1044 1144 q 1082 1157 1074 1157 q 1110 1140 1097 1157 q 1131 1099 1124 1122 q 1139 1054 1139 1075 q 1110 959 1139 996 q 994 922 1081 922 l 925 922 m 569 -243 q 524 -235 539 -243 q 510 -212 510 -228 l 510 -142 q 524 -119 510 -126 q 569 -111 539 -111 q 615 -119 601 -111 q 629 -142 629 -126 l 629 -212 q 615 -235 629 -228 q 569 -243 601 -243 z "},"Ừ":{"ha":1139,"x_min":146,"x_max":1139,"o":"m 568 -8 q 253 73 360 -8 q 146 311 146 154 l 146 944 q 159 967 146 960 q 203 975 172 975 l 214 975 q 258 967 246 975 q 271 944 271 960 l 271 307 q 347 151 271 204 q 568 97 422 97 q 792 151 717 97 q 868 307 868 204 l 868 944 q 881 967 868 960 q 925 975 894 975 l 936 975 q 981 967 968 975 q 993 944 993 960 l 993 311 q 885 73 993 154 q 568 -8 778 -8 m 925 922 l 925 975 l 994 975 q 1044 990 1035 975 q 1054 1021 1054 1004 q 1046 1060 1054 1043 q 1029 1092 1038 1078 q 1021 1114 1021 1106 q 1033 1135 1021 1125 q 1059 1151 1044 1144 q 1082 1157 1074 1157 q 1110 1140 1097 1157 q 1131 1099 1124 1122 q 1139 1054 1139 1075 q 1110 959 1139 996 q 994 922 1081 922 l 925 922 m 651 1044 q 595 1052 617 1044 q 542 1074 574 1060 l 446 1119 q 399 1151 407 1139 q 390 1175 390 1164 q 411 1194 390 1188 q 464 1200 432 1200 q 528 1192 508 1200 q 569 1168 549 1183 l 672 1089 q 685 1075 682 1082 q 688 1063 688 1068 q 678 1049 688 1054 q 651 1044 668 1044 z "},"Ử":{"ha":1139,"x_min":146,"x_max":1139,"o":"m 568 -8 q 253 73 360 -8 q 146 311 146 154 l 146 944 q 159 967 146 960 q 203 975 172 975 l 214 975 q 258 967 246 975 q 271 944 271 960 l 271 307 q 347 151 271 204 q 568 97 422 97 q 792 151 717 97 q 868 307 868 204 l 868 944 q 881 967 868 960 q 925 975 894 975 l 936 975 q 981 967 968 975 q 993 944 993 960 l 993 311 q 885 73 993 154 q 568 -8 778 -8 m 925 922 l 925 975 l 994 975 q 1044 990 1035 975 q 1054 1021 1054 1004 q 1046 1060 1054 1043 q 1029 1092 1038 1078 q 1021 1114 1021 1106 q 1033 1135 1021 1125 q 1059 1151 1044 1144 q 1082 1157 1074 1157 q 1110 1140 1097 1157 q 1131 1099 1124 1122 q 1139 1054 1139 1075 q 1110 959 1139 996 q 994 922 1081 922 l 925 922 m 556 1028 q 535 1040 546 1028 q 524 1063 524 1053 q 539 1077 524 1068 q 575 1097 554 1086 q 611 1123 596 1108 q 626 1154 626 1138 q 605 1181 626 1172 q 553 1189 583 1189 q 493 1176 517 1189 q 463 1164 469 1164 q 449 1172 457 1164 q 435 1192 442 1181 q 429 1210 429 1203 q 449 1230 429 1218 q 499 1251 468 1242 q 563 1260 531 1260 q 627 1252 593 1260 q 685 1224 661 1244 q 708 1168 708 1204 q 689 1111 708 1138 q 642 1067 669 1085 q 591 1038 615 1049 q 556 1028 567 1028 z "},"Ữ":{"ha":1139,"x_min":146,"x_max":1139,"o":"m 568 -8 q 253 73 360 -8 q 146 311 146 154 l 146 944 q 159 967 146 960 q 203 975 172 975 l 214 975 q 258 967 246 975 q 271 944 271 960 l 271 307 q 347 151 271 204 q 568 97 422 97 q 792 151 717 97 q 868 307 868 204 l 868 944 q 881 967 868 960 q 925 975 894 975 l 936 975 q 981 967 968 975 q 993 944 993 960 l 993 311 q 885 73 993 154 q 568 -8 778 -8 m 925 922 l 925 975 l 994 975 q 1044 990 1035 975 q 1054 1021 1054 1004 q 1046 1060 1054 1043 q 1029 1092 1038 1078 q 1021 1114 1021 1106 q 1033 1135 1021 1125 q 1059 1151 1044 1144 q 1082 1157 1074 1157 q 1110 1140 1097 1157 q 1131 1099 1124 1122 q 1139 1054 1139 1075 q 1110 959 1139 996 q 994 922 1081 922 l 925 922 m 361 1046 q 345 1049 356 1046 q 326 1058 335 1053 q 318 1071 318 1064 q 319 1081 318 1076 q 322 1092 321 1086 q 379 1163 346 1143 q 444 1182 413 1182 q 535 1169 489 1182 q 622 1144 581 1157 q 694 1131 664 1131 q 736 1145 722 1131 q 757 1174 750 1160 q 772 1188 764 1188 q 801 1179 783 1188 q 818 1163 818 1171 q 815 1148 818 1158 q 803 1118 813 1138 q 763 1068 785 1086 q 692 1050 740 1050 q 597 1063 643 1050 q 510 1089 550 1076 q 438 1101 469 1101 q 401 1088 414 1101 q 379 1060 388 1074 q 361 1046 371 1046 z "},"Ű":{"ha":1139,"x_min":146,"x_max":993,"o":"m 568 -8 q 253 73 360 -8 q 146 311 146 154 l 146 944 q 159 967 146 960 q 203 975 172 975 l 214 975 q 258 967 246 975 q 271 944 271 960 l 271 307 q 347 151 271 204 q 568 97 422 97 q 792 151 717 97 q 868 307 868 204 l 868 944 q 881 967 868 960 q 925 975 894 975 l 936 975 q 981 967 968 975 q 993 944 993 960 l 993 311 q 885 73 993 154 q 568 -8 778 -8 m 379 1044 q 353 1049 363 1044 q 343 1063 343 1054 q 346 1075 343 1068 q 358 1089 349 1082 l 461 1168 q 503 1192 482 1183 q 567 1200 524 1200 q 619 1194 599 1200 q 640 1175 640 1188 q 633 1151 640 1164 q 585 1119 625 1139 l 489 1074 q 436 1052 458 1060 q 379 1044 414 1044 m 651 1044 q 625 1049 635 1044 q 615 1063 615 1054 q 618 1075 615 1068 q 631 1089 621 1082 l 733 1168 q 775 1192 754 1183 q 839 1200 796 1200 q 892 1194 871 1200 q 913 1175 913 1188 q 905 1151 913 1164 q 857 1119 897 1139 l 761 1074 q 708 1052 731 1060 q 651 1044 686 1044 z "},"Ȗ":{"ha":1139,"x_min":146,"x_max":993,"o":"m 568 -8 q 253 73 360 -8 q 146 311 146 154 l 146 944 q 159 967 146 960 q 203 975 172 975 l 214 975 q 258 967 246 975 q 271 944 271 960 l 271 307 q 347 151 271 204 q 568 97 422 97 q 792 151 717 97 q 868 307 868 204 l 868 944 q 881 967 868 960 q 925 975 894 975 l 936 975 q 981 967 968 975 q 993 944 993 960 l 993 311 q 885 73 993 154 q 568 -8 778 -8 m 397 1033 q 377 1042 383 1033 q 371 1068 371 1050 q 395 1143 371 1110 q 464 1195 419 1176 q 568 1214 508 1214 q 672 1195 628 1214 q 740 1143 715 1176 q 764 1068 764 1110 q 758 1042 764 1050 q 740 1033 753 1033 q 711 1056 721 1033 q 660 1106 699 1089 q 568 1122 621 1122 q 474 1106 513 1122 q 425 1056 436 1089 q 414 1038 419 1043 q 397 1033 408 1033 z "},"Ū":{"ha":1139,"x_min":146,"x_max":993,"o":"m 568 -8 q 253 73 360 -8 q 146 311 146 154 l 146 944 q 159 967 146 960 q 203 975 172 975 l 214 975 q 258 967 246 975 q 271 944 271 960 l 271 307 q 347 151 271 204 q 568 97 422 97 q 792 151 717 97 q 868 307 868 204 l 868 944 q 881 967 868 960 q 925 975 894 975 l 936 975 q 981 967 968 975 q 993 944 993 960 l 993 311 q 885 73 993 154 q 568 -8 778 -8 m 386 1075 q 360 1117 360 1075 l 360 1131 q 386 1172 360 1172 l 750 1172 q 776 1131 776 1172 l 776 1117 q 750 1075 776 1075 l 386 1075 z "},"Ų":{"ha":1139,"x_min":146,"x_max":993,"o":"m 568 -8 q 253 73 360 -8 q 146 311 146 154 l 146 944 q 159 967 146 960 q 203 975 172 975 l 214 975 q 258 967 246 975 q 271 944 271 960 l 271 307 q 347 151 271 204 q 568 97 422 97 q 792 151 717 97 q 868 307 868 204 l 868 944 q 881 967 868 960 q 925 975 894 975 l 936 975 q 981 967 968 975 q 993 944 993 960 l 993 311 q 885 73 993 154 q 568 -8 778 -8 m 686 -254 q 580 -226 618 -254 q 542 -146 542 -197 q 558 -83 542 -115 q 606 -23 574 -51 q 686 24 638 6 l 756 14 q 668 -47 700 -12 q 636 -118 636 -81 q 650 -153 636 -140 q 690 -165 664 -165 q 740 -158 719 -165 q 774 -143 760 -150 q 797 -136 788 -136 q 813 -146 806 -136 q 823 -168 819 -156 q 826 -190 826 -181 q 803 -222 826 -207 q 748 -245 781 -236 q 686 -254 715 -254 z "},"Ů":{"ha":1139,"x_min":146,"x_max":993,"o":"m 568 -8 q 253 73 360 -8 q 146 311 146 154 l 146 944 q 159 967 146 960 q 203 975 172 975 l 214 975 q 258 967 246 975 q 271 944 271 960 l 271 307 q 347 151 271 204 q 568 97 422 97 q 792 151 717 97 q 868 307 868 204 l 868 944 q 881 967 868 960 q 925 975 894 975 l 936 975 q 981 967 968 975 q 993 944 993 960 l 993 311 q 885 73 993 154 q 568 -8 778 -8 m 568 1038 q 472 1069 508 1038 q 436 1154 436 1101 q 472 1240 436 1208 q 568 1272 508 1272 q 665 1240 629 1272 q 700 1154 700 1208 q 665 1069 700 1101 q 568 1038 629 1038 m 568 1104 q 613 1117 597 1104 q 628 1154 628 1131 q 613 1192 628 1178 q 568 1206 597 1206 q 525 1192 542 1206 q 508 1154 508 1178 q 525 1117 508 1131 q 568 1104 542 1104 z "},"Ũ":{"ha":1139,"x_min":146,"x_max":993,"o":"m 568 -8 q 253 73 360 -8 q 146 311 146 154 l 146 944 q 159 967 146 960 q 203 975 172 975 l 214 975 q 258 967 246 975 q 271 944 271 960 l 271 307 q 347 151 271 204 q 568 97 422 97 q 792 151 717 97 q 868 307 868 204 l 868 944 q 881 967 868 960 q 925 975 894 975 l 936 975 q 981 967 968 975 q 993 944 993 960 l 993 311 q 885 73 993 154 q 568 -8 778 -8 m 361 1046 q 345 1049 356 1046 q 326 1058 335 1053 q 318 1071 318 1064 q 319 1081 318 1076 q 322 1092 321 1086 q 379 1163 346 1143 q 444 1182 413 1182 q 535 1169 489 1182 q 622 1144 581 1157 q 694 1131 664 1131 q 736 1145 722 1131 q 757 1174 750 1160 q 772 1188 764 1188 q 801 1179 783 1188 q 818 1163 818 1171 q 815 1148 818 1158 q 803 1118 813 1138 q 763 1068 785 1086 q 692 1050 740 1050 q 597 1063 643 1050 q 510 1089 550 1076 q 438 1101 469 1101 q 401 1088 414 1101 q 379 1060 388 1074 q 361 1046 371 1046 z "},"V":{"ha":1021,"x_min":32,"x_max":989,"o":"m 488 -3 q 442 4 458 -3 q 418 26 425 11 l 36 933 q 33 943 35 939 q 32 951 32 947 q 47 969 32 963 q 92 975 61 975 l 104 975 q 141 971 126 975 q 163 949 156 967 l 508 83 l 514 83 l 863 949 q 884 971 869 967 q 919 975 899 975 l 929 975 q 975 969 961 975 q 989 951 989 963 q 988 943 989 947 q 985 932 988 939 l 603 26 q 580 4 597 11 q 533 -3 563 -3 l 488 -3 z "},"W":{"ha":1458,"x_min":32,"x_max":1426,"o":"m 389 -3 q 342 4 360 -3 q 319 26 325 11 l 36 933 q 33 943 35 939 q 32 951 32 947 q 47 969 32 963 q 92 975 61 975 l 104 975 q 142 972 126 975 q 163 949 157 968 l 407 83 l 413 83 l 646 946 q 667 968 650 961 q 711 975 685 975 l 751 975 q 796 968 779 975 q 817 946 813 961 l 1043 83 l 1049 83 l 1300 949 q 1321 972 1306 968 q 1357 975 1336 975 l 1367 975 q 1413 969 1399 975 q 1426 951 1426 963 q 1426 943 1426 947 q 1422 932 1425 939 l 1139 26 q 1116 4 1133 11 q 1069 -3 1099 -3 l 1024 -3 q 976 4 994 -3 q 954 26 958 11 l 732 847 l 726 847 l 504 26 q 482 4 500 11 q 435 -3 464 -3 l 389 -3 z "},"Ẃ":{"ha":1458,"x_min":32,"x_max":1426,"o":"m 389 -3 q 342 4 360 -3 q 319 26 325 11 l 36 933 q 33 943 35 939 q 32 951 32 947 q 47 969 32 963 q 92 975 61 975 l 104 975 q 142 972 126 975 q 163 949 157 968 l 407 83 l 413 83 l 646 946 q 667 968 650 961 q 711 975 685 975 l 751 975 q 796 968 779 975 q 817 946 813 961 l 1043 83 l 1049 83 l 1300 949 q 1321 972 1306 968 q 1357 975 1336 975 l 1367 975 q 1413 969 1399 975 q 1426 951 1426 963 q 1426 943 1426 947 q 1422 932 1425 939 l 1139 26 q 1116 4 1133 11 q 1069 -3 1099 -3 l 1024 -3 q 976 4 994 -3 q 954 26 958 11 l 732 847 l 726 847 l 504 26 q 482 4 500 11 q 435 -3 464 -3 l 389 -3 m 646 1044 q 619 1049 629 1044 q 610 1063 610 1054 q 613 1075 610 1068 q 625 1089 615 1082 l 728 1168 q 769 1192 749 1183 q 833 1200 790 1200 q 886 1194 865 1200 q 907 1175 907 1188 q 899 1151 907 1164 q 851 1119 892 1139 l 756 1074 q 703 1052 725 1060 q 646 1044 681 1044 z "},"Ŵ":{"ha":1458,"x_min":32,"x_max":1426,"o":"m 389 -3 q 342 4 360 -3 q 319 26 325 11 l 36 933 q 33 943 35 939 q 32 951 32 947 q 47 969 32 963 q 92 975 61 975 l 104 975 q 142 972 126 975 q 163 949 157 968 l 407 83 l 413 83 l 646 946 q 667 968 650 961 q 711 975 685 975 l 751 975 q 796 968 779 975 q 817 946 813 961 l 1043 83 l 1049 83 l 1300 949 q 1321 972 1306 968 q 1357 975 1336 975 l 1367 975 q 1413 969 1399 975 q 1426 951 1426 963 q 1426 943 1426 947 q 1422 932 1425 939 l 1139 26 q 1116 4 1133 11 q 1069 -3 1099 -3 l 1024 -3 q 976 4 994 -3 q 954 26 958 11 l 732 847 l 726 847 l 504 26 q 482 4 500 11 q 435 -3 464 -3 l 389 -3 m 557 1031 q 530 1035 539 1031 q 521 1047 521 1040 q 527 1062 521 1054 q 547 1081 533 1069 l 651 1165 q 671 1178 661 1174 q 694 1184 681 1182 q 729 1186 708 1186 q 764 1184 750 1186 q 788 1178 778 1182 q 807 1165 797 1174 l 911 1081 q 932 1062 926 1069 q 938 1047 938 1054 q 928 1035 938 1040 q 901 1031 919 1031 q 876 1035 888 1031 q 850 1046 865 1039 l 729 1101 l 610 1046 q 584 1035 596 1039 q 557 1031 572 1031 z "},"Ẅ":{"ha":1458,"x_min":32,"x_max":1426,"o":"m 389 -3 q 342 4 360 -3 q 319 26 325 11 l 36 933 q 33 943 35 939 q 32 951 32 947 q 47 969 32 963 q 92 975 61 975 l 104 975 q 142 972 126 975 q 163 949 157 968 l 407 83 l 413 83 l 646 946 q 667 968 650 961 q 711 975 685 975 l 751 975 q 796 968 779 975 q 817 946 813 961 l 1043 83 l 1049 83 l 1300 949 q 1321 972 1306 968 q 1357 975 1336 975 l 1367 975 q 1413 969 1399 975 q 1426 951 1426 963 q 1426 943 1426 947 q 1422 932 1425 939 l 1139 26 q 1116 4 1133 11 q 1069 -3 1099 -3 l 1024 -3 q 976 4 994 -3 q 954 26 958 11 l 732 847 l 726 847 l 504 26 q 482 4 500 11 q 435 -3 464 -3 l 389 -3 m 856 1053 q 809 1060 824 1053 q 794 1083 794 1068 l 794 1161 q 809 1184 794 1176 q 856 1192 824 1192 q 902 1184 888 1192 q 917 1161 917 1176 l 917 1083 q 902 1060 917 1068 q 856 1053 888 1053 m 603 1053 q 556 1060 571 1053 q 542 1083 542 1068 l 542 1161 q 556 1184 542 1176 q 603 1192 571 1192 q 649 1184 635 1192 q 664 1161 664 1176 l 664 1083 q 649 1060 664 1068 q 603 1053 635 1053 z "},"Ẁ":{"ha":1458,"x_min":32,"x_max":1426,"o":"m 389 -3 q 342 4 360 -3 q 319 26 325 11 l 36 933 q 33 943 35 939 q 32 951 32 947 q 47 969 32 963 q 92 975 61 975 l 104 975 q 142 972 126 975 q 163 949 157 968 l 407 83 l 413 83 l 646 946 q 667 968 650 961 q 711 975 685 975 l 751 975 q 796 968 779 975 q 817 946 813 961 l 1043 83 l 1049 83 l 1300 949 q 1321 972 1306 968 q 1357 975 1336 975 l 1367 975 q 1413 969 1399 975 q 1426 951 1426 963 q 1426 943 1426 947 q 1422 932 1425 939 l 1139 26 q 1116 4 1133 11 q 1069 -3 1099 -3 l 1024 -3 q 976 4 994 -3 q 954 26 958 11 l 732 847 l 726 847 l 504 26 q 482 4 500 11 q 435 -3 464 -3 l 389 -3 m 813 1044 q 756 1052 778 1044 q 703 1074 735 1060 l 607 1119 q 560 1151 568 1139 q 551 1175 551 1164 q 572 1194 551 1188 q 625 1200 593 1200 q 690 1192 669 1200 q 731 1168 710 1183 l 833 1089 q 846 1075 843 1082 q 849 1063 849 1068 q 839 1049 849 1054 q 813 1044 829 1044 z "},"X":{"ha":1014,"x_min":11,"x_max":1003,"o":"m 75 -3 q 26 3 40 -3 q 11 21 11 8 q 14 33 11 26 q 22 46 17 39 l 425 507 l 44 926 q 36 940 39 933 q 33 951 33 946 q 48 969 33 963 q 97 975 63 975 l 121 975 q 156 971 143 975 q 181 954 169 967 l 504 593 l 822 956 q 848 971 832 967 q 882 975 864 975 l 893 975 q 942 969 928 975 q 957 951 957 964 q 955 940 957 946 q 946 926 953 933 l 576 511 l 992 46 q 1001 33 999 39 q 1003 21 1003 26 q 989 3 1003 10 q 939 -3 975 -3 l 913 -3 q 877 2 890 -3 q 853 18 864 7 l 500 419 l 149 17 q 124 1 139 6 q 89 -3 108 -3 l 75 -3 z "},"Y":{"ha":931,"x_min":32,"x_max":900,"o":"m 460 -3 q 416 6 429 -3 q 403 28 403 14 l 403 485 l 44 926 q 35 940 39 933 q 32 951 32 946 q 47 969 32 963 q 96 975 61 975 l 113 975 q 149 971 135 975 q 172 954 163 967 l 493 558 l 444 558 l 768 956 q 794 971 778 967 q 831 975 810 975 l 843 975 q 887 969 874 975 q 900 951 900 963 q 897 940 900 946 q 888 926 894 933 l 528 481 l 528 28 q 515 6 528 14 q 471 -3 503 -3 l 460 -3 z "},"Ý":{"ha":931,"x_min":32,"x_max":900,"o":"m 460 -3 q 416 6 429 -3 q 403 28 403 14 l 403 485 l 44 926 q 35 940 39 933 q 32 951 32 946 q 47 969 32 963 q 96 975 61 975 l 113 975 q 149 971 135 975 q 172 954 163 967 l 493 558 l 444 558 l 768 956 q 794 971 778 967 q 831 975 810 975 l 843 975 q 887 969 874 975 q 900 951 900 963 q 897 940 900 946 q 888 926 894 933 l 528 481 l 528 28 q 515 6 528 14 q 471 -3 503 -3 l 460 -3 m 382 1044 q 356 1049 365 1044 q 346 1063 346 1054 q 349 1075 346 1068 q 361 1089 351 1082 l 464 1168 q 506 1192 485 1183 q 569 1200 526 1200 q 622 1194 601 1200 q 643 1175 643 1188 q 635 1151 643 1164 q 588 1119 628 1139 l 492 1074 q 439 1052 461 1060 q 382 1044 417 1044 z "},"Ŷ":{"ha":931,"x_min":32,"x_max":900,"o":"m 460 -3 q 416 6 429 -3 q 403 28 403 14 l 403 485 l 44 926 q 35 940 39 933 q 32 951 32 946 q 47 969 32 963 q 96 975 61 975 l 113 975 q 149 971 135 975 q 172 954 163 967 l 493 558 l 444 558 l 768 956 q 794 971 778 967 q 831 975 810 975 l 843 975 q 887 969 874 975 q 900 951 900 963 q 897 940 900 946 q 888 926 894 933 l 528 481 l 528 28 q 515 6 528 14 q 471 -3 503 -3 l 460 -3 m 293 1031 q 266 1035 275 1031 q 257 1047 257 1040 q 263 1062 257 1054 q 283 1081 269 1069 l 388 1165 q 407 1178 397 1174 q 431 1184 417 1182 q 465 1186 444 1186 q 500 1184 486 1186 q 524 1178 514 1182 q 543 1165 533 1174 l 647 1081 q 668 1062 663 1069 q 674 1047 674 1054 q 665 1035 674 1040 q 638 1031 656 1031 q 613 1035 624 1031 q 586 1046 601 1039 l 465 1101 l 346 1046 q 320 1035 332 1039 q 293 1031 308 1031 z "},"Ÿ":{"ha":931,"x_min":32,"x_max":900,"o":"m 460 -3 q 416 6 429 -3 q 403 28 403 14 l 403 485 l 44 926 q 35 940 39 933 q 32 951 32 946 q 47 969 32 963 q 96 975 61 975 l 113 975 q 149 971 135 975 q 172 954 163 967 l 493 558 l 444 558 l 768 956 q 794 971 778 967 q 831 975 810 975 l 843 975 q 887 969 874 975 q 900 951 900 963 q 897 940 900 946 q 888 926 894 933 l 528 481 l 528 28 q 515 6 528 14 q 471 -3 503 -3 l 460 -3 m 592 1053 q 545 1060 560 1053 q 531 1083 531 1068 l 531 1161 q 545 1184 531 1176 q 592 1192 560 1192 q 638 1184 624 1192 q 653 1161 653 1176 l 653 1083 q 638 1060 653 1068 q 592 1053 624 1053 m 339 1053 q 292 1060 307 1053 q 278 1083 278 1068 l 278 1161 q 292 1184 278 1176 q 339 1192 307 1192 q 385 1184 371 1192 q 400 1161 400 1176 l 400 1083 q 385 1060 400 1068 q 339 1053 371 1053 z "},"Ỵ":{"ha":931,"x_min":32,"x_max":900,"o":"m 460 -3 q 416 6 429 -3 q 403 28 403 14 l 403 485 l 44 926 q 35 940 39 933 q 32 951 32 946 q 47 969 32 963 q 96 975 61 975 l 113 975 q 149 971 135 975 q 172 954 163 967 l 493 558 l 444 558 l 768 956 q 794 971 778 967 q 831 975 810 975 l 843 975 q 887 969 874 975 q 900 951 900 963 q 897 940 900 946 q 888 926 894 933 l 528 481 l 528 28 q 515 6 528 14 q 471 -3 503 -3 l 460 -3 m 465 -243 q 420 -235 435 -243 q 406 -212 406 -228 l 406 -142 q 420 -119 406 -126 q 465 -111 435 -111 q 511 -119 497 -111 q 525 -142 525 -126 l 525 -212 q 511 -235 525 -228 q 465 -243 497 -243 z "},"Ỳ":{"ha":931,"x_min":32,"x_max":900,"o":"m 460 -3 q 416 6 429 -3 q 403 28 403 14 l 403 485 l 44 926 q 35 940 39 933 q 32 951 32 946 q 47 969 32 963 q 96 975 61 975 l 113 975 q 149 971 135 975 q 172 954 163 967 l 493 558 l 444 558 l 768 956 q 794 971 778 967 q 831 975 810 975 l 843 975 q 887 969 874 975 q 900 951 900 963 q 897 940 900 946 q 888 926 894 933 l 528 481 l 528 28 q 515 6 528 14 q 471 -3 503 -3 l 460 -3 m 549 1044 q 492 1052 514 1044 q 439 1074 471 1060 l 343 1119 q 296 1151 304 1139 q 288 1175 288 1164 q 308 1194 288 1188 q 361 1200 329 1200 q 426 1192 406 1200 q 467 1168 446 1183 l 569 1089 q 582 1075 579 1082 q 585 1063 585 1068 q 575 1049 585 1054 q 549 1044 565 1044 z "},"Ỷ":{"ha":931,"x_min":32,"x_max":900,"o":"m 460 -3 q 416 6 429 -3 q 403 28 403 14 l 403 485 l 44 926 q 35 940 39 933 q 32 951 32 946 q 47 969 32 963 q 96 975 61 975 l 113 975 q 149 971 135 975 q 172 954 163 967 l 493 558 l 444 558 l 768 956 q 794 971 778 967 q 831 975 810 975 l 843 975 q 887 969 874 975 q 900 951 900 963 q 897 940 900 946 q 888 926 894 933 l 528 481 l 528 28 q 515 6 528 14 q 471 -3 503 -3 l 460 -3 m 453 1028 q 432 1040 443 1028 q 421 1063 421 1053 q 436 1077 421 1068 q 472 1097 451 1086 q 508 1123 493 1108 q 524 1154 524 1138 q 502 1181 524 1172 q 450 1189 481 1189 q 390 1176 414 1189 q 360 1164 367 1164 q 347 1172 354 1164 q 333 1192 339 1181 q 326 1210 326 1203 q 346 1230 326 1218 q 397 1251 365 1242 q 460 1260 428 1260 q 524 1252 490 1260 q 582 1224 558 1244 q 606 1168 606 1204 q 586 1111 606 1138 q 540 1067 567 1085 q 488 1038 513 1049 q 453 1028 464 1028 z "},"Ȳ":{"ha":931,"x_min":32,"x_max":900,"o":"m 460 -3 q 416 6 429 -3 q 403 28 403 14 l 403 485 l 44 926 q 35 940 39 933 q 32 951 32 946 q 47 969 32 963 q 96 975 61 975 l 113 975 q 149 971 135 975 q 172 954 163 967 l 493 558 l 444 558 l 768 956 q 794 971 778 967 q 831 975 810 975 l 843 975 q 887 969 874 975 q 900 951 900 963 q 897 940 900 946 q 888 926 894 933 l 528 481 l 528 28 q 515 6 528 14 q 471 -3 503 -3 l 460 -3 m 283 1075 q 257 1117 257 1075 l 257 1131 q 283 1172 257 1172 l 647 1172 q 674 1131 674 1172 l 674 1117 q 647 1075 674 1075 l 283 1075 z "},"Ỹ":{"ha":931,"x_min":32,"x_max":900,"o":"m 460 -3 q 416 6 429 -3 q 403 28 403 14 l 403 485 l 44 926 q 35 940 39 933 q 32 951 32 946 q 47 969 32 963 q 96 975 61 975 l 113 975 q 149 971 135 975 q 172 954 163 967 l 493 558 l 444 558 l 768 956 q 794 971 778 967 q 831 975 810 975 l 843 975 q 887 969 874 975 q 900 951 900 963 q 897 940 900 946 q 888 926 894 933 l 528 481 l 528 28 q 515 6 528 14 q 471 -3 503 -3 l 460 -3 m 258 1046 q 242 1049 253 1046 q 224 1058 232 1053 q 215 1071 215 1064 q 217 1081 215 1076 q 219 1092 218 1086 q 276 1163 243 1143 q 342 1182 310 1182 q 432 1169 386 1182 q 519 1144 478 1157 q 592 1131 561 1131 q 633 1145 619 1131 q 654 1174 647 1160 q 669 1188 661 1188 q 698 1179 681 1188 q 715 1163 715 1171 q 713 1148 715 1158 q 700 1118 710 1138 q 660 1068 682 1086 q 589 1050 638 1050 q 494 1063 540 1050 q 407 1089 447 1076 q 335 1101 367 1101 q 298 1088 311 1101 q 276 1060 285 1074 q 258 1046 268 1046 z "},"Z":{"ha":972,"x_min":74,"x_max":899,"o":"m 114 0 q 98 7 106 0 q 85 26 90 14 q 77 50 81 38 q 74 72 74 63 q 75 86 74 79 q 82 100 76 93 l 763 913 l 799 867 l 114 867 q 88 908 88 867 l 88 931 q 114 972 88 972 l 858 972 q 874 965 867 972 q 887 947 882 958 q 895 923 892 935 q 899 900 899 911 q 898 886 899 893 q 890 872 897 879 l 210 60 l 176 106 l 868 106 q 896 64 896 106 l 896 42 q 868 0 896 0 l 114 0 z "},"Ź":{"ha":972,"x_min":74,"x_max":899,"o":"m 114 0 q 98 7 106 0 q 85 26 90 14 q 77 50 81 38 q 74 72 74 63 q 75 86 74 79 q 82 100 76 93 l 763 913 l 799 867 l 114 867 q 88 908 88 867 l 88 931 q 114 972 88 972 l 858 972 q 874 965 867 972 q 887 947 882 958 q 895 923 892 935 q 899 900 899 911 q 898 886 899 893 q 890 872 897 879 l 210 60 l 176 106 l 868 106 q 896 64 896 106 l 896 42 q 868 0 896 0 l 114 0 m 403 1044 q 376 1049 386 1044 q 367 1063 367 1054 q 369 1075 367 1068 q 382 1089 372 1082 l 485 1168 q 526 1192 506 1183 q 590 1200 547 1200 q 643 1194 622 1200 q 664 1175 664 1188 q 656 1151 664 1164 q 608 1119 649 1139 l 513 1074 q 460 1052 482 1060 q 403 1044 438 1044 z "},"Ž":{"ha":972,"x_min":74,"x_max":899,"o":"m 114 0 q 98 7 106 0 q 85 26 90 14 q 77 50 81 38 q 74 72 74 63 q 75 86 74 79 q 82 100 76 93 l 763 913 l 799 867 l 114 867 q 88 908 88 867 l 88 931 q 114 972 88 972 l 858 972 q 874 965 867 972 q 887 947 882 958 q 895 923 892 935 q 899 900 899 911 q 898 886 899 893 q 890 872 897 879 l 210 60 l 176 106 l 868 106 q 896 64 896 106 l 896 42 q 868 0 896 0 l 114 0 m 658 1186 q 685 1181 676 1186 q 694 1169 694 1176 q 689 1155 694 1163 q 668 1136 683 1147 l 564 1051 q 544 1040 554 1044 q 521 1033 535 1035 q 486 1031 507 1031 q 451 1033 465 1031 q 428 1040 438 1035 q 408 1051 418 1044 l 304 1136 q 284 1155 290 1147 q 278 1169 278 1163 q 287 1181 278 1176 q 314 1186 296 1186 q 340 1182 329 1186 q 365 1171 351 1178 l 486 1115 l 606 1171 q 633 1182 621 1178 q 658 1186 644 1186 z "},"Ż":{"ha":972,"x_min":74,"x_max":899,"o":"m 114 0 q 98 7 106 0 q 85 26 90 14 q 77 50 81 38 q 74 72 74 63 q 75 86 74 79 q 82 100 76 93 l 763 913 l 799 867 l 114 867 q 88 908 88 867 l 88 931 q 114 972 88 972 l 858 972 q 874 965 867 972 q 887 947 882 958 q 895 923 892 935 q 899 900 899 911 q 898 886 899 893 q 890 872 897 879 l 210 60 l 176 106 l 868 106 q 896 64 896 106 l 896 42 q 868 0 896 0 l 114 0 m 486 1051 q 438 1060 451 1051 q 424 1082 424 1068 l 424 1165 q 438 1188 424 1179 q 486 1196 451 1196 q 535 1188 521 1196 q 549 1165 549 1181 l 549 1082 q 535 1060 549 1068 q 486 1051 521 1051 z "},"Ẓ":{"ha":972,"x_min":74,"x_max":899,"o":"m 114 0 q 98 7 106 0 q 85 26 90 14 q 77 50 81 38 q 74 72 74 63 q 75 86 74 79 q 82 100 76 93 l 763 913 l 799 867 l 114 867 q 88 908 88 867 l 88 931 q 114 972 88 972 l 858 972 q 874 965 867 972 q 887 947 882 958 q 895 923 892 935 q 899 900 899 911 q 898 886 899 893 q 890 872 897 879 l 210 60 l 176 106 l 868 106 q 896 64 896 106 l 896 42 q 868 0 896 0 l 114 0 m 486 -243 q 441 -235 456 -243 q 426 -212 426 -228 l 426 -142 q 441 -119 426 -126 q 486 -111 456 -111 q 532 -119 518 -111 q 546 -142 546 -126 l 546 -212 q 532 -235 546 -228 q 486 -243 518 -243 z "},"a":{"ha":924,"x_min":88,"x_max":799,"o":"m 335 -8 q 150 48 213 -8 q 88 214 88 104 q 114 331 88 285 q 205 403 140 376 q 381 442 269 431 q 663 453 493 453 l 663 476 q 642 570 663 536 q 572 619 621 604 q 440 635 524 635 q 306 621 367 635 q 205 593 244 607 q 154 579 165 579 q 141 586 147 579 q 129 604 135 593 q 120 626 124 615 q 117 646 117 638 q 148 672 117 657 q 228 701 179 688 q 335 725 278 715 q 443 735 392 735 q 598 717 533 735 q 703 667 663 700 q 763 585 744 633 q 782 475 782 536 l 782 211 q 786 115 782 153 q 794 56 790 76 q 799 32 799 36 q 790 16 799 22 q 768 6 781 10 q 743 1 756 3 q 724 0 731 0 q 701 10 710 0 q 688 42 693 21 q 675 96 682 64 q 576 39 631 63 q 462 3 522 15 q 335 -8 401 -8 m 340 93 q 447 102 394 93 q 554 132 500 111 q 663 189 608 153 l 663 353 q 431 347 519 353 q 294 324 342 340 q 230 282 247 308 q 213 214 213 256 q 244 124 213 154 q 340 93 276 93 z "},"á":{"ha":924,"x_min":88,"x_max":799,"o":"m 335 -8 q 150 48 213 -8 q 88 214 88 104 q 114 331 88 285 q 205 403 140 376 q 381 442 269 431 q 663 453 493 453 l 663 476 q 642 570 663 536 q 572 619 621 604 q 440 635 524 635 q 306 621 367 635 q 205 593 244 607 q 154 579 165 579 q 141 586 147 579 q 129 604 135 593 q 120 626 124 615 q 117 646 117 638 q 148 672 117 657 q 228 701 179 688 q 335 725 278 715 q 443 735 392 735 q 598 717 533 735 q 703 667 663 700 q 763 585 744 633 q 782 475 782 536 l 782 211 q 786 115 782 153 q 794 56 790 76 q 799 32 799 36 q 790 16 799 22 q 768 6 781 10 q 743 1 756 3 q 724 0 731 0 q 701 10 710 0 q 688 42 693 21 q 675 96 682 64 q 576 39 631 63 q 462 3 522 15 q 335 -8 401 -8 m 340 93 q 447 102 394 93 q 554 132 500 111 q 663 189 608 153 l 663 353 q 431 347 519 353 q 294 324 342 340 q 230 282 247 308 q 213 214 213 256 q 244 124 213 154 q 340 93 276 93 m 379 800 q 356 805 364 800 q 349 818 349 810 q 353 834 349 825 q 364 856 358 843 l 419 961 q 435 981 426 974 q 460 993 443 989 q 506 997 476 997 q 555 992 538 997 q 572 975 572 988 q 564 953 572 965 q 535 917 556 940 l 460 833 q 435 812 447 819 q 411 802 424 804 q 379 800 399 800 z "},"ă":{"ha":924,"x_min":88,"x_max":799,"o":"m 335 -8 q 150 48 213 -8 q 88 214 88 104 q 114 331 88 285 q 205 403 140 376 q 381 442 269 431 q 663 453 493 453 l 663 476 q 642 570 663 536 q 572 619 621 604 q 440 635 524 635 q 306 621 367 635 q 205 593 244 607 q 154 579 165 579 q 141 586 147 579 q 129 604 135 593 q 120 626 124 615 q 117 646 117 638 q 148 672 117 657 q 228 701 179 688 q 335 725 278 715 q 443 735 392 735 q 598 717 533 735 q 703 667 663 700 q 763 585 744 633 q 782 475 782 536 l 782 211 q 786 115 782 153 q 794 56 790 76 q 799 32 799 36 q 790 16 799 22 q 768 6 781 10 q 743 1 756 3 q 724 0 731 0 q 701 10 710 0 q 688 42 693 21 q 675 96 682 64 q 576 39 631 63 q 462 3 522 15 q 335 -8 401 -8 m 340 93 q 447 102 394 93 q 554 132 500 111 q 663 189 608 153 l 663 353 q 431 347 519 353 q 294 324 342 340 q 230 282 247 308 q 213 214 213 256 q 244 124 213 154 q 340 93 276 93 m 443 810 q 337 827 386 810 q 258 877 288 844 q 228 956 228 910 q 235 982 228 974 q 254 990 242 990 q 272 987 265 990 q 286 968 278 983 q 338 918 306 935 q 443 901 371 901 q 549 918 517 901 q 597 968 582 935 q 613 987 604 983 q 631 990 621 990 q 650 982 643 990 q 657 956 657 974 q 628 877 657 910 q 551 827 600 844 q 443 810 503 810 z "},"ắ":{"ha":924,"x_min":88,"x_max":799,"o":"m 335 -8 q 150 48 213 -8 q 88 214 88 104 q 114 331 88 285 q 205 403 140 376 q 381 442 269 431 q 663 453 493 453 l 663 476 q 642 570 663 536 q 572 619 621 604 q 440 635 524 635 q 306 621 367 635 q 205 593 244 607 q 154 579 165 579 q 141 586 147 579 q 129 604 135 593 q 120 626 124 615 q 117 646 117 638 q 148 672 117 657 q 228 701 179 688 q 335 725 278 715 q 443 735 392 735 q 598 717 533 735 q 703 667 663 700 q 763 585 744 633 q 782 475 782 536 l 782 211 q 786 115 782 153 q 794 56 790 76 q 799 32 799 36 q 790 16 799 22 q 768 6 781 10 q 743 1 756 3 q 724 0 731 0 q 701 10 710 0 q 688 42 693 21 q 675 96 682 64 q 576 39 631 63 q 462 3 522 15 q 335 -8 401 -8 m 340 93 q 447 102 394 93 q 554 132 500 111 q 663 189 608 153 l 663 353 q 431 347 519 353 q 294 324 342 340 q 230 282 247 308 q 213 214 213 256 q 244 124 213 154 q 340 93 276 93 m 443 810 q 337 827 386 810 q 258 877 288 844 q 228 956 228 910 q 235 982 228 974 q 254 990 242 990 q 272 987 265 990 q 286 968 278 983 q 338 918 306 935 q 443 901 371 901 q 549 918 517 901 q 597 968 582 935 q 613 987 604 983 q 631 990 621 990 q 650 982 643 990 q 657 956 657 974 q 628 877 657 910 q 551 827 600 844 q 443 810 503 810 m 379 997 q 356 1002 364 997 q 349 1015 349 1007 q 353 1031 349 1022 q 364 1053 358 1040 l 419 1158 q 435 1178 426 1171 q 460 1190 443 1186 q 506 1194 476 1194 q 555 1190 538 1194 q 572 1172 572 1185 q 564 1150 572 1163 q 535 1114 556 1138 l 460 1031 q 435 1009 447 1017 q 411 999 424 1001 q 379 997 399 997 z "},"ặ":{"ha":924,"x_min":88,"x_max":799,"o":"m 335 -8 q 150 48 213 -8 q 88 214 88 104 q 114 331 88 285 q 205 403 140 376 q 381 442 269 431 q 663 453 493 453 l 663 476 q 642 570 663 536 q 572 619 621 604 q 440 635 524 635 q 306 621 367 635 q 205 593 244 607 q 154 579 165 579 q 141 586 147 579 q 129 604 135 593 q 120 626 124 615 q 117 646 117 638 q 148 672 117 657 q 228 701 179 688 q 335 725 278 715 q 443 735 392 735 q 598 717 533 735 q 703 667 663 700 q 763 585 744 633 q 782 475 782 536 l 782 211 q 786 115 782 153 q 794 56 790 76 q 799 32 799 36 q 790 16 799 22 q 768 6 781 10 q 743 1 756 3 q 724 0 731 0 q 701 10 710 0 q 688 42 693 21 q 675 96 682 64 q 576 39 631 63 q 462 3 522 15 q 335 -8 401 -8 m 340 93 q 447 102 394 93 q 554 132 500 111 q 663 189 608 153 l 663 353 q 431 347 519 353 q 294 324 342 340 q 230 282 247 308 q 213 214 213 256 q 244 124 213 154 q 340 93 276 93 m 469 -243 q 424 -235 439 -243 q 410 -212 410 -228 l 410 -142 q 424 -119 410 -126 q 469 -111 439 -111 q 515 -119 501 -111 q 529 -142 529 -126 l 529 -212 q 515 -235 529 -228 q 469 -243 501 -243 m 443 810 q 337 827 386 810 q 258 877 288 844 q 228 956 228 910 q 235 982 228 974 q 254 990 242 990 q 272 987 265 990 q 286 968 278 983 q 338 918 306 935 q 443 901 371 901 q 549 918 517 901 q 597 968 582 935 q 613 987 604 983 q 631 990 621 990 q 650 982 643 990 q 657 956 657 974 q 628 877 657 910 q 551 827 600 844 q 443 810 503 810 z "},"ằ":{"ha":924,"x_min":88,"x_max":799,"o":"m 335 -8 q 150 48 213 -8 q 88 214 88 104 q 114 331 88 285 q 205 403 140 376 q 381 442 269 431 q 663 453 493 453 l 663 476 q 642 570 663 536 q 572 619 621 604 q 440 635 524 635 q 306 621 367 635 q 205 593 244 607 q 154 579 165 579 q 141 586 147 579 q 129 604 135 593 q 120 626 124 615 q 117 646 117 638 q 148 672 117 657 q 228 701 179 688 q 335 725 278 715 q 443 735 392 735 q 598 717 533 735 q 703 667 663 700 q 763 585 744 633 q 782 475 782 536 l 782 211 q 786 115 782 153 q 794 56 790 76 q 799 32 799 36 q 790 16 799 22 q 768 6 781 10 q 743 1 756 3 q 724 0 731 0 q 701 10 710 0 q 688 42 693 21 q 675 96 682 64 q 576 39 631 63 q 462 3 522 15 q 335 -8 401 -8 m 340 93 q 447 102 394 93 q 554 132 500 111 q 663 189 608 153 l 663 353 q 431 347 519 353 q 294 324 342 340 q 230 282 247 308 q 213 214 213 256 q 244 124 213 154 q 340 93 276 93 m 443 810 q 337 827 386 810 q 258 877 288 844 q 228 956 228 910 q 235 982 228 974 q 254 990 242 990 q 272 987 265 990 q 286 968 278 983 q 338 918 306 935 q 443 901 371 901 q 549 918 517 901 q 597 968 582 935 q 613 987 604 983 q 631 990 621 990 q 650 982 643 990 q 657 956 657 974 q 628 877 657 910 q 551 827 600 844 q 443 810 503 810 m 504 997 q 473 999 486 997 q 449 1009 460 1001 q 424 1031 438 1017 l 349 1114 q 319 1150 328 1138 q 311 1172 311 1163 q 329 1190 311 1185 q 378 1194 347 1194 q 424 1190 407 1194 q 449 1178 440 1186 q 464 1158 458 1171 l 519 1053 q 531 1031 526 1040 q 535 1015 535 1022 q 527 1002 535 1007 q 504 997 519 997 z "},"ẳ":{"ha":924,"x_min":88,"x_max":799,"o":"m 335 -8 q 150 48 213 -8 q 88 214 88 104 q 114 331 88 285 q 205 403 140 376 q 381 442 269 431 q 663 453 493 453 l 663 476 q 642 570 663 536 q 572 619 621 604 q 440 635 524 635 q 306 621 367 635 q 205 593 244 607 q 154 579 165 579 q 141 586 147 579 q 129 604 135 593 q 120 626 124 615 q 117 646 117 638 q 148 672 117 657 q 228 701 179 688 q 335 725 278 715 q 443 735 392 735 q 598 717 533 735 q 703 667 663 700 q 763 585 744 633 q 782 475 782 536 l 782 211 q 786 115 782 153 q 794 56 790 76 q 799 32 799 36 q 790 16 799 22 q 768 6 781 10 q 743 1 756 3 q 724 0 731 0 q 701 10 710 0 q 688 42 693 21 q 675 96 682 64 q 576 39 631 63 q 462 3 522 15 q 335 -8 401 -8 m 340 93 q 447 102 394 93 q 554 132 500 111 q 663 189 608 153 l 663 353 q 431 347 519 353 q 294 324 342 340 q 230 282 247 308 q 213 214 213 256 q 244 124 213 154 q 340 93 276 93 m 443 810 q 337 827 386 810 q 258 877 288 844 q 228 956 228 910 q 235 982 228 974 q 254 990 242 990 q 272 987 265 990 q 286 968 278 983 q 338 918 306 935 q 443 901 371 901 q 549 918 517 901 q 597 968 582 935 q 613 987 604 983 q 631 990 621 990 q 650 982 643 990 q 657 956 657 974 q 628 877 657 910 q 551 827 600 844 q 443 810 503 810 m 432 979 q 411 992 422 979 q 400 1014 400 1004 q 415 1031 400 1021 q 448 1053 429 1040 q 481 1081 467 1065 q 496 1117 496 1097 q 476 1157 496 1146 q 436 1168 456 1168 q 376 1156 393 1168 q 346 1143 358 1143 q 333 1151 340 1143 q 319 1171 325 1160 q 313 1189 313 1182 q 331 1210 313 1199 q 379 1230 350 1221 q 439 1239 408 1239 q 499 1230 468 1239 q 553 1198 531 1221 q 575 1133 575 1175 q 557 1072 575 1100 q 513 1024 539 1044 q 465 991 488 1003 q 432 979 442 979 z "},"ẵ":{"ha":924,"x_min":88,"x_max":799,"o":"m 335 -8 q 150 48 213 -8 q 88 214 88 104 q 114 331 88 285 q 205 403 140 376 q 381 442 269 431 q 663 453 493 453 l 663 476 q 642 570 663 536 q 572 619 621 604 q 440 635 524 635 q 306 621 367 635 q 205 593 244 607 q 154 579 165 579 q 141 586 147 579 q 129 604 135 593 q 120 626 124 615 q 117 646 117 638 q 148 672 117 657 q 228 701 179 688 q 335 725 278 715 q 443 735 392 735 q 598 717 533 735 q 703 667 663 700 q 763 585 744 633 q 782 475 782 536 l 782 211 q 786 115 782 153 q 794 56 790 76 q 799 32 799 36 q 790 16 799 22 q 768 6 781 10 q 743 1 756 3 q 724 0 731 0 q 701 10 710 0 q 688 42 693 21 q 675 96 682 64 q 576 39 631 63 q 462 3 522 15 q 335 -8 401 -8 m 340 93 q 447 102 394 93 q 554 132 500 111 q 663 189 608 153 l 663 353 q 431 347 519 353 q 294 324 342 340 q 230 282 247 308 q 213 214 213 256 q 244 124 213 154 q 340 93 276 93 m 443 810 q 337 827 386 810 q 258 877 288 844 q 228 956 228 910 q 235 982 228 974 q 254 990 242 990 q 272 987 265 990 q 286 968 278 983 q 338 918 306 935 q 443 901 371 901 q 549 918 517 901 q 597 968 582 935 q 613 987 604 983 q 631 990 621 990 q 650 982 643 990 q 657 956 657 974 q 628 877 657 910 q 551 827 600 844 q 443 810 503 810 m 197 1011 q 181 1014 192 1011 q 163 1023 171 1017 q 154 1036 154 1029 q 156 1044 154 1040 q 158 1054 157 1049 q 224 1142 185 1118 q 315 1167 264 1167 q 410 1149 364 1167 q 499 1115 457 1132 q 571 1097 540 1097 q 631 1115 611 1097 q 662 1151 651 1133 q 683 1169 672 1169 q 710 1161 692 1169 q 728 1143 728 1153 q 726 1135 728 1139 q 722 1124 725 1131 q 655 1038 693 1064 q 567 1013 617 1013 q 470 1030 519 1013 q 378 1065 421 1047 q 307 1082 336 1082 q 251 1064 269 1082 q 222 1028 232 1046 q 197 1011 211 1011 z "},"ǎ":{"ha":924,"x_min":88,"x_max":799,"o":"m 335 -8 q 150 48 213 -8 q 88 214 88 104 q 114 331 88 285 q 205 403 140 376 q 381 442 269 431 q 663 453 493 453 l 663 476 q 642 570 663 536 q 572 619 621 604 q 440 635 524 635 q 306 621 367 635 q 205 593 244 607 q 154 579 165 579 q 141 586 147 579 q 129 604 135 593 q 120 626 124 615 q 117 646 117 638 q 148 672 117 657 q 228 701 179 688 q 335 725 278 715 q 443 735 392 735 q 598 717 533 735 q 703 667 663 700 q 763 585 744 633 q 782 475 782 536 l 782 211 q 786 115 782 153 q 794 56 790 76 q 799 32 799 36 q 790 16 799 22 q 768 6 781 10 q 743 1 756 3 q 724 0 731 0 q 701 10 710 0 q 688 42 693 21 q 675 96 682 64 q 576 39 631 63 q 462 3 522 15 q 335 -8 401 -8 m 340 93 q 447 102 394 93 q 554 132 500 111 q 663 189 608 153 l 663 353 q 431 347 519 353 q 294 324 342 340 q 230 282 247 308 q 213 214 213 256 q 244 124 213 154 q 340 93 276 93 m 593 997 q 616 992 608 997 q 624 979 624 988 q 618 963 624 974 q 606 942 613 953 l 539 836 q 523 817 532 825 q 495 804 514 808 q 442 800 476 800 q 388 804 407 800 q 360 817 369 808 q 344 836 351 825 l 278 942 q 265 963 271 953 q 260 979 260 974 q 267 992 260 988 q 290 997 275 997 q 326 990 314 997 q 358 964 339 983 l 440 879 l 522 964 q 556 990 542 983 q 593 997 569 997 z "},"â":{"ha":924,"x_min":88,"x_max":799,"o":"m 335 -8 q 150 48 213 -8 q 88 214 88 104 q 114 331 88 285 q 205 403 140 376 q 381 442 269 431 q 663 453 493 453 l 663 476 q 642 570 663 536 q 572 619 621 604 q 440 635 524 635 q 306 621 367 635 q 205 593 244 607 q 154 579 165 579 q 141 586 147 579 q 129 604 135 593 q 120 626 124 615 q 117 646 117 638 q 148 672 117 657 q 228 701 179 688 q 335 725 278 715 q 443 735 392 735 q 598 717 533 735 q 703 667 663 700 q 763 585 744 633 q 782 475 782 536 l 782 211 q 786 115 782 153 q 794 56 790 76 q 799 32 799 36 q 790 16 799 22 q 768 6 781 10 q 743 1 756 3 q 724 0 731 0 q 701 10 710 0 q 688 42 693 21 q 675 96 682 64 q 576 39 631 63 q 462 3 522 15 q 335 -8 401 -8 m 340 93 q 447 102 394 93 q 554 132 500 111 q 663 189 608 153 l 663 353 q 431 347 519 353 q 294 324 342 340 q 230 282 247 308 q 213 214 213 256 q 244 124 213 154 q 340 93 276 93 m 290 800 q 267 805 275 800 q 260 818 260 810 q 265 835 260 825 q 278 856 271 844 l 344 961 q 360 981 351 972 q 388 993 369 989 q 442 997 407 997 q 495 993 476 997 q 523 981 514 989 q 539 961 532 972 l 606 856 q 618 835 613 844 q 624 818 624 825 q 616 805 624 810 q 593 800 608 800 q 558 807 571 800 q 525 833 544 814 l 443 918 l 361 833 q 328 807 343 814 q 290 800 314 800 z "},"ấ":{"ha":924,"x_min":88,"x_max":799,"o":"m 335 -8 q 150 48 213 -8 q 88 214 88 104 q 114 331 88 285 q 205 403 140 376 q 381 442 269 431 q 663 453 493 453 l 663 476 q 642 570 663 536 q 572 619 621 604 q 440 635 524 635 q 306 621 367 635 q 205 593 244 607 q 154 579 165 579 q 141 586 147 579 q 129 604 135 593 q 120 626 124 615 q 117 646 117 638 q 148 672 117 657 q 228 701 179 688 q 335 725 278 715 q 443 735 392 735 q 598 717 533 735 q 703 667 663 700 q 763 585 744 633 q 782 475 782 536 l 782 211 q 786 115 782 153 q 794 56 790 76 q 799 32 799 36 q 790 16 799 22 q 768 6 781 10 q 743 1 756 3 q 724 0 731 0 q 701 10 710 0 q 688 42 693 21 q 675 96 682 64 q 576 39 631 63 q 462 3 522 15 q 335 -8 401 -8 m 340 93 q 447 102 394 93 q 554 132 500 111 q 663 189 608 153 l 663 353 q 431 347 519 353 q 294 324 342 340 q 230 282 247 308 q 213 214 213 256 q 244 124 213 154 q 340 93 276 93 m 290 800 q 267 805 275 800 q 260 818 260 810 q 265 835 260 825 q 278 856 271 844 l 344 961 q 360 981 351 972 q 388 993 369 989 q 442 997 407 997 q 495 993 476 997 q 523 981 514 989 q 539 961 532 972 l 606 856 q 618 835 613 844 q 624 818 624 825 q 616 805 624 810 q 593 800 608 800 q 558 807 571 800 q 525 833 544 814 l 443 918 l 361 833 q 328 807 343 814 q 290 800 314 800 m 379 1046 q 356 1051 364 1046 q 349 1064 349 1056 q 353 1080 349 1071 q 364 1101 358 1089 l 419 1207 q 435 1227 426 1219 q 460 1239 443 1235 q 506 1243 476 1243 q 555 1238 538 1243 q 572 1221 572 1233 q 564 1199 572 1211 q 535 1163 556 1186 l 460 1079 q 435 1058 447 1065 q 411 1048 424 1050 q 379 1046 399 1046 z "},"ậ":{"ha":924,"x_min":88,"x_max":799,"o":"m 335 -8 q 150 48 213 -8 q 88 214 88 104 q 114 331 88 285 q 205 403 140 376 q 381 442 269 431 q 663 453 493 453 l 663 476 q 642 570 663 536 q 572 619 621 604 q 440 635 524 635 q 306 621 367 635 q 205 593 244 607 q 154 579 165 579 q 141 586 147 579 q 129 604 135 593 q 120 626 124 615 q 117 646 117 638 q 148 672 117 657 q 228 701 179 688 q 335 725 278 715 q 443 735 392 735 q 598 717 533 735 q 703 667 663 700 q 763 585 744 633 q 782 475 782 536 l 782 211 q 786 115 782 153 q 794 56 790 76 q 799 32 799 36 q 790 16 799 22 q 768 6 781 10 q 743 1 756 3 q 724 0 731 0 q 701 10 710 0 q 688 42 693 21 q 675 96 682 64 q 576 39 631 63 q 462 3 522 15 q 335 -8 401 -8 m 340 93 q 447 102 394 93 q 554 132 500 111 q 663 189 608 153 l 663 353 q 431 347 519 353 q 294 324 342 340 q 230 282 247 308 q 213 214 213 256 q 244 124 213 154 q 340 93 276 93 m 469 -243 q 424 -235 439 -243 q 410 -212 410 -228 l 410 -142 q 424 -119 410 -126 q 469 -111 439 -111 q 515 -119 501 -111 q 529 -142 529 -126 l 529 -212 q 515 -235 529 -228 q 469 -243 501 -243 m 290 800 q 267 805 275 800 q 260 818 260 810 q 265 835 260 825 q 278 856 271 844 l 344 961 q 360 981 351 972 q 388 993 369 989 q 442 997 407 997 q 495 993 476 997 q 523 981 514 989 q 539 961 532 972 l 606 856 q 618 835 613 844 q 624 818 624 825 q 616 805 624 810 q 593 800 608 800 q 558 807 571 800 q 525 833 544 814 l 443 918 l 361 833 q 328 807 343 814 q 290 800 314 800 z "},"ầ":{"ha":924,"x_min":88,"x_max":799,"o":"m 335 -8 q 150 48 213 -8 q 88 214 88 104 q 114 331 88 285 q 205 403 140 376 q 381 442 269 431 q 663 453 493 453 l 663 476 q 642 570 663 536 q 572 619 621 604 q 440 635 524 635 q 306 621 367 635 q 205 593 244 607 q 154 579 165 579 q 141 586 147 579 q 129 604 135 593 q 120 626 124 615 q 117 646 117 638 q 148 672 117 657 q 228 701 179 688 q 335 725 278 715 q 443 735 392 735 q 598 717 533 735 q 703 667 663 700 q 763 585 744 633 q 782 475 782 536 l 782 211 q 786 115 782 153 q 794 56 790 76 q 799 32 799 36 q 790 16 799 22 q 768 6 781 10 q 743 1 756 3 q 724 0 731 0 q 701 10 710 0 q 688 42 693 21 q 675 96 682 64 q 576 39 631 63 q 462 3 522 15 q 335 -8 401 -8 m 340 93 q 447 102 394 93 q 554 132 500 111 q 663 189 608 153 l 663 353 q 431 347 519 353 q 294 324 342 340 q 230 282 247 308 q 213 214 213 256 q 244 124 213 154 q 340 93 276 93 m 290 800 q 267 805 275 800 q 260 818 260 810 q 265 835 260 825 q 278 856 271 844 l 344 961 q 360 981 351 972 q 388 993 369 989 q 442 997 407 997 q 495 993 476 997 q 523 981 514 989 q 539 961 532 972 l 606 856 q 618 835 613 844 q 624 818 624 825 q 616 805 624 810 q 593 800 608 800 q 558 807 571 800 q 525 833 544 814 l 443 918 l 361 833 q 328 807 343 814 q 290 800 314 800 m 504 1046 q 473 1048 486 1046 q 449 1058 460 1050 q 424 1079 438 1065 l 349 1163 q 319 1199 328 1186 q 311 1221 311 1211 q 329 1238 311 1233 q 378 1243 347 1243 q 424 1239 407 1243 q 449 1227 440 1235 q 464 1207 458 1219 l 519 1101 q 531 1080 526 1089 q 535 1064 535 1071 q 527 1051 535 1056 q 504 1046 519 1046 z "}}}
